<?xml version="1.0" encoding="utf-8"?>
<!-- Generator: Adobe Illustrator 24.1.0, SVG Export Plug-In . SVG Version: 6.00 Build 0)  -->
<svg version="1.1" id="Layer_1" xmlns="http://www.w3.org/2000/svg" xmlns:xlink="http://www.w3.org/1999/xlink" x="0px" y="0px"
	 viewBox="0 0 408 282.8" style="enable-background:new 0 0 408 282.8;" xml:space="preserve">
<style type="text/css">
	.st0{fill:#FFF9DC;}
</style>
<g>
	<path class="st0" d="M119.9,68.2c65-96,206.6-65.5,253.4-16.7c66,78.2,18,200.4-83.8,218.5c-155.2,23.1-188.1-84.8-189.9-140.8
		c0,0-84.1-15.7-99.6-25.2L119.9,68.2z"/>
	<path d="M160.7,70.6c-1.2,0-2.4-0.2-3.3-0.7c-0.9-0.5-1.8-1.3-2.4-2.2c-0.6-0.9-0.9-2.1-0.9-3.6c0-1.3,0.2-2.5,0.8-3.6
		s1.3-1.8,2.4-2.4c0.9-0.6,2.1-0.8,3.4-0.8c0.6,0,1.2,0,1.7,0.1s0.9,0.1,1.3,0.2l0.2,3.4h-1.4l-0.7-2.1c-0.1,0-0.4,0-0.5,0
		c-0.2,0-0.5,0-0.7,0c-0.9,0-1.8,0.2-2.4,0.7c-0.7,0.5-1.2,1.1-1.5,1.8c-0.4,0.7-0.6,1.7-0.6,2.6c0,0.9,0.2,1.8,0.6,2.6
		c0.4,0.7,0.9,1.3,1.8,1.8c0.7,0.5,1.7,0.6,2.7,0.6c0.2,0,0.4,0,0.6,0c0.2,0,0.4,0,0.5-0.1v-2.8l-2.1-0.2l0.4-1.3h3.7v5.8
		c-0.4,0.1-0.9,0.1-1.5,0.2C161.9,70.6,161.3,70.6,160.7,70.6z M165.9,70.6l-0.2-1.1l1.2-0.2v-6.4H166l-0.1-1.1l2.2-0.4l0.6,0.8
		c0.2-0.2,0.6-0.5,0.9-0.6c0.4-0.1,0.7-0.2,0.9-0.2c0.6,0,1.1,0.1,1.4,0.5c0.4,0.2,0.7,0.6,0.9,1.1l-1.8,1l-0.6-0.9
		c-0.2,0-0.5,0.1-0.7,0.2c-0.2,0.1-0.5,0.4-0.7,0.6c-0.2,0.2-0.4,0.7-0.4,1.2v4.1l2.5,0.5v1.1h-5.2L165.9,70.6L165.9,70.6z
		 M177.5,70.6c-0.8,0-1.5-0.2-2.1-0.6s-1.2-0.9-1.5-1.5c-0.4-0.7-0.5-1.5-0.5-2.4s0.2-1.8,0.6-2.5c0.4-0.7,0.8-1.3,1.4-1.7
		s1.3-0.6,2-0.6c0.5,0,0.9,0.1,1.4,0.2c0.5,0.2,0.8,0.5,1.2,0.8c0.2,0.4,0.5,0.8,0.5,1.4s-0.1,1.1-0.5,1.5c-0.2,0.4-0.6,0.7-1.1,0.9
		s-0.9,0.4-1.5,0.5s-1.1,0.1-1.7,0.1h-0.6c0.1,0.6,0.4,1.2,0.7,1.7c0.5,0.5,1.1,0.6,1.9,0.6c0.5,0,0.9-0.1,1.3-0.2
		c0.4-0.1,0.7-0.4,0.9-0.6l0.4,1.3c-0.2,0.2-0.6,0.5-1.2,0.6C178.7,70.6,178.1,70.6,177.5,70.6z M175.2,65.6h0.5c0.4,0,0.6,0,0.9,0
		c0.4,0,0.7-0.1,0.9-0.2c0.4-0.1,0.6-0.2,0.8-0.5c0.2-0.2,0.4-0.5,0.4-0.9s-0.1-0.7-0.4-0.8c-0.2-0.2-0.6-0.2-0.8-0.2
		c-0.5,0-0.8,0.1-1.2,0.4s-0.6,0.6-0.8,1.1C175.3,64.7,175.2,65.1,175.2,65.6z M186.1,70.6c-0.8,0-1.5-0.2-2.1-0.6s-1.2-0.9-1.5-1.5
		c-0.4-0.7-0.5-1.5-0.5-2.4s0.2-1.8,0.6-2.5c0.4-0.7,0.8-1.3,1.4-1.7s1.3-0.6,2-0.6c0.5,0,0.9,0.1,1.4,0.2c0.5,0.2,0.8,0.5,1.2,0.8
		c0.2,0.4,0.5,0.8,0.5,1.4s-0.1,1.1-0.5,1.5c-0.2,0.4-0.6,0.7-1.1,0.9s-0.9,0.4-1.5,0.5s-1.1,0.1-1.7,0.1h-0.6
		c0.1,0.6,0.4,1.2,0.7,1.7c0.5,0.5,1.1,0.6,1.9,0.6c0.5,0,0.9-0.1,1.3-0.2c0.4-0.1,0.7-0.4,0.9-0.6l0.4,1.3
		c-0.2,0.2-0.6,0.5-1.2,0.6C187.2,70.6,186.7,70.6,186.1,70.6z M183.7,65.6h0.5c0.4,0,0.6,0,0.9,0c0.4,0,0.7-0.1,0.9-0.2
		c0.4-0.1,0.6-0.2,0.8-0.5s0.4-0.5,0.4-0.9s-0.1-0.7-0.4-0.8c-0.2-0.2-0.6-0.2-0.8-0.2c-0.5,0-0.8,0.1-1.2,0.4
		c-0.4,0.2-0.6,0.6-0.8,1.1C183.8,64.7,183.7,65.1,183.7,65.6z M193.5,70.6c-0.6,0-1.1-0.2-1.4-0.6c-0.4-0.4-0.6-0.9-0.6-1.8v-5.6
		h-1.4l-0.2-1.2l0.1-0.2h1.7V58l1.5-0.4l0.1,0.2v3.3h1.9c0.1,0,0.1,0,0.1,0.1v1.3h-2v5.6c0,0.4,0.1,0.6,0.2,0.7
		c0.1,0.1,0.4,0.1,0.6,0.1c0.2,0,0.5-0.1,0.7-0.2s0.4-0.2,0.5-0.4l0.4,1.2c-0.1,0.1-0.4,0.4-0.7,0.5C194.5,70.6,194,70.6,193.5,70.6
		z M196.6,70.6l-0.2-0.9l1.1-0.2V63h-0.9l-0.2-1.1l2.4-0.5l0.6,0.6v7.2l1.1,0.2v1.1C200.3,70.6,196.6,70.6,196.6,70.6z M198.1,59.1
		c-0.4,0-0.6-0.1-0.8-0.4c-0.2-0.2-0.4-0.5-0.4-0.8c0-0.4,0.1-0.6,0.4-0.8c0.2-0.2,0.5-0.4,0.8-0.4c0.4,0,0.6,0.1,0.8,0.4
		c0.2,0.2,0.4,0.5,0.4,0.8c0,0.4-0.1,0.6-0.4,0.8C198.7,59,198.5,59.1,198.1,59.1z M201.7,70.6l-0.1-0.9l1.1-0.2V63h-0.9l-0.2-1.1
		l2.4-0.5l0.5,0.7c0.2-0.2,0.6-0.4,1.1-0.5c0.4-0.1,0.8-0.2,1.2-0.2c0.8,0,1.5,0.2,2,0.7s0.8,1.1,0.8,2v5.2l1.1,0.2v1.1h-3.8v-1.1
		l1.1-0.2v-5c0-0.9-0.5-1.5-1.4-1.5c-0.4,0-0.7,0.1-1.1,0.2c-0.4,0.1-0.6,0.4-0.8,0.5v5.8l1.1,0.2v0.9H202v0.2H201.7z M215,75.7
		c-0.7,0-1.3-0.1-1.9-0.4s-0.9-0.6-1.3-0.9c-0.4-0.5-0.5-0.9-0.5-1.5s0.1-1.2,0.5-1.5c0.4-0.5,0.7-0.7,1.1-0.9
		c-0.1-0.1-0.4-0.4-0.4-0.5c-0.1-0.2-0.1-0.4-0.1-0.7s0.1-0.6,0.2-0.8c0.1-0.2,0.4-0.5,0.5-0.6c-0.5-0.2-0.8-0.7-1.1-1.1
		c-0.2-0.5-0.4-1.1-0.4-1.7c0-0.7,0.1-1.3,0.5-1.8s0.7-0.9,1.3-1.2c0.6-0.2,1.2-0.5,1.8-0.5c0.9,0,1.7,0.2,2.4,0.8l1.9-0.9h0.4
		l0.2,1.5l-1.7,0.2c0.1,0.2,0.2,0.5,0.4,0.8c0.1,0.2,0.1,0.6,0.1,0.9c0,0.7-0.1,1.3-0.5,1.8s-0.7,0.8-1.3,1.2
		c-0.6,0.2-1.2,0.4-1.8,0.4c-0.2,0-0.6,0-0.7-0.1l-0.4,0.6v0.4l2,0.5c0.9,0.2,1.7,0.5,2.1,0.9c0.6,0.4,0.8,1.1,0.8,1.8
		c0,0.7-0.2,1.4-0.6,1.9c-0.4,0.5-0.8,0.8-1.5,1.2C216.4,75.6,215.7,75.7,215,75.7z M215.2,73.9c0.4,0,0.8-0.1,1.2-0.2
		s0.7-0.2,0.9-0.5s0.4-0.5,0.4-0.8c0-0.2-0.1-0.5-0.4-0.7c-0.2-0.1-0.5-0.4-0.8-0.4c-0.4-0.1-0.7-0.2-1.2-0.2
		c-0.4-0.1-0.8-0.1-1.2-0.2c-0.4,0.1-0.7,0.4-0.9,0.7c-0.2,0.2-0.4,0.6-0.4,0.9c0,0.5,0.2,0.8,0.7,1.1
		C214,73.8,214.5,73.9,215.2,73.9z M215.2,66.8c0.6,0,1.1-0.2,1.3-0.6c0.4-0.4,0.5-0.8,0.5-1.4s-0.1-1.1-0.5-1.4
		c-0.4-0.4-0.7-0.6-1.3-0.6s-1.1,0.2-1.3,0.6c-0.4,0.4-0.5,0.8-0.5,1.4s0.1,1.1,0.5,1.4C214.1,66.6,214.6,66.8,215.2,66.8z
		 M223.8,70.6c-0.6,0-1.1-0.1-1.5-0.4c-0.5-0.2-0.8-0.5-1.1-0.8c-0.2-0.4-0.5-0.6-0.6-0.9l1.9-0.7l0.5,1.1c0.1,0,0.2,0.1,0.4,0.1
		s0.4,0,0.6,0c0.1,0,0.4,0,0.6-0.1c0.2-0.1,0.4-0.2,0.5-0.4s0.2-0.4,0.2-0.6c0-0.5-0.2-0.7-0.6-0.9c-0.4-0.2-0.8-0.4-1.4-0.6
		c-0.8-0.2-1.3-0.6-1.8-1.1c-0.4-0.5-0.6-0.9-0.6-1.5c0-0.5,0.1-0.9,0.5-1.4c0.2-0.4,0.6-0.7,1.1-0.9s0.9-0.4,1.5-0.4
		s1.1,0.1,1.5,0.4c0.5,0.2,0.8,0.5,1.1,0.7c0.2,0.2,0.5,0.6,0.6,0.8l-1.9,0.7l-0.5-0.9c0,0-0.1-0.1-0.2-0.1
		c-0.1-0.1-0.4-0.1-0.6-0.1c-0.2,0-0.6,0.1-0.8,0.2c-0.2,0.1-0.4,0.4-0.4,0.8s0.2,0.6,0.6,0.8c0.4,0.2,0.9,0.5,1.7,0.7
		c0.6,0.2,1.1,0.6,1.4,0.9c0.4,0.4,0.6,0.9,0.6,1.5s-0.1,1.1-0.5,1.5s-0.7,0.7-1.2,0.9C224.9,70.6,224.4,70.6,223.8,70.6z
		 M229.5,66.1l-0.5-8.3l2.1-0.4l0.4,0.7l-0.7,7.8h-1.3V66.1z M230.2,70.6c-0.4,0-0.6-0.1-0.8-0.4c-0.2-0.2-0.4-0.5-0.4-0.8
		s0.1-0.6,0.4-0.8c0.2-0.2,0.5-0.4,0.8-0.4s0.6,0.1,0.8,0.4c0.2,0.2,0.4,0.5,0.4,0.8s-0.1,0.6-0.4,0.8
		C230.8,70.5,230.6,70.6,230.2,70.6z M238.4,70.6l-0.1-1.4l1.2-0.2V58.9l-1.2-0.1v-1.3h4.1l0.2,1.4l-1.2,0.2V69l1.2,0.1v1.4
		C242.7,70.6,238.4,70.6,238.4,70.6z M245.2,62.4l-1.2-0.6v-0.2l0.8-1.9l-0.5-2.2l2-0.4c0,0.1,0.1,0.4,0.1,0.6
		c0.1,0.4,0.1,0.7,0.1,1.1c0,0.7-0.1,1.4-0.4,2C245.9,61.4,245.5,61.9,245.2,62.4z M248,70.6l-0.2-0.9l1.2-0.4v-6.5h-1l-0.2-1.1
		l2.4-0.5l0.5,0.7c0.2-0.2,0.6-0.4,1.1-0.5s0.8-0.2,1.2-0.2c0.5,0,0.9,0.1,1.3,0.2c0.4,0.1,0.7,0.4,0.9,0.7c0.5-0.4,1.1-0.7,1.5-0.7
		c0.5-0.1,0.9-0.1,1.3-0.1c0.8,0,1.5,0.2,2,0.7s0.8,1.1,0.8,2v5.2l1.1,0.2v1.1h-3.8v-0.9l1.1-0.2v-5c0-0.9-0.5-1.5-1.4-1.5
		c-0.4,0-0.7,0.1-0.9,0.2c-0.4,0.1-0.7,0.4-0.9,0.6v5.6l1.1,0.2v1.1h-3.8v-1.1l1.1-0.2v-5c0-0.9-0.5-1.5-1.4-1.5
		c-0.4,0-0.7,0.1-1.1,0.2c-0.4,0.1-0.6,0.4-0.8,0.5v5.8l1.1,0.2v0.9H248V70.6z M267.8,70.6l-0.2-1.3l1.2-0.2v-9.9l-1.2-0.1v-1.5h3.1
		c1.4,0,2.6,0.2,3.7,0.7s1.9,1.2,2.5,2.1c0.6,0.9,0.9,2.1,0.9,3.6c0,2.1-0.6,3.8-1.8,5c-1.2,1.1-2.7,1.7-4.9,1.7L267.8,70.6
		L267.8,70.6L267.8,70.6z M271.2,68.9c1.1,0,2-0.2,2.7-0.7s1.2-1.1,1.4-1.8c0.4-0.7,0.5-1.7,0.5-2.5c0-1.5-0.5-2.7-1.3-3.6
		c-0.8-0.8-2-1.3-3.6-1.3h-0.4v9.8L271.2,68.9z M283.4,70.6c-0.8,0-1.5-0.2-2.1-0.6s-1.2-0.9-1.5-1.5c-0.4-0.7-0.5-1.5-0.5-2.4
		s0.2-1.8,0.6-2.5c0.4-0.7,0.8-1.3,1.4-1.7s1.3-0.6,2-0.6c0.5,0,0.9,0.1,1.4,0.2c0.5,0.2,0.8,0.5,1.2,0.8c0.2,0.4,0.5,0.8,0.5,1.4
		s-0.1,1.1-0.5,1.5c-0.2,0.4-0.7,0.7-1.1,0.9c-0.5,0.2-0.9,0.4-1.5,0.5s-1.1,0.1-1.7,0.1h-0.7c0.1,0.6,0.4,1.2,0.7,1.7
		c0.5,0.5,1.1,0.6,1.9,0.6c0.5,0,0.9-0.1,1.3-0.2s0.7-0.4,0.9-0.6l0.4,1.3c-0.2,0.2-0.7,0.5-1.2,0.6C284.6,70.6,284,70.6,283.4,70.6
		z M280.9,65.6h0.5c0.4,0,0.6,0,0.9,0s0.7-0.1,0.9-0.2c0.4-0.1,0.6-0.2,0.8-0.5s0.4-0.5,0.4-0.9s-0.1-0.7-0.4-0.8
		c-0.2-0.2-0.6-0.2-0.8-0.2c-0.5,0-0.8,0.1-1.2,0.4c-0.4,0.2-0.6,0.6-0.8,1.1C281.2,64.7,281,65.1,280.9,65.6z M290.9,70.6
		c-0.6,0-1.1-0.2-1.4-0.6s-0.6-0.9-0.6-1.8v-5.6h-1.4l-0.2-1.2l0.1-0.2h1.7V58l1.5-0.4l0.1,0.2v3.3h1.9c0.1,0,0.1,0,0.1,0.1v1.3h-2
		v5.6c0,0.4,0.1,0.6,0.2,0.7s0.4,0.1,0.6,0.1s0.5-0.1,0.7-0.2s0.4-0.2,0.5-0.4l0.4,1.2c-0.1,0.1-0.4,0.4-0.7,0.5
		C291.7,70.6,291.3,70.6,290.9,70.6z M298,70.6c-0.8,0-1.5-0.2-2.1-0.6s-1.2-0.9-1.5-1.5c-0.4-0.7-0.5-1.5-0.5-2.4s0.2-1.8,0.6-2.5
		c0.4-0.7,0.8-1.3,1.4-1.7s1.3-0.6,2-0.6c0.5,0,0.9,0.1,1.4,0.2c0.5,0.2,0.8,0.5,1.2,0.8c0.2,0.4,0.5,0.8,0.5,1.4s-0.1,1.1-0.5,1.5
		c-0.2,0.4-0.6,0.7-1.1,0.9s-0.9,0.4-1.5,0.5s-1.1,0.1-1.7,0.1h-0.6c0.1,0.6,0.4,1.2,0.7,1.7c0.5,0.5,1.1,0.6,1.9,0.6
		c0.5,0,0.9-0.1,1.3-0.2s0.7-0.4,0.9-0.6l0.4,1.3c-0.2,0.2-0.6,0.5-1.2,0.6C299.2,70.6,298.6,70.6,298,70.6z M295.6,65.6h0.5
		c0.4,0,0.6,0,0.9,0s0.7-0.1,0.9-0.2c0.4-0.1,0.6-0.2,0.8-0.5s0.4-0.5,0.4-0.9s-0.1-0.7-0.4-0.8c-0.2-0.2-0.6-0.2-0.8-0.2
		c-0.5,0-0.8,0.1-1.2,0.4c-0.4,0.2-0.6,0.6-0.8,1.1C295.7,64.7,295.6,65.1,295.6,65.6z M306.3,70.6c-0.7,0-1.4-0.2-2-0.6
		s-1.1-0.9-1.4-1.5c-0.4-0.7-0.5-1.4-0.5-2.4c0-1.1,0.1-1.9,0.5-2.6c0.4-0.7,0.8-1.3,1.4-1.7s1.3-0.6,2.1-0.6c0.6,0,0.9,0.1,1.4,0.2
		c0.4,0.1,0.7,0.4,0.9,0.5c0.2,0.2,0.4,0.4,0.5,0.5l-1.5,1.3l-0.9-0.9h-0.5c-0.5,0-0.9,0.1-1.3,0.5s-0.6,0.7-0.7,1.2
		s-0.2,1.1-0.2,1.7c0,0.5,0.1,1.1,0.2,1.5s0.5,0.8,0.8,1.2c0.4,0.2,0.8,0.5,1.5,0.5c0.5,0,0.8-0.1,1.2-0.2c0.4-0.1,0.6-0.4,0.8-0.5
		l0.5,1.3c-0.4,0.2-0.7,0.5-1.2,0.6C307.3,70.6,306.9,70.6,306.3,70.6z M313.4,70.6c-0.6,0-1.1-0.2-1.4-0.6
		c-0.4-0.4-0.6-0.9-0.6-1.8v-5.6H310l-0.2-1.2l0.1-0.2h1.7V58l1.5-0.4l0.1,0.2v3.3h1.9c0.1,0,0.1,0,0.1,0.1v1.3h-2v5.6
		c0,0.4,0.1,0.6,0.2,0.7s0.4,0.1,0.6,0.1s0.5-0.1,0.7-0.2s0.4-0.2,0.5-0.4l0.4,1.2c-0.1,0.1-0.4,0.4-0.7,0.5
		C314.3,70.6,313.8,70.6,313.4,70.6z M316.4,70.6l-0.2-0.9l1.1-0.2V63h-0.9l-0.2-1.1l2.4-0.5l0.6,0.6v7.2l1.1,0.2v1.1
		C320.1,70.6,316.4,70.6,316.4,70.6z M318,59.1c-0.4,0-0.6-0.1-0.8-0.4c-0.2-0.2-0.4-0.5-0.4-0.8c0-0.4,0.1-0.6,0.4-0.8
		c0.2-0.2,0.5-0.4,0.8-0.4c0.4,0,0.6,0.1,0.8,0.4c0.2,0.2,0.4,0.5,0.4,0.8c0,0.4-0.1,0.6-0.4,0.8C318.6,59,318.3,59.1,318,59.1z
		 M324.1,70.6l-2.6-7.9h-0.8l-0.1-1.1l2.5-0.2l2.2,7.1l2.2-5.8h-0.8l-0.1-1.1l2.4-0.2l0.4,0.7l-3.2,8.5
		C326.2,70.6,324.1,70.6,324.1,70.6z M334.3,70.6c-0.8,0-1.5-0.2-2.1-0.6s-1.2-0.9-1.5-1.5c-0.4-0.7-0.5-1.5-0.5-2.4
		s0.2-1.8,0.6-2.5c0.4-0.7,0.8-1.3,1.4-1.7s1.3-0.6,2-0.6c0.5,0,0.9,0.1,1.4,0.2c0.5,0.2,0.8,0.5,1.2,0.8c0.2,0.4,0.5,0.8,0.5,1.4
		s-0.1,1.1-0.5,1.5c-0.2,0.4-0.6,0.7-1.1,0.9c-0.5,0.2-0.9,0.4-1.5,0.5s-1.1,0.1-1.7,0.1H332c0.1,0.6,0.4,1.2,0.7,1.7
		c0.5,0.5,1.1,0.6,1.9,0.6c0.5,0,0.9-0.1,1.3-0.2s0.7-0.4,0.9-0.6l0.4,1.3c-0.2,0.2-0.6,0.5-1.2,0.6
		C335.5,70.6,334.9,70.6,334.3,70.6z M331.8,65.6h0.5c0.4,0,0.6,0,0.9,0s0.7-0.1,0.9-0.2c0.4-0.1,0.6-0.2,0.8-0.5s0.4-0.5,0.4-0.9
		s-0.1-0.7-0.4-0.8c-0.2-0.2-0.6-0.2-0.8-0.2c-0.5,0-0.8,0.1-1.2,0.4s-0.6,0.6-0.8,1.1C332.1,64.7,332,65.1,331.8,65.6z
		 M137.5,101.4l-0.2-1.4l1.2-0.2V89.7l-1.2-0.1v-1.3h3.9l0.1,1.4l-1.1,0.2v4h5v-4l-1.1-0.1v-1.5h4l0.1,1.4l-1.2,0.2v9.9l1.2,0.1v1.4
		h-4L144,100l1.1-0.2v-4.4h-5v4.4l1.2,0.1v1.4L137.5,101.4L137.5,101.4z M153.7,101.4c-0.8,0-1.4-0.2-2.1-0.6
		c-0.6-0.4-1.1-0.9-1.4-1.7c-0.4-0.7-0.5-1.5-0.5-2.4s0.1-1.7,0.5-2.4c0.4-0.7,0.8-1.2,1.4-1.7c0.6-0.4,1.3-0.6,2-0.6
		c0.8,0,1.5,0.2,2.1,0.6s1.1,0.9,1.4,1.7c0.4,0.7,0.5,1.5,0.5,2.4c0,0.8-0.1,1.7-0.5,2.4s-0.8,1.3-1.4,1.7
		C155.2,101.3,154.6,101.4,153.7,101.4z M153.7,100c0.7,0,1.3-0.2,1.7-0.8c0.4-0.6,0.6-1.3,0.6-2.2s-0.2-1.8-0.6-2.4
		c-0.4-0.6-0.9-0.9-1.7-0.9c-0.5,0-0.9,0.1-1.2,0.5c-0.4,0.4-0.6,0.7-0.7,1.2c-0.1,0.5-0.2,1.1-0.2,1.7c0,0.9,0.2,1.7,0.6,2.2
		C152.4,99.7,153,100,153.7,100z M163.1,101.4c-0.8,0-1.4-0.2-2.1-0.6c-0.6-0.4-1.1-0.9-1.4-1.7c-0.4-0.7-0.5-1.5-0.5-2.4
		s0.1-1.7,0.5-2.4c0.4-0.7,0.8-1.2,1.4-1.7c0.6-0.4,1.3-0.6,2-0.6c0.8,0,1.5,0.2,2.1,0.6s1.1,0.9,1.4,1.7c0.4,0.7,0.5,1.5,0.5,2.4
		c0,0.8-0.1,1.7-0.5,2.4c-0.4,0.7-0.8,1.3-1.4,1.7C164.5,101.3,163.9,101.4,163.1,101.4z M163.1,100c0.7,0,1.3-0.2,1.7-0.8
		c0.4-0.6,0.6-1.3,0.6-2.2s-0.2-1.8-0.6-2.4s-0.9-0.9-1.7-0.9c-0.5,0-0.9,0.1-1.2,0.5c-0.4,0.4-0.6,0.7-0.7,1.2
		c-0.1,0.5-0.2,1.1-0.2,1.7c0,0.9,0.2,1.7,0.6,2.2C161.8,99.7,162.4,100,163.1,100z M171.5,101.4c-0.6,0-1.1-0.2-1.4-0.6
		c-0.4-0.4-0.6-0.9-0.6-1.8v-5.6h-1.4l-0.2-1.2L168,92h1.7v-3.2l1.5-0.4l0.1,0.2V92h1.9c0.1,0,0.1,0,0.1,0.1v1.3h-2V99
		c0,0.4,0.1,0.6,0.2,0.7c0.1,0.1,0.4,0.1,0.6,0.1c0.2,0,0.5-0.1,0.7-0.2s0.4-0.2,0.5-0.4l0.4,1.2c-0.1,0.1-0.4,0.4-0.7,0.5
		C172.4,101.4,172.1,101.4,171.5,101.4z M174.3,103.5v-0.2l0.9-1.8l-0.5-2.2l1.9-0.4c0,0.1,0,0.2,0.1,0.6c0,0.2,0.1,0.6,0.1,0.9
		c0,0.5-0.1,0.9-0.2,1.4c-0.1,0.5-0.4,0.9-0.6,1.3c-0.2,0.4-0.5,0.7-0.7,0.9L174.3,103.5z M185.9,101.4c-0.8,0-1.4-0.2-2-0.7
		c-0.5-0.5-0.8-1.1-0.8-1.8c0-0.6,0.1-1.1,0.5-1.4c0.4-0.4,0.7-0.7,1.2-0.9c0.5-0.2,1.1-0.4,1.5-0.5c0.6-0.1,1.1-0.1,1.5-0.1v-1.3
		c0-0.2-0.1-0.5-0.4-0.7c-0.2-0.2-0.6-0.2-1.1-0.2c-0.1,0-0.4,0-0.5,0s-0.4,0-0.5,0.1l-0.4,1.2l-1.9-0.6c0.2-0.7,0.7-1.2,1.3-1.5
		s1.3-0.6,2-0.6c0.9,0,1.7,0.2,2.2,0.7c0.6,0.5,0.8,1.2,0.8,2.1v4.6c0,0.4,0.1,0.5,0.4,0.5c0.1,0,0.1,0,0.2,0c0.1,0,0.1,0,0.1,0
		l0.2,0.8c-0.1,0.1-0.2,0.2-0.5,0.4c-0.2,0.1-0.5,0.1-0.7,0.1c-0.4,0-0.6-0.1-0.8-0.2s-0.4-0.4-0.5-0.6c-0.2,0.2-0.6,0.5-0.9,0.6
		C186.8,101.4,186.3,101.4,185.9,101.4z M186.2,100c0.4,0,0.7-0.1,1.1-0.2c0.4-0.2,0.6-0.5,0.7-0.7v-1.8c-0.2,0-0.6,0-0.9,0.1
		c-0.4,0-0.7,0.1-0.9,0.2c-0.4,0.1-0.6,0.2-0.8,0.5c-0.2,0.2-0.4,0.5-0.4,0.8s0.1,0.6,0.4,0.8C185.5,99.8,185.8,100,186.2,100z
		 M196.5,101.4l-0.2-0.9l1.1-0.2v-6.5h-0.9l-0.2-1.1l2.4-0.5l0.5,0.7c0.2-0.2,0.6-0.4,1.1-0.5s0.8-0.2,1.2-0.2
		c0.5,0,0.9,0.1,1.3,0.2c0.4,0.1,0.7,0.4,0.9,0.7c0.5-0.4,1.1-0.7,1.5-0.7c0.5-0.1,0.9-0.1,1.3-0.1c0.8,0,1.5,0.2,2,0.7
		s0.8,1.1,0.8,2v5.1l1.1,0.2v1.1h-3.9v-0.9l1.1-0.2v-5c0-0.9-0.5-1.5-1.4-1.5c-0.4,0-0.6,0.1-0.9,0.2c-0.4,0.1-0.7,0.4-0.9,0.6v5.6
		l1.1,0.2v1.1h-3.8v-1.1l1.1-0.2v-5c0-0.9-0.5-1.5-1.4-1.5c-0.4,0-0.7,0.1-1.1,0.2c-0.4,0.1-0.6,0.4-0.8,0.5v5.8l1.1,0.2v0.9h-3.7
		v0.1H196.5z M214.1,101.4c-0.8,0-1.4-0.2-2-0.7c-0.5-0.5-0.8-1.1-0.8-1.8c0-0.6,0.1-1.1,0.5-1.4c0.4-0.4,0.7-0.7,1.2-0.9
		c0.5-0.2,1.1-0.4,1.5-0.5c0.6-0.1,1.1-0.1,1.5-0.1v-1.3c0-0.2-0.1-0.5-0.4-0.7c-0.2-0.2-0.6-0.2-1.1-0.2c-0.1,0-0.4,0-0.5,0
		s-0.4,0-0.5,0.1l-0.4,1.2l-1.9-0.6c0.2-0.7,0.7-1.2,1.3-1.5s1.3-0.6,2-0.6c0.9,0,1.7,0.2,2.2,0.7c0.6,0.5,0.8,1.2,0.8,2.1v4.6
		c0,0.4,0.1,0.5,0.4,0.5c0.1,0,0.1,0,0.2,0c0.1,0,0.1,0,0.1,0l0.2,0.8c-0.1,0.1-0.2,0.2-0.5,0.4c-0.2,0.1-0.5,0.1-0.7,0.1
		c-0.4,0-0.6-0.1-0.8-0.2s-0.4-0.4-0.5-0.6c-0.2,0.2-0.6,0.5-0.9,0.6C215,101.4,214.6,101.4,214.1,101.4z M214.4,100
		c0.4,0,0.7-0.1,1.1-0.2c0.4-0.2,0.6-0.5,0.7-0.7v-1.8c-0.2,0-0.6,0-0.9,0.1c-0.4,0-0.7,0.1-0.9,0.2c-0.4,0.1-0.6,0.2-0.8,0.5
		c-0.2,0.2-0.4,0.5-0.4,0.8s0.1,0.6,0.4,0.8C213.7,99.8,214,100,214.4,100z M223,101.4c-0.6,0-1.1-0.1-1.5-0.4
		c-0.5-0.2-0.8-0.5-1.1-0.8c-0.2-0.4-0.5-0.6-0.6-0.9l1.9-0.7l0.5,1.1c0.1,0,0.2,0.1,0.4,0.1c0.1,0,0.4,0,0.6,0c0.1,0,0.4,0,0.6-0.1
		c0.2-0.1,0.4-0.2,0.5-0.4c0.1-0.1,0.2-0.4,0.2-0.6c0-0.5-0.2-0.7-0.6-0.9c-0.4-0.2-0.8-0.4-1.4-0.6c-0.8-0.2-1.3-0.6-1.8-1.1
		c-0.4-0.5-0.6-0.9-0.6-1.5c0-0.5,0.1-0.9,0.5-1.4c0.2-0.4,0.6-0.7,1.1-0.9c0.5-0.2,0.9-0.4,1.5-0.4s1.1,0.1,1.5,0.4
		c0.5,0.2,0.8,0.5,1.1,0.7c0.2,0.2,0.5,0.6,0.6,0.8l-1.9,0.7l-0.5-0.9c0,0-0.1-0.1-0.2-0.1c-0.1-0.1-0.4-0.1-0.6-0.1
		c-0.2,0-0.6,0.1-0.8,0.2S222,94,222,94.4s0.2,0.6,0.6,0.8c0.4,0.2,0.9,0.5,1.7,0.7c0.6,0.2,1.1,0.6,1.4,0.9
		c0.4,0.4,0.6,0.9,0.6,1.5s-0.1,1.1-0.5,1.5c-0.4,0.5-0.7,0.7-1.2,0.9C224.1,101.4,223.6,101.4,223,101.4z M230.8,101.4
		c-0.6,0-1.1-0.2-1.4-0.6c-0.4-0.4-0.6-0.9-0.6-1.8v-5.6h-1.4l-0.2-1.2l0.1-0.2h1.7v-3.2l1.5-0.4l0.1,0.2V92h1.9
		c0.1,0,0.1,0,0.1,0.1v1.3h-2V99c0,0.4,0.1,0.6,0.2,0.7c0.1,0.1,0.4,0.1,0.6,0.1c0.2,0,0.5-0.1,0.7-0.2s0.4-0.2,0.5-0.4l0.4,1.2
		c-0.1,0.1-0.4,0.4-0.7,0.5C231.7,101.4,231.3,101.4,230.8,101.4z M237.9,101.4c-0.8,0-1.5-0.2-2.1-0.6s-1.2-0.9-1.5-1.5
		c-0.4-0.7-0.5-1.5-0.5-2.4s0.2-1.8,0.6-2.5c0.4-0.7,0.8-1.3,1.4-1.7c0.6-0.4,1.3-0.6,2-0.6c0.5,0,0.9,0.1,1.4,0.2
		c0.5,0.2,0.8,0.5,1.2,0.8c0.2,0.4,0.5,0.8,0.5,1.4s-0.1,1.1-0.5,1.5c-0.2,0.4-0.6,0.7-1.1,0.9c-0.5,0.2-0.9,0.4-1.5,0.5
		s-1.1,0.1-1.7,0.1h-0.6c0.1,0.6,0.4,1.2,0.7,1.7c0.5,0.5,1.1,0.6,1.9,0.6c0.5,0,0.9-0.1,1.3-0.2c0.4-0.1,0.7-0.4,0.9-0.6l0.4,1.3
		c-0.2,0.2-0.6,0.5-1.2,0.6C239.1,101.4,238.5,101.4,237.9,101.4z M235.6,96.4h0.5c0.4,0,0.6,0,0.9,0s0.7-0.1,0.9-0.2
		c0.4-0.1,0.6-0.2,0.8-0.5c0.2-0.2,0.4-0.5,0.4-0.9s-0.1-0.7-0.4-0.8c-0.2-0.2-0.6-0.2-0.8-0.2c-0.5,0-0.8,0.1-1.2,0.4
		c-0.4,0.2-0.6,0.6-0.8,1.1C235.7,95.5,235.6,95.9,235.6,96.4z M242.4,101.4l-0.2-1.1l1.2-0.2v-6.4h-0.9l-0.1-1.1l2.2-0.4l0.6,0.8
		c0.2-0.2,0.6-0.5,0.9-0.6c0.4-0.1,0.7-0.2,0.9-0.2c0.6,0,1.1,0.1,1.4,0.5c0.4,0.2,0.7,0.6,0.9,1.1l-1.9,0.9l-0.6-0.9
		c-0.2,0-0.5,0.1-0.7,0.2s-0.5,0.4-0.7,0.6s-0.4,0.7-0.4,1.2v4.1l2.5,0.5v1.1h-5.2v-0.1H242.4z M254.9,101.4l-0.2-0.9l1.1-0.2v-6.5
		h-1.3l-0.2-1.2l0.1-0.2h1.4v-1.7c0-1.1,0.2-1.8,0.7-2.2c0.5-0.5,1.2-0.7,1.9-0.7c0.4,0,0.8,0.1,1.3,0.2s0.8,0.5,1.3,0.8l-1.5,1.3
		l-0.9-0.9h-0.2c-0.4,0-0.5,0.1-0.6,0.4c-0.1,0.2-0.1,0.5-0.1,0.7v2.1h2.1c0.1,0,0.1,0,0.1,0.1v1.3h-2.2v6.4l1.9,0.2v1.1h-4.7V101.4
		z M263.6,101.4c-0.8,0-1.4-0.2-2-0.7c-0.5-0.5-0.8-1.1-0.8-1.8c0-0.6,0.1-1.1,0.5-1.4c0.4-0.4,0.7-0.7,1.2-0.9
		c0.5-0.2,1.1-0.4,1.5-0.5c0.6-0.1,1.1-0.1,1.5-0.1v-1.3c0-0.2-0.1-0.5-0.4-0.7c-0.2-0.2-0.6-0.2-1.1-0.2c-0.1,0-0.4,0-0.5,0
		s-0.4,0-0.5,0.1l-0.4,1.2l-1.9-0.6c0.2-0.7,0.7-1.2,1.3-1.5s1.3-0.6,2-0.6c0.9,0,1.7,0.2,2.2,0.7c0.6,0.5,0.8,1.2,0.8,2.1v4.6
		c0,0.4,0.1,0.5,0.4,0.5c0.1,0,0.1,0,0.2,0s0.1,0,0.1,0l0.2,0.8c-0.1,0.1-0.2,0.2-0.5,0.4c-0.2,0.1-0.5,0.1-0.7,0.1
		c-0.4,0-0.6-0.1-0.8-0.2c-0.2-0.1-0.4-0.4-0.5-0.6c-0.2,0.2-0.6,0.5-0.9,0.6C264.5,101.4,264,101.4,263.6,101.4z M263.9,100
		c0.4,0,0.7-0.1,1.1-0.2c0.4-0.2,0.6-0.5,0.7-0.7v-1.8c-0.2,0-0.6,0-0.9,0.1c-0.4,0-0.7,0.1-0.9,0.2c-0.4,0.1-0.6,0.2-0.8,0.5
		c-0.2,0.2-0.4,0.5-0.4,0.8s0.1,0.6,0.4,0.8C263.2,99.8,263.4,100,263.9,100z M269.3,101.4l-0.1-0.9l1.2-0.2V89.1h-0.9l-0.2-1.1
		l2.4-0.4l0.6,0.6V100l1.2,0.2v0.9h-4v0.3H269.3z M274.3,101.4l-0.1-0.9l1.2-0.2V89.1h-0.9l-0.2-1.1l2.4-0.4l0.6,0.6V100l1.2,0.2
		v0.9h-4v0.3H274.3z M282.1,101.4c-0.8,0-1.4-0.2-2-0.7c-0.5-0.5-0.8-1.1-0.8-1.8c0-0.6,0.1-1.1,0.5-1.4c0.4-0.4,0.7-0.7,1.2-0.9
		c0.5-0.2,1.1-0.4,1.5-0.5c0.6-0.1,1.1-0.1,1.5-0.1v-1.3c0-0.2-0.1-0.5-0.4-0.7c-0.2-0.2-0.6-0.2-1.1-0.2c-0.1,0-0.4,0-0.5,0
		s-0.4,0-0.5,0.1l-0.4,1.2l-1.9-0.6c0.2-0.7,0.7-1.2,1.3-1.5s1.3-0.6,2-0.6c0.9,0,1.7,0.2,2.2,0.7c0.6,0.5,0.8,1.2,0.8,2.1v4.6
		c0,0.4,0.1,0.5,0.4,0.5c0.1,0,0.1,0,0.2,0s0.1,0,0.1,0l0.2,0.8c-0.1,0.1-0.2,0.2-0.5,0.4c-0.2,0.1-0.5,0.1-0.7,0.1
		c-0.4,0-0.6-0.1-0.8-0.2c-0.2-0.1-0.4-0.4-0.5-0.6c-0.2,0.2-0.6,0.5-0.9,0.6C282.9,101.4,282.6,101.4,282.1,101.4z M282.3,100
		c0.4,0,0.7-0.1,1.1-0.2c0.4-0.2,0.6-0.5,0.7-0.7v-1.8c-0.2,0-0.6,0-0.9,0.1c-0.4,0-0.7,0.1-0.9,0.2c-0.4,0.1-0.6,0.2-0.8,0.5
		c-0.2,0.2-0.4,0.5-0.4,0.8s0.1,0.6,0.4,0.8C281.6,99.8,282,100,282.3,100z M291.9,101.4c-0.7,0-1.4-0.2-2-0.6s-1.1-0.9-1.4-1.5
		c-0.4-0.7-0.5-1.4-0.5-2.4c0-1.1,0.1-1.9,0.5-2.6s0.8-1.3,1.4-1.7s1.3-0.6,2.1-0.6c0.6,0,0.9,0.1,1.4,0.2c0.4,0.1,0.7,0.4,0.9,0.5
		c0.2,0.2,0.4,0.4,0.5,0.5l-1.5,1.3l-0.9-0.9h-0.5c-0.5,0-0.9,0.1-1.3,0.5s-0.6,0.7-0.7,1.2s-0.2,1.1-0.2,1.7c0,0.5,0.1,1.1,0.2,1.5
		c0.1,0.5,0.5,0.8,0.8,1.2c0.4,0.2,0.8,0.5,1.5,0.5c0.5,0,0.8-0.1,1.2-0.2c0.4-0.1,0.6-0.4,0.8-0.5l0.5,1.3
		c-0.4,0.2-0.7,0.5-1.2,0.6C293,101.4,292.4,101.4,291.9,101.4z M297.5,106.6c-0.2,0-0.6-0.1-0.9-0.2c-0.4-0.1-0.7-0.4-0.9-0.6
		l0.8-1.3c0.1,0.1,0.2,0.2,0.5,0.4c0.2,0.1,0.5,0.2,0.6,0.2c0.2,0,0.5-0.1,0.7-0.5c0.1-0.2,0.4-0.6,0.5-1.1l0.5-1.3l-3.1-8.9h-0.7
		l-0.1-1.2l2.2-0.1l2.5,7.6l2.2-6.3h-0.8l-0.1-1.2l2.2-0.1l0.4,0.7c-0.1,0.5-0.4,1.1-0.6,1.8c-0.2,0.7-0.6,1.5-0.8,2.4
		c-0.4,0.8-0.6,1.8-0.9,2.7c-0.4,0.9-0.6,1.8-0.9,2.6c-0.2,0.8-0.6,1.4-0.7,2C299.2,105.8,298.4,106.6,297.5,106.6z M309.6,101.4
		l-0.2-0.9l1.2-0.4v-6.5h-1.3l-0.2-1.2l0.1-0.2h1.4v-1.5c0-1.1,0.2-1.8,0.7-2.2s1.2-0.7,1.9-0.7c0.4,0,0.8,0.1,1.3,0.2
		s0.8,0.5,1.3,0.8l-1.5,1.3l-0.9-0.9H313c-0.4,0-0.5,0.1-0.6,0.4c-0.1,0.2-0.1,0.5-0.1,0.7v2.1h2.1c0.1,0,0.1,0,0.1,0.1v1.3h-2.2
		v6.4l1.9,0.2v1.1h-4.6V101.4z M315.7,101.4l-0.2-0.9l1.1-0.2v-6.4h-0.9l-0.2-1.1l2.4-0.5l0.6,0.6v7.2l1.1,0.2v1.1
		C319.6,101.4,315.7,101.4,315.7,101.4z M317.3,89.9c-0.4,0-0.6-0.1-0.8-0.4c-0.2-0.2-0.4-0.5-0.4-0.8c0-0.4,0.1-0.6,0.4-0.8
		c0.2-0.2,0.5-0.4,0.8-0.4c0.4,0,0.6,0.1,0.8,0.4s0.4,0.5,0.4,0.8s-0.1,0.6-0.4,0.8C317.9,89.8,317.6,89.9,317.3,89.9z M320.8,101.4
		l-0.1-0.9l1.1-0.2v-6.5h-0.9l-0.2-1.1l2.4-0.5l0.5,0.7c0.2-0.2,0.6-0.4,1.1-0.5c0.4-0.1,0.8-0.2,1.2-0.2c0.8,0,1.5,0.2,2,0.7
		s0.8,1.1,0.8,2v5.2l1.1,0.2v1.1H326v-1.1l1.1-0.2v-5c0-0.9-0.5-1.5-1.4-1.5c-0.4,0-0.7,0.1-1.1,0.2s-0.6,0.4-0.8,0.5v5.8l1.1,0.2
		v0.9h-3.8v0.2H320.8z M334.3,101.4c-0.8,0-1.4-0.2-2-0.6s-0.9-0.9-1.3-1.7c-0.2-0.7-0.5-1.4-0.5-2.2c0-1.1,0.1-1.9,0.5-2.6
		s0.8-1.2,1.4-1.5c0.6-0.4,1.3-0.5,2-0.5c0.4,0,0.6,0,0.8,0.1c0.2,0.1,0.5,0.1,0.7,0.2V89h-1.1l-0.2-1.1l2.4-0.4l0.6,0.6v11.5
		c0,0.4,0.1,0.5,0.4,0.5c0.1,0,0.1,0,0.2,0s0.1,0,0.1,0l0.2,0.8c-0.1,0.1-0.4,0.2-0.6,0.4c-0.2,0.1-0.5,0.2-0.8,0.2
		c-0.4,0-0.6-0.1-0.8-0.2c-0.2-0.1-0.4-0.4-0.5-0.6c-0.2,0.2-0.6,0.5-0.9,0.6C335.2,101.4,334.8,101.4,334.3,101.4z M334.7,100
		c0.4,0,0.6-0.1,0.9-0.2c0.4-0.1,0.6-0.4,0.7-0.7v-4.9c-0.1-0.1-0.4-0.2-0.7-0.4c-0.2-0.1-0.5-0.1-0.8-0.1c-0.7,0-1.3,0.2-1.8,0.8
		c-0.4,0.6-0.6,1.4-0.6,2.5c0,0.6,0.1,1.1,0.2,1.5c0.1,0.5,0.4,0.8,0.7,1.2C333.7,99.8,334.1,100,334.7,100z M344.4,101.4
		c-0.8,0-1.5-0.2-2.1-0.6s-1.2-0.9-1.5-1.5c-0.4-0.7-0.5-1.5-0.5-2.4s0.2-1.8,0.6-2.5s0.8-1.3,1.4-1.7c0.6-0.4,1.3-0.6,2-0.6
		c0.5,0,0.9,0.1,1.4,0.2c0.5,0.2,0.8,0.5,1.2,0.8c0.2,0.4,0.5,0.8,0.5,1.4s-0.1,1.1-0.5,1.5c-0.2,0.4-0.6,0.7-1.1,0.9
		c-0.5,0.2-0.9,0.4-1.5,0.5s-1.2,0.1-1.8,0.1h-0.6c0.1,0.6,0.4,1.2,0.7,1.7c0.5,0.5,1.1,0.6,1.9,0.6c0.5,0,0.9-0.1,1.3-0.2
		s0.7-0.4,0.9-0.6l0.4,1.3c-0.2,0.2-0.6,0.5-1.2,0.6C345.6,101.4,345,101.4,344.4,101.4z M341.9,96.4h0.5c0.4,0,0.6,0,0.9,0
		c0.4,0,0.7-0.1,0.9-0.2c0.4-0.1,0.6-0.2,0.8-0.5c0.2-0.2,0.4-0.5,0.4-0.9s-0.1-0.7-0.4-0.8c-0.2-0.2-0.6-0.2-0.8-0.2
		c-0.5,0-0.8,0.1-1.2,0.4c-0.4,0.2-0.6,0.6-0.8,1.1C342.1,95.5,342,95.9,341.9,96.4z M348.8,101.4l-0.2-1.1l1.2-0.2v-6.4h-0.9
		l-0.1-1.1l2.2-0.4l0.6,0.8c0.2-0.2,0.6-0.5,0.9-0.6c0.4-0.1,0.7-0.2,0.9-0.2c0.6,0,1.1,0.1,1.4,0.5c0.4,0.2,0.7,0.6,0.9,1.1
		l-1.9,0.9l-0.6-0.9c-0.2,0-0.5,0.1-0.7,0.2s-0.5,0.4-0.7,0.6s-0.4,0.7-0.4,1.2v4.1l2.5,0.5v1.1h-5.2v-0.1H348.8z M355.9,103.5v-0.2
		l0.9-1.8l-0.5-2.2l2-0.2c0,0.1,0,0.2,0.1,0.6c0,0.2,0.1,0.6,0.1,0.9c0,0.5-0.1,0.9-0.2,1.4s-0.4,0.9-0.6,1.3s-0.5,0.7-0.7,0.9
		L355.9,103.5z M137,127.4c-0.8,0-1.4-0.2-2-0.7c-0.5-0.5-0.8-1.1-0.8-1.8c0-0.6,0.1-1.1,0.5-1.4c0.4-0.4,0.7-0.7,1.2-0.9
		c0.5-0.2,1.1-0.4,1.5-0.5c0.6-0.1,1.1-0.1,1.5-0.1v-1.3c0-0.2-0.1-0.5-0.4-0.7c-0.2-0.2-0.6-0.2-1.1-0.2c-0.1,0-0.4,0-0.5,0
		s-0.4,0-0.5,0.1l-0.4,1.2l-1.9-0.6c0.2-0.7,0.7-1.2,1.3-1.5s1.3-0.6,2-0.6c0.9,0,1.7,0.2,2.2,0.7c0.6,0.5,0.8,1.2,0.8,2.1v4.6
		c0,0.4,0.1,0.5,0.4,0.5c0.1,0,0.1,0,0.2,0c0.1,0,0.1,0,0.1,0l0.2,0.8c-0.1,0.1-0.2,0.2-0.5,0.4c-0.2,0.1-0.5,0.1-0.7,0.1
		c-0.4,0-0.6-0.1-0.8-0.2s-0.4-0.4-0.5-0.6c-0.2,0.2-0.6,0.5-0.9,0.6C137.9,127.4,137.5,127.4,137,127.4z M137.4,126
		c0.4,0,0.7-0.1,1.1-0.2c0.4-0.2,0.6-0.5,0.7-0.7v-1.8c-0.2,0-0.6,0-0.9,0.1c-0.4,0-0.7,0.1-0.9,0.2c-0.4,0.1-0.6,0.2-0.8,0.5
		c-0.2,0.2-0.4,0.5-0.4,0.8c0,0.4,0.1,0.6,0.4,0.8C136.6,125.9,136.9,126,137.4,126z M143.1,127.4l-0.1-0.9l1.1-0.2v-6.5h-0.9
		l-0.2-1.1l2.4-0.5l0.5,0.7c0.2-0.2,0.6-0.4,1.1-0.5c0.4-0.1,0.8-0.2,1.2-0.2c0.8,0,1.5,0.2,2,0.7s0.8,1.1,0.8,2v5.2l1.1,0.2v1.1
		h-3.8v-1.1l1.1-0.2v-5c0-0.9-0.5-1.5-1.4-1.5c-0.4,0-0.7,0.1-1.1,0.2c-0.4,0.1-0.6,0.4-0.8,0.5v5.8l1.1,0.2v0.9h-3.8v0.2H143.1z
		 M156.6,127.4c-0.8,0-1.4-0.2-2-0.6s-0.9-0.9-1.3-1.7c-0.2-0.7-0.5-1.4-0.5-2.2c0-1.1,0.1-1.9,0.5-2.6s0.8-1.2,1.4-1.5
		c0.6-0.4,1.3-0.5,2-0.5c0.4,0,0.6,0,0.8,0.1s0.5,0.1,0.7,0.2V115h-1.1l-0.2-1.1l2.4-0.4l0.6,0.6v11.5c0,0.4,0.1,0.5,0.4,0.5
		c0.1,0,0.1,0,0.2,0c0.1,0,0.1,0,0.1,0l0.2,0.8c-0.1,0.1-0.4,0.2-0.6,0.4c-0.2,0.1-0.5,0.2-0.8,0.2s-0.6-0.1-0.8-0.2
		s-0.4-0.4-0.5-0.6c-0.2,0.2-0.6,0.5-0.9,0.6C157.4,127.4,157.1,127.4,156.6,127.4z M156.8,126c0.4,0,0.6-0.1,0.9-0.2
		c0.4-0.1,0.6-0.4,0.7-0.7v-4.9c-0.1-0.1-0.4-0.2-0.7-0.4c-0.2-0.1-0.5-0.1-0.8-0.1c-0.7,0-1.3,0.2-1.8,0.8
		c-0.4,0.6-0.6,1.4-0.6,2.5c0,0.6,0.1,1.1,0.2,1.5c0.1,0.5,0.4,0.8,0.7,1.2C156,125.9,156.3,126,156.8,126z M167.4,127.4l-0.1-1.4
		l1.2-0.2v-10.1l-1.2-0.1v-1.3h4.1l0.2,1.4l-1.2,0.2v9.9l1.2,0.1v1.4C171.6,127.4,167.4,127.4,167.4,127.4z M174.2,119.3l-1.2-0.6
		v-0.2l0.8-1.9l-0.5-2.2l2-0.4c0,0.1,0.1,0.4,0.1,0.6c0.1,0.4,0.1,0.7,0.1,1.1c0,0.7-0.1,1.4-0.4,2
		C174.8,118.2,174.6,118.8,174.2,119.3z M176.8,127.4l-0.1-0.9l1.2-0.2v-11.1h-1.2l-0.2-1.1l2.4-0.4l0.6,0.6v11.8l1.2,0.2v0.9h-3.8
		L176.8,127.4L176.8,127.4z M181.7,127.4l-0.1-0.9l1.2-0.2v-11.1h-0.9l-0.2-1.1l2.4-0.4l0.6,0.6v11.8l1.2,0.2v0.9h-4v0.2H181.7z
		 M192.3,127.4l-0.5-0.2V115h-1.1l-0.1-1.1l2.4-0.4l0.6,0.6v4.6c0.2-0.1,0.5-0.4,0.8-0.4c0.4-0.1,0.7-0.1,1.1-0.1
		c0.8,0,1.5,0.2,2,0.6c0.6,0.4,0.9,0.9,1.3,1.7c0.2,0.7,0.5,1.4,0.5,2.4c0,1.5-0.4,2.7-1.2,3.6c-0.7,0.8-1.8,1.2-3,1.2
		c-0.7,0-1.4-0.1-1.9-0.5L192.3,127.4z M195.2,126c0.8,0,1.3-0.4,1.8-0.9c0.4-0.6,0.6-1.4,0.6-2.4c0-0.6-0.1-1.2-0.2-1.7
		c-0.1-0.5-0.4-0.8-0.7-1.2c-0.4-0.2-0.7-0.5-1.3-0.5c-0.4,0-0.6,0.1-0.9,0.2c-0.4,0.1-0.5,0.2-0.7,0.5v5.3c0.1,0.1,0.4,0.2,0.7,0.4
		C194.6,126,194.8,126,195.2,126z M204.8,127.4c-0.8,0-1.5-0.2-2.1-0.6s-1.2-0.9-1.5-1.5c-0.4-0.7-0.5-1.5-0.5-2.4s0.2-1.8,0.6-2.5
		c0.4-0.7,0.8-1.3,1.4-1.7c0.6-0.4,1.3-0.6,2-0.6c0.5,0,0.9,0.1,1.4,0.2c0.5,0.2,0.8,0.5,1.2,0.8c0.2,0.4,0.5,0.8,0.5,1.4
		s-0.1,1.1-0.5,1.5c-0.2,0.4-0.6,0.7-1.1,0.9c-0.5,0.2-0.9,0.4-1.5,0.5s-1.1,0.1-1.7,0.1h-0.6c0.1,0.6,0.4,1.2,0.7,1.7
		c0.5,0.5,1.1,0.6,1.9,0.6c0.5,0,0.9-0.1,1.3-0.2c0.4-0.1,0.7-0.4,0.9-0.6l0.4,1.3c-0.2,0.2-0.6,0.5-1.2,0.6
		C206,127.4,205.4,127.4,204.8,127.4z M202.4,122.5h0.5c0.4,0,0.6,0,0.9,0c0.4,0,0.7-0.1,0.9-0.2c0.4-0.1,0.6-0.2,0.8-0.5
		c0.2-0.2,0.4-0.5,0.4-0.9s-0.1-0.7-0.4-0.8c-0.2-0.2-0.6-0.2-0.8-0.2c-0.5,0-0.8,0.1-1.2,0.4c-0.4,0.2-0.6,0.6-0.8,1.1
		C202.5,121.5,202.4,122,202.4,122.5z M216.7,127.4c-0.6,0-1.1-0.2-1.4-0.6c-0.4-0.4-0.6-0.9-0.6-1.8v-5.6h-1.4l-0.2-1.2l0.1-0.2
		h1.7v-3.2l1.5-0.4l0.1,0.2v3.3h1.9c0.1,0,0.1,0,0.1,0.1v1.3h-2v5.6c0,0.4,0.1,0.6,0.2,0.7c0.1,0.1,0.4,0.1,0.6,0.1
		c0.2,0,0.5-0.1,0.7-0.2s0.4-0.2,0.5-0.4l0.4,1.2c-0.1,0.1-0.4,0.4-0.7,0.5C217.7,127.4,217.3,127.4,216.7,127.4z M224,127.4
		c-0.8,0-1.5-0.2-2.1-0.6s-1.2-0.9-1.5-1.5c-0.4-0.7-0.5-1.5-0.5-2.4s0.2-1.8,0.6-2.5c0.4-0.7,0.8-1.3,1.4-1.7
		c0.6-0.4,1.3-0.6,2-0.6c0.5,0,0.9,0.1,1.4,0.2c0.5,0.2,0.8,0.5,1.2,0.8c0.2,0.4,0.5,0.8,0.5,1.4s-0.1,1.1-0.5,1.5
		c-0.2,0.4-0.6,0.7-1.1,0.9c-0.5,0.2-0.9,0.4-1.5,0.5s-1.1,0.1-1.7,0.1h-0.6c0.1,0.6,0.4,1.2,0.7,1.7c0.5,0.5,1.1,0.6,1.9,0.6
		c0.5,0,0.9-0.1,1.3-0.2c0.4-0.1,0.7-0.4,0.9-0.6l0.4,1.3c-0.2,0.2-0.6,0.5-1.2,0.6C225.1,127.4,224.6,127.4,224,127.4z
		 M221.6,122.5h0.5c0.4,0,0.6,0,0.9,0s0.7-0.1,0.9-0.2c0.4-0.1,0.6-0.2,0.8-0.5c0.2-0.2,0.4-0.5,0.4-0.9s-0.1-0.7-0.4-0.8
		c-0.2-0.2-0.6-0.2-0.8-0.2c-0.5,0-0.8,0.1-1.2,0.4c-0.4,0.2-0.6,0.6-0.8,1.1C221.7,121.5,221.6,122,221.6,122.5z M231.3,127.4
		c-0.6,0-1.1-0.1-1.5-0.4c-0.5-0.2-0.8-0.5-1.1-0.8c-0.2-0.4-0.5-0.6-0.6-0.9l1.9-0.7l0.5,1.1c0.1,0,0.2,0.1,0.4,0.1s0.4,0,0.6,0
		c0.1,0,0.4,0,0.6-0.1s0.4-0.2,0.5-0.4c0.1-0.1,0.2-0.4,0.2-0.6c0-0.5-0.2-0.7-0.6-0.9c-0.4-0.2-0.8-0.4-1.4-0.6
		c-0.8-0.2-1.3-0.6-1.8-1.1c-0.4-0.5-0.6-0.9-0.6-1.5c0-0.5,0.1-0.9,0.5-1.4c0.2-0.4,0.6-0.7,1.1-0.9c0.5-0.2,0.9-0.4,1.5-0.4
		s1.1,0.1,1.5,0.4c0.5,0.2,0.8,0.5,1.1,0.7c0.2,0.2,0.5,0.6,0.6,0.8l-1.9,0.7l-0.5-0.9c0,0-0.1-0.1-0.2-0.1
		c-0.1-0.1-0.4-0.1-0.6-0.1s-0.6,0.1-0.8,0.2s-0.4,0.4-0.4,0.8s0.2,0.6,0.6,0.8c0.4,0.2,0.9,0.5,1.7,0.7c0.6,0.2,1.1,0.6,1.4,0.9
		c0.4,0.4,0.6,0.9,0.6,1.5s-0.1,1.1-0.5,1.5c-0.4,0.5-0.7,0.7-1.2,0.9C232.4,127.4,231.9,127.4,231.3,127.4z M239.1,127.4
		c-0.6,0-1.1-0.2-1.4-0.6c-0.4-0.4-0.6-0.9-0.6-1.8v-5.6h-1.4l-0.2-1.2l0.1-0.2h1.7v-3.2l1.5-0.4l0.1,0.2v3.3h1.9
		c0.1,0,0.1,0,0.1,0.1v1.3h-2v5.6c0,0.4,0.1,0.6,0.2,0.7c0.1,0.1,0.4,0.1,0.6,0.1c0.2,0,0.5-0.1,0.7-0.2s0.4-0.2,0.5-0.4l0.4,1.2
		c-0.1,0.1-0.4,0.4-0.7,0.5C239.9,127.4,239.6,127.4,239.1,127.4z M242.2,127.4l-0.2-0.9l1.1-0.2v-6.4h-0.9l-0.2-1.1l2.4-0.5
		l0.6,0.6v7.2l1.1,0.2v1.1C246.1,127.4,242.2,127.4,242.2,127.4z M243.7,115.9c-0.4,0-0.6-0.1-0.8-0.4c-0.2-0.2-0.4-0.5-0.4-0.8
		c0-0.4,0.1-0.6,0.4-0.8c0.2-0.2,0.5-0.4,0.8-0.4c0.4,0,0.6,0.1,0.8,0.4c0.2,0.2,0.4,0.5,0.4,0.8c0,0.4-0.1,0.6-0.4,0.8
		C244.3,115.8,244.1,115.9,243.7,115.9z M247.3,127.4l-0.1-0.9l1.1-0.2v-6.5h-0.9l-0.2-1.1l2.4-0.5l0.5,0.7c0.2-0.2,0.6-0.4,1.1-0.5
		c0.4-0.1,0.8-0.2,1.2-0.2c0.8,0,1.5,0.2,2,0.7s0.8,1.1,0.8,2v5.2l1.1,0.2v1.1h-3.8v-1.1l1.1-0.2v-5c0-0.9-0.5-1.5-1.4-1.5
		c-0.4,0-0.7,0.1-1.1,0.2s-0.6,0.4-0.8,0.5v5.8l1.1,0.2v0.9h-3.8v0.2H247.3z M260.4,132.5c-0.7,0-1.3-0.1-1.9-0.4s-0.9-0.6-1.3-0.9
		c-0.4-0.5-0.5-0.9-0.5-1.5s0.1-1.2,0.5-1.5c0.4-0.5,0.7-0.7,1.1-0.9c-0.1-0.1-0.2-0.4-0.4-0.5c-0.1-0.2-0.1-0.4-0.1-0.7
		c0-0.4,0.1-0.6,0.2-0.8c0.1-0.2,0.4-0.5,0.5-0.6c-0.5-0.2-0.8-0.7-1.1-1.1c-0.2-0.5-0.4-1.1-0.4-1.7c0-0.7,0.1-1.3,0.5-1.8
		s0.7-0.9,1.3-1.2c0.6-0.2,1.2-0.5,1.8-0.5c0.9,0,1.7,0.2,2.4,0.8l1.9-0.9h0.4l0.2,1.5l-1.7,0.2c0.1,0.2,0.2,0.5,0.4,0.8
		c0.1,0.2,0.1,0.6,0.1,0.9c0,0.7-0.1,1.3-0.5,1.8s-0.7,0.8-1.3,1.2c-0.6,0.2-1.2,0.4-1.8,0.4c-0.2,0-0.6,0-0.7-0.1l-0.4,0.6v0.4
		l2,0.5c0.9,0.2,1.7,0.5,2.1,0.9c0.6,0.4,0.8,1.1,0.8,1.8s-0.2,1.4-0.6,1.9s-0.8,0.8-1.5,1.2C261.9,132.4,261.3,132.5,260.4,132.5z
		 M260.8,130.7c0.4,0,0.8-0.1,1.2-0.2s0.7-0.2,0.9-0.5c0.2-0.2,0.4-0.5,0.4-0.8c0-0.2-0.1-0.5-0.4-0.7c-0.2-0.1-0.5-0.4-0.8-0.4
		c-0.4-0.1-0.7-0.2-1.2-0.2c-0.4-0.1-0.8-0.1-1.2-0.2c-0.4,0.1-0.7,0.4-0.9,0.7c-0.2,0.2-0.4,0.6-0.4,0.9c0,0.5,0.2,0.8,0.7,1.1
		C259.5,130.6,260.1,130.7,260.8,130.7z M260.8,123.6c0.6,0,1.1-0.2,1.3-0.6c0.4-0.4,0.5-0.8,0.5-1.4s-0.1-1.1-0.5-1.4
		c-0.4-0.4-0.7-0.6-1.3-0.6s-1.1,0.2-1.3,0.6c-0.4,0.4-0.5,0.8-0.5,1.4s0.1,1.1,0.5,1.4C259.7,123.4,260.2,123.6,260.8,123.6z
		 M272.5,132.6c-0.2,0-0.6-0.1-0.9-0.2c-0.4-0.1-0.7-0.4-0.9-0.6l0.8-1.3c0.1,0.1,0.2,0.2,0.5,0.4c0.2,0.1,0.5,0.2,0.6,0.2
		c0.2,0,0.5-0.1,0.7-0.5c0.1-0.2,0.4-0.6,0.5-1.1l0.5-1.3l-3.1-8.9h-0.7l-0.1-1.2l2.2-0.1l2.5,7.6l2.2-6.3h-0.8l-0.1-1.2l2.2-0.1
		l0.4,0.7c-0.1,0.5-0.4,1.1-0.6,1.8c-0.2,0.7-0.6,1.5-0.8,2.4c-0.4,0.8-0.6,1.8-0.9,2.7c-0.4,0.9-0.6,1.8-0.9,2.6
		c-0.2,0.8-0.6,1.4-0.7,2C274.3,131.8,273.5,132.6,272.5,132.6z M283.8,127.4c-0.8,0-1.4-0.2-2.1-0.6c-0.6-0.4-1.1-0.9-1.4-1.7
		c-0.4-0.7-0.5-1.5-0.5-2.4s0.1-1.7,0.5-2.4s0.8-1.2,1.4-1.7c0.6-0.4,1.3-0.6,2-0.6c0.8,0,1.5,0.2,2.1,0.6s1.1,0.9,1.4,1.7
		s0.5,1.5,0.5,2.4c0,0.8-0.1,1.7-0.5,2.4c-0.4,0.7-0.8,1.3-1.4,1.7C285.3,127.3,284.6,127.4,283.8,127.4z M283.8,126
		c0.7,0,1.3-0.2,1.7-0.8c0.4-0.6,0.6-1.3,0.6-2.2s-0.2-1.8-0.6-2.4s-0.9-0.9-1.7-0.9c-0.5,0-0.9,0.1-1.2,0.5
		c-0.4,0.4-0.6,0.7-0.7,1.2s-0.2,1.1-0.2,1.7c0,0.9,0.2,1.7,0.6,2.2C282.6,125.8,283.1,126,283.8,126z M292.9,127.4
		c-0.6,0-1.1-0.1-1.4-0.2c-0.5-0.2-0.8-0.5-1.1-0.9c-0.2-0.5-0.4-0.9-0.4-1.7v-4.9h-0.9l-0.2-1.1l2.4-0.5l0.6,0.6v5.4
		c0,0.5,0.1,0.8,0.2,1.2c0.1,0.2,0.4,0.4,0.6,0.5s0.5,0.1,0.7,0.1c0.4,0,0.7-0.1,0.9-0.2c0.4-0.2,0.6-0.4,0.7-0.6v-5.4h-0.9
		l-0.2-1.1l2.2-0.5l0.6,0.6v6.9c0,0.1,0,0.2,0.1,0.4c0.1,0,0.1,0.1,0.2,0.1s0.1,0,0.1,0c0.1,0,0.1,0,0.1,0l0.2,0.8
		c-0.1,0.1-0.2,0.2-0.5,0.4c-0.2,0.1-0.5,0.2-0.8,0.2c-0.6,0-1.1-0.2-1.2-0.8c-0.2,0.2-0.6,0.5-1.1,0.6
		C293.7,127.4,293.2,127.4,292.9,127.4z M307.4,127.4c-0.8,0-1.4-0.2-2.1-0.6c-0.6-0.4-1.1-0.9-1.4-1.7c-0.4-0.7-0.5-1.5-0.5-2.4
		s0.1-1.7,0.5-2.4s0.8-1.2,1.4-1.7c0.6-0.4,1.3-0.6,2-0.6c0.8,0,1.5,0.2,2.1,0.6s1.1,0.9,1.4,1.7c0.4,0.7,0.5,1.5,0.5,2.4
		c0,0.8-0.1,1.7-0.5,2.4c-0.4,0.7-0.8,1.3-1.4,1.7C308.9,127.3,308.2,127.4,307.4,127.4z M307.4,126c0.7,0,1.3-0.2,1.7-0.8
		c0.4-0.6,0.6-1.3,0.6-2.2s-0.2-1.8-0.6-2.4s-0.9-0.9-1.7-0.9c-0.5,0-0.9,0.1-1.2,0.5c-0.4,0.4-0.6,0.7-0.7,1.2s-0.2,1.1-0.2,1.7
		c0,0.9,0.2,1.7,0.6,2.2C306.1,125.8,306.7,126,307.4,126z M312.9,127.4l-0.1-0.9l1.1-0.2v-6.5H313l-0.2-1.1l2.4-0.5l0.5,0.7
		c0.2-0.2,0.6-0.4,1.1-0.5c0.4-0.1,0.8-0.2,1.2-0.2c0.8,0,1.5,0.2,2,0.7s0.8,1.1,0.8,2v5.2l1.1,0.2v1.1h-3.8v-1.1l0.9-0.2v-5
		c0-0.9-0.5-1.5-1.4-1.5c-0.4,0-0.7,0.1-1.1,0.2s-0.6,0.4-0.8,0.5v5.8l1.1,0.2v0.9h-3.7v0.2H312.9z M329,132.6
		c-0.2,0-0.6-0.1-0.9-0.2c-0.4-0.1-0.7-0.4-0.9-0.6l0.8-1.3c0.1,0.1,0.2,0.2,0.5,0.4c0.2,0.1,0.5,0.2,0.6,0.2c0.2,0,0.5-0.1,0.7-0.5
		c0.1-0.2,0.4-0.6,0.5-1.1l0.5-1.3l-3.1-8.9H327l-0.1-1.2l2.2-0.1l2.5,7.6l2.2-6.3H333l-0.1-1.2l2.2-0.1l0.4,0.7
		c-0.1,0.5-0.4,1.1-0.6,1.8c-0.2,0.7-0.6,1.5-0.8,2.4c-0.4,0.8-0.6,1.8-0.9,2.7c-0.4,0.9-0.6,1.8-0.9,2.6c-0.2,0.8-0.6,1.4-0.7,2
		C330.8,131.8,329.9,132.6,329,132.6z M340.2,127.4c-0.8,0-1.4-0.2-2.1-0.6c-0.6-0.4-1.1-0.9-1.4-1.7c-0.4-0.7-0.5-1.5-0.5-2.4
		s0.1-1.7,0.5-2.4c0.4-0.7,0.8-1.2,1.4-1.7c0.6-0.4,1.3-0.6,2-0.6c0.8,0,1.5,0.2,2.1,0.6s1.1,0.9,1.4,1.7c0.4,0.7,0.5,1.5,0.5,2.4
		c0,0.8-0.1,1.7-0.5,2.4c-0.4,0.7-0.8,1.3-1.4,1.7C341.8,127.3,341.1,127.4,340.2,127.4z M340.2,126c0.7,0,1.3-0.2,1.7-0.8
		c0.4-0.6,0.6-1.3,0.6-2.2s-0.2-1.8-0.6-2.4s-0.9-0.9-1.7-0.9c-0.5,0-0.9,0.1-1.2,0.5c-0.4,0.4-0.6,0.7-0.7,1.2s-0.2,1.1-0.2,1.7
		c0,0.9,0.2,1.7,0.6,2.2C338.9,125.8,339.5,126,340.2,126z M349.2,127.4c-0.6,0-1.1-0.1-1.4-0.2c-0.5-0.2-0.8-0.5-1.1-0.9
		c-0.2-0.5-0.4-0.9-0.4-1.7v-4.9h-0.9l-0.2-1.1l2.4-0.5l0.6,0.6v5.4c0,0.5,0.1,0.8,0.2,1.2c0.1,0.2,0.4,0.4,0.6,0.5s0.5,0.1,0.7,0.1
		c0.4,0,0.7-0.1,0.9-0.2c0.4-0.2,0.6-0.4,0.7-0.6v-5.4h-0.9l-0.2-1.1l2.2-0.5l0.6,0.6v6.9c0,0.1,0,0.2,0.1,0.4
		c0.1,0,0.1,0.1,0.2,0.1s0.1,0,0.1,0c0.1,0,0.1,0,0.1,0l0.2,0.8c-0.1,0.1-0.2,0.2-0.5,0.4c-0.2,0.1-0.5,0.2-0.8,0.2
		c-0.6,0-1.1-0.2-1.2-0.8c-0.2,0.2-0.6,0.5-1.1,0.6C350.1,127.4,349.7,127.4,349.2,127.4z M355.5,127.4l-0.2-1.1l1.2-0.2v-6.4h-0.9
		l-0.1-1.1l2.2-0.4l0.6,0.8c0.2-0.2,0.6-0.5,0.9-0.6c0.4-0.1,0.7-0.2,0.9-0.2c0.6,0,1.1,0.1,1.4,0.5c0.4,0.2,0.7,0.6,0.9,1.1
		l-1.9,0.9l-0.6-0.9c-0.2,0-0.5,0.1-0.7,0.2s-0.5,0.4-0.7,0.6s-0.4,0.7-0.4,1.2v4.1l2.5,0.5v1.1h-5.2v-0.1H355.5z M161.4,153.5
		l-0.1-1.1l1.1-0.2v-11.1h-0.9l-0.2-1.1l2.4-0.4l0.6,0.6v8.1l2.8-2.8h-0.9l-0.1-1.2h3l0.5,0.8l-3,2.8l2.1,4.3l0.9,0.2v0.9h-2.4
		l-2.1-4.3l-1.1,0.9v2l0.9,0.2v1.1h-3.4v0.3H161.4z M170.8,153.5l-0.1-0.9l1.1-0.2v-6.5h-0.9l-0.2-1.1l2.4-0.5l0.5,0.7
		c0.2-0.2,0.6-0.4,1.1-0.5c0.4-0.1,0.8-0.2,1.2-0.2c0.8,0,1.5,0.2,2,0.7s0.8,1.1,0.8,2v5.3l1.1,0.2v1.1H176v-1.1l1.1-0.2v-5
		c0-0.9-0.5-1.5-1.4-1.5c-0.4,0-0.7,0.1-1.1,0.2c-0.4,0.1-0.6,0.4-0.8,0.5v5.7l1.1,0.2v0.9h-3.8v0.2H170.8z M184.5,153.5
		c-0.8,0-1.4-0.2-2.1-0.6c-0.6-0.4-1.1-0.9-1.4-1.7c-0.4-0.7-0.5-1.5-0.5-2.4s0.1-1.7,0.5-2.4s0.8-1.2,1.4-1.7
		c0.6-0.4,1.3-0.6,2-0.6c0.8,0,1.5,0.2,2.1,0.6c0.6,0.4,1.1,0.9,1.4,1.7c0.4,0.7,0.5,1.5,0.5,2.4c0,0.8-0.1,1.7-0.5,2.4
		s-0.8,1.3-1.4,1.7C186.1,153.4,185.4,153.5,184.5,153.5z M184.5,152.1c0.7,0,1.3-0.2,1.7-0.8s0.6-1.3,0.6-2.2s-0.2-1.8-0.6-2.4
		s-0.9-0.9-1.7-0.9c-0.5,0-0.9,0.1-1.2,0.5c-0.4,0.4-0.6,0.7-0.7,1.2c-0.1,0.5-0.2,1.1-0.2,1.7c0,0.9,0.2,1.7,0.6,2.2
		C183.3,151.8,183.8,152.1,184.5,152.1z M191.9,153.5l-1.5-7.9h-0.7l-0.1-1.2l2.5-0.1l1.4,7.3l1.9-6.7h1.8l1.9,6.7l1.4-6h-0.7
		l-0.1-1.2l2.2-0.1l0.4,0.6l-2.1,8.6H198l-1.7-6.2l-1.7,6.2C194.5,153.5,191.9,153.5,191.9,153.5z M203,153.5l-0.1-0.9l1.2-0.2
		v-11.1h-0.9l-0.2-1.1l2.4-0.4l0.6,0.6v11.8l1.2,0.2v0.9h-4v0.2H203z M212.1,153.5c-0.8,0-1.5-0.2-2.1-0.6c-0.6-0.4-1.2-0.9-1.5-1.5
		c-0.4-0.7-0.5-1.5-0.5-2.4s0.2-1.8,0.6-2.5c0.4-0.7,0.8-1.3,1.4-1.7c0.6-0.4,1.3-0.6,2-0.6c0.5,0,0.9,0.1,1.4,0.2
		c0.5,0.2,0.8,0.5,1.2,0.8c0.4,0.4,0.5,0.8,0.5,1.4s-0.1,1.1-0.5,1.5c-0.2,0.4-0.6,0.7-1.1,0.9s-0.9,0.4-1.5,0.5s-1.1,0.1-1.7,0.1
		h-0.6c0.1,0.6,0.4,1.2,0.7,1.7c0.5,0.5,1.1,0.6,1.9,0.6c0.5,0,0.9-0.1,1.3-0.2c0.4-0.1,0.7-0.4,0.9-0.6l0.4,1.3
		c-0.2,0.2-0.6,0.5-1.2,0.6C213.3,153.5,212.7,153.5,212.1,153.5z M209.7,148.5h0.5c0.4,0,0.6,0,0.9,0c0.4,0,0.7-0.1,0.9-0.2
		c0.4-0.1,0.6-0.2,0.8-0.5c0.2-0.2,0.4-0.5,0.4-0.9s-0.1-0.7-0.4-0.8c-0.2-0.2-0.6-0.2-0.8-0.2c-0.5,0-0.8,0.1-1.2,0.4
		c-0.4,0.2-0.6,0.6-0.8,1.1C209.9,147.6,209.7,148,209.7,148.5z M220.2,153.5c-0.8,0-1.4-0.2-2-0.6c-0.6-0.4-0.9-0.9-1.3-1.7
		c-0.2-0.7-0.5-1.4-0.5-2.2c0-1.1,0.1-1.9,0.5-2.6c0.4-0.7,0.8-1.2,1.4-1.5c0.6-0.4,1.3-0.5,2-0.5c0.4,0,0.6,0,0.8,0.1
		s0.5,0.1,0.7,0.2v-3.6h-1.1l-0.2-1.1l2.4-0.4l0.6,0.6v11.5c0,0.4,0.1,0.5,0.4,0.5c0.1,0,0.1,0,0.2,0c0.1,0,0.1,0,0.1,0l0.2,0.8
		c-0.1,0.1-0.4,0.2-0.6,0.4c-0.2,0.1-0.5,0.2-0.8,0.2c-0.4,0-0.6-0.1-0.8-0.2c-0.2-0.1-0.4-0.4-0.5-0.6c-0.2,0.2-0.6,0.5-0.9,0.6
		C220.9,153.5,220.5,153.5,220.2,153.5z M220.4,152.1c0.4,0,0.6-0.1,0.9-0.2c0.4-0.1,0.6-0.4,0.7-0.7v-4.9c-0.1-0.1-0.4-0.2-0.7-0.4
		c-0.2-0.1-0.5-0.1-0.8-0.1c-0.7,0-1.3,0.2-1.8,0.8c-0.4,0.6-0.6,1.4-0.6,2.5c0,0.6,0.1,1.1,0.2,1.5c0.1,0.5,0.4,0.8,0.7,1.2
		C219.5,151.9,219.9,152.1,220.4,152.1z M229.3,158.6c-0.7,0-1.3-0.1-1.9-0.4c-0.6-0.2-0.9-0.6-1.3-0.9c-0.4-0.5-0.5-0.9-0.5-1.5
		s0.1-1.2,0.5-1.5c0.4-0.5,0.7-0.7,1.1-0.9c-0.1-0.1-0.4-0.4-0.4-0.5c-0.1-0.2-0.1-0.4-0.1-0.7c0-0.4,0.1-0.6,0.2-0.8
		c0.1-0.2,0.4-0.5,0.5-0.6c-0.5-0.2-0.8-0.7-1.1-1.1c-0.2-0.5-0.4-1.1-0.4-1.7c0-0.7,0.1-1.3,0.5-1.8s0.7-0.9,1.3-1.2
		c0.6-0.2,1.2-0.5,1.8-0.5c0.9,0,1.7,0.2,2.4,0.8l1.9-0.9h0.4l0.2,1.5l-1.7,0.2c0.1,0.2,0.2,0.5,0.4,0.8c0.1,0.2,0.1,0.6,0.1,0.9
		c0,0.7-0.1,1.3-0.5,1.8s-0.7,0.8-1.3,1.2c-0.6,0.2-1.2,0.4-1.8,0.4c-0.2,0-0.6,0-0.7-0.1l-0.4,0.6v0.4l2,0.5
		c0.9,0.2,1.7,0.5,2.1,0.9c0.6,0.4,0.8,1.1,0.8,1.8s-0.2,1.4-0.6,1.9c-0.4,0.5-0.8,0.8-1.5,1.2C230.7,158.5,230.1,158.6,229.3,158.6
		z M229.6,156.8c0.4,0,0.8-0.1,1.2-0.2c0.4-0.1,0.7-0.2,0.9-0.5c0.2-0.2,0.4-0.5,0.4-0.8c0-0.2-0.1-0.5-0.4-0.7
		c-0.2-0.1-0.5-0.4-0.8-0.4c-0.4-0.1-0.7-0.2-1.2-0.2c-0.4-0.1-0.8-0.1-1.2-0.2c-0.4,0.1-0.7,0.4-0.9,0.7c-0.2,0.2-0.4,0.6-0.4,0.9
		c0,0.5,0.2,0.8,0.7,1.1C228.3,156.7,228.9,156.8,229.6,156.8z M229.5,149.7c0.6,0,1.1-0.2,1.3-0.6c0.4-0.4,0.5-0.8,0.5-1.4
		s-0.1-1.1-0.5-1.4c-0.4-0.4-0.7-0.6-1.3-0.6s-1.1,0.2-1.3,0.6c-0.4,0.4-0.5,0.8-0.5,1.4s0.1,1.1,0.5,1.4S228.9,149.7,229.5,149.7z
		 M239.4,153.5c-0.8,0-1.5-0.2-2.1-0.6c-0.6-0.4-1.2-0.9-1.5-1.5c-0.4-0.7-0.5-1.5-0.5-2.4s0.2-1.8,0.6-2.5c0.4-0.7,0.8-1.3,1.4-1.7
		c0.6-0.4,1.3-0.6,2-0.6c0.5,0,0.9,0.1,1.4,0.2c0.5,0.2,0.8,0.5,1.2,0.8c0.2,0.4,0.5,0.8,0.5,1.4s-0.1,1.1-0.5,1.5
		c-0.2,0.4-0.6,0.7-1.1,0.9s-0.9,0.4-1.5,0.5s-1.1,0.1-1.7,0.1H237c0.1,0.6,0.4,1.2,0.7,1.7c0.5,0.5,1.1,0.6,1.9,0.6
		c0.5,0,0.9-0.1,1.3-0.2c0.4-0.1,0.7-0.4,0.9-0.6l0.4,1.3c-0.2,0.2-0.6,0.5-1.2,0.6C240.5,153.5,240.1,153.5,239.4,153.5z
		 M237,148.5h0.5c0.4,0,0.6,0,0.9,0c0.4,0,0.7-0.1,0.9-0.2c0.4-0.1,0.6-0.2,0.8-0.5s0.4-0.5,0.4-0.9s-0.1-0.7-0.4-0.8
		c-0.2-0.2-0.6-0.2-0.8-0.2c-0.5,0-0.8,0.1-1.2,0.4c-0.4,0.2-0.6,0.6-0.8,1.1C237.1,147.6,237,148,237,148.5z M252.3,153.5
		c-0.8,0-1.4-0.2-2.1-0.6c-0.6-0.4-1.1-0.9-1.4-1.7c-0.4-0.7-0.5-1.5-0.5-2.4s0.1-1.7,0.5-2.4s0.8-1.2,1.4-1.7
		c0.6-0.4,1.3-0.6,2-0.6c0.8,0,1.5,0.2,2.1,0.6c0.6,0.4,1.1,0.9,1.4,1.7c0.4,0.7,0.5,1.5,0.5,2.4c0,0.8-0.1,1.7-0.5,2.4
		s-0.8,1.3-1.4,1.7C253.7,153.4,253,153.5,252.3,153.5z M252.3,152.1c0.7,0,1.3-0.2,1.7-0.8s0.6-1.3,0.6-2.2s-0.2-1.8-0.6-2.4
		c-0.4-0.6-0.9-0.9-1.7-0.9c-0.5,0-0.9,0.1-1.2,0.5c-0.4,0.4-0.6,0.7-0.7,1.2c-0.1,0.5-0.2,1.1-0.2,1.7c0,0.9,0.2,1.7,0.6,2.2
		C251,151.8,251.6,152.1,252.3,152.1z M257.8,153.5l-0.2-0.9l1.1-0.2v-6.5h-1.3l-0.2-1.2l0.1-0.2h1.4v-1.7c0-1.1,0.2-1.8,0.7-2.2
		s1.2-0.7,1.9-0.7c0.4,0,0.8,0.1,1.3,0.2c0.5,0.1,0.8,0.5,1.3,0.8l-1.5,1.3l-0.9-0.9h-0.2c-0.4,0-0.5,0.1-0.6,0.4
		c-0.1,0.2-0.1,0.5-0.1,0.7v2.1h2.1c0.1,0,0.1,0,0.1,0.1v1.3h-2.2v6.5l1.9,0.2v1.1H258v-0.2H257.8z M268.7,153.5l-0.2-0.9l1.1-0.2
		v-6.5h-1.3l-0.2-1.2l0.1-0.2h1.4v-1.7c0-1.1,0.2-1.8,0.7-2.2c0.5-0.5,1.2-0.7,1.9-0.7c0.4,0,0.8,0.1,1.3,0.2s0.8,0.5,1.3,0.8
		l-1.5,1.3l-0.9-0.9H272c-0.4,0-0.5,0.1-0.6,0.4c-0.1,0.2-0.1,0.5-0.1,0.7v2.1h2.1c0.1,0,0.1,0,0.1,0.1v1.3h-2.2v6.5l1.9,0.2v1.1
		h-4.5L268.7,153.5L268.7,153.5z M277.5,153.5c-0.8,0-1.4-0.2-2-0.7c-0.5-0.5-0.8-1.1-0.8-1.8c0-0.6,0.1-1.1,0.5-1.4
		c0.4-0.4,0.7-0.7,1.2-0.9s1.1-0.4,1.5-0.5c0.6-0.1,1.1-0.1,1.5-0.1v-1.3c0-0.2-0.1-0.5-0.4-0.7c-0.2-0.2-0.6-0.2-1.1-0.2
		c-0.1,0-0.4,0-0.5,0s-0.4,0-0.5,0.1l-0.4,1.2l-1.9-0.6c0.2-0.7,0.7-1.2,1.3-1.5c0.6-0.4,1.3-0.6,2-0.6c0.9,0,1.7,0.2,2.2,0.7
		c0.6,0.5,0.8,1.2,0.8,2.1v4.6c0,0.4,0.1,0.5,0.4,0.5c0.1,0,0.1,0,0.2,0s0.1,0,0.1,0l0.2,0.8c-0.1,0.1-0.2,0.2-0.5,0.4
		c-0.2,0.1-0.5,0.1-0.7,0.1c-0.4,0-0.6-0.1-0.8-0.2c-0.2-0.1-0.4-0.4-0.5-0.6c-0.2,0.2-0.6,0.5-0.9,0.6
		C278.3,153.5,278,153.5,277.5,153.5z M277.7,152.1c0.4,0,0.7-0.1,1.1-0.2c0.4-0.2,0.6-0.5,0.7-0.7v-1.8c-0.2,0-0.6,0-0.9,0.1
		c-0.4,0-0.7,0.1-0.9,0.2c-0.4,0.1-0.6,0.2-0.8,0.5c-0.2,0.2-0.4,0.5-0.4,0.8c0,0.4,0.1,0.6,0.4,0.8
		C277,151.9,277.4,152.1,277.7,152.1z M283.3,153.5l-0.1-0.9l1.2-0.2v-11.1h-1.1l-0.2-1.1l2.4-0.4l0.6,0.6v11.8l1.2,0.2v0.9h-3.9
		v0.2H283.3z M288.1,153.5l-0.1-0.9l1.2-0.2v-11.1h-0.9l-0.2-1.1l2.4-0.4l0.6,0.6v11.8l1.2,0.2v0.9h-4v0.2H288.1z M296,153.5
		c-0.8,0-1.4-0.2-2-0.7c-0.5-0.5-0.8-1.1-0.8-1.8c0-0.6,0.1-1.1,0.5-1.4c0.4-0.4,0.7-0.7,1.2-0.9s1.1-0.4,1.5-0.5
		c0.6-0.1,1.1-0.1,1.5-0.1v-1.3c0-0.2-0.1-0.5-0.4-0.7c-0.2-0.2-0.6-0.2-1.1-0.2c-0.1,0-0.4,0-0.5,0c-0.2,0-0.4,0-0.5,0.1l-0.4,1.2
		l-1.9-0.6c0.2-0.7,0.7-1.2,1.3-1.5c0.6-0.4,1.3-0.6,2-0.6c0.9,0,1.7,0.2,2.2,0.7c0.6,0.5,0.8,1.2,0.8,2.1v4.6
		c0,0.4,0.1,0.5,0.4,0.5c0.1,0,0.1,0,0.2,0s0.1,0,0.1,0l0.2,0.8c-0.1,0.1-0.2,0.2-0.5,0.4s-0.5,0.1-0.7,0.1c-0.4,0-0.6-0.1-0.8-0.2
		c-0.2-0.1-0.4-0.4-0.5-0.6c-0.2,0.2-0.6,0.5-0.9,0.6S296.4,153.5,296,153.5z M296.3,152.1c0.4,0,0.7-0.1,1.1-0.2
		c0.4-0.2,0.6-0.5,0.7-0.7v-1.8c-0.2,0-0.6,0-0.9,0.1c-0.4,0-0.7,0.1-0.9,0.2c-0.4,0.1-0.6,0.2-0.8,0.5c-0.2,0.2-0.4,0.5-0.4,0.8
		c0,0.4,0.1,0.6,0.4,0.8C295.5,151.9,295.8,152.1,296.3,152.1z M305.8,153.5c-0.8,0-1.4-0.2-2-0.6c-0.6-0.4-1.1-0.9-1.4-1.5
		c-0.4-0.7-0.5-1.4-0.5-2.4c0-1.1,0.1-1.9,0.5-2.6c0.4-0.7,0.8-1.3,1.4-1.7s1.3-0.6,2.1-0.6c0.6,0,0.9,0.1,1.4,0.2
		c0.4,0.1,0.7,0.4,0.9,0.5c0.2,0.2,0.4,0.4,0.5,0.5l-1.5,1.3l-0.9-0.9h-0.5c-0.5,0-0.9,0.1-1.3,0.5s-0.6,0.7-0.7,1.2
		s-0.2,1.1-0.2,1.7c0,0.5,0.1,1.1,0.2,1.5c0.1,0.5,0.5,0.8,0.8,1.2c0.4,0.2,0.8,0.5,1.5,0.5c0.5,0,0.8-0.1,1.2-0.2
		c0.4-0.1,0.6-0.4,0.8-0.5l0.5,1.3c-0.4,0.2-0.7,0.5-1.2,0.6C306.9,153.5,306.4,153.5,305.8,153.5z M309.8,153.5l-0.2-0.9l1.1-0.2
		V146h-0.9l-0.2-1.1l2.4-0.5l0.6,0.6v7.3l1.1,0.2v1.1H310v-0.1H309.8z M311.4,142c-0.4,0-0.6-0.1-0.8-0.4c-0.2-0.2-0.4-0.5-0.4-0.8
		c0-0.4,0.1-0.6,0.4-0.8c0.2-0.2,0.5-0.4,0.8-0.4c0.4,0,0.6,0.1,0.8,0.4c0.2,0.2,0.4,0.5,0.4,0.8s-0.1,0.6-0.4,0.8
		C311.9,141.9,311.7,142,311.4,142z M318.9,153.5c-0.8,0-1.5-0.2-2.1-0.6c-0.6-0.4-1.2-0.9-1.5-1.5c-0.4-0.7-0.5-1.5-0.5-2.4
		s0.2-1.8,0.6-2.5s0.8-1.3,1.4-1.7s1.3-0.6,2-0.6c0.5,0,0.9,0.1,1.4,0.2c0.5,0.2,0.8,0.5,1.2,0.8c0.2,0.4,0.5,0.8,0.5,1.4
		s-0.1,1.1-0.5,1.5c-0.2,0.4-0.6,0.7-1.1,0.9s-0.9,0.4-1.5,0.5s-1.1,0.1-1.7,0.1h-0.7c0.1,0.6,0.4,1.2,0.7,1.7
		c0.5,0.5,1.1,0.6,1.9,0.6c0.5,0,0.9-0.1,1.3-0.2c0.4-0.1,0.7-0.4,0.9-0.6l0.4,1.3c-0.2,0.2-0.6,0.5-1.2,0.6
		C320.1,153.5,319.5,153.5,318.9,153.5z M316.4,148.5h0.5c0.4,0,0.6,0,0.9,0c0.4,0,0.7-0.1,0.9-0.2c0.4-0.1,0.6-0.2,0.8-0.5
		c0.2-0.2,0.4-0.5,0.4-0.9s-0.1-0.7-0.4-0.8c-0.2-0.2-0.6-0.2-0.8-0.2c-0.5,0-0.8,0.1-1.2,0.4c-0.4,0.2-0.6,0.6-0.8,1.1
		C316.7,147.6,316.6,148,316.4,148.5z M326.3,153.5c-0.6,0-1.1-0.1-1.5-0.4c-0.5-0.2-0.8-0.5-1.1-0.8c-0.2-0.4-0.5-0.6-0.6-0.9
		l1.9-0.7l0.5,1.1c0.1,0,0.2,0.1,0.4,0.1s0.4,0,0.6,0c0.1,0,0.4,0,0.6-0.1s0.4-0.2,0.5-0.4c0.1-0.1,0.2-0.4,0.2-0.6
		c0-0.5-0.2-0.7-0.6-0.9s-0.8-0.4-1.4-0.6c-0.8-0.2-1.3-0.6-1.8-1.1c-0.4-0.5-0.6-0.9-0.6-1.5c0-0.5,0.1-0.9,0.5-1.4
		c0.2-0.4,0.6-0.7,1.1-0.9s0.9-0.4,1.5-0.4s1.1,0.1,1.5,0.4c0.5,0.2,0.8,0.5,1.1,0.7c0.2,0.2,0.5,0.6,0.6,0.8l-1.9,0.7l-0.5-0.9
		c0,0-0.1-0.1-0.2-0.1c-0.1-0.1-0.4-0.1-0.6-0.1s-0.6,0.1-0.8,0.2c-0.2,0.1-0.4,0.4-0.4,0.8c0,0.4,0.2,0.6,0.6,0.8s0.9,0.5,1.7,0.7
		c0.6,0.2,1.1,0.6,1.4,0.9c0.4,0.4,0.6,0.9,0.6,1.5s-0.1,1.1-0.5,1.5s-0.7,0.7-1.2,0.9C327.2,153.5,326.7,153.5,326.3,153.5z
		 M332,149l-0.5-8.3l2.1-0.2l0.4,0.7l-0.7,7.8H332z M332.7,153.5c-0.4,0-0.6-0.1-0.8-0.4s-0.4-0.5-0.4-0.8c0-0.4,0.1-0.6,0.4-0.8
		c0.2-0.2,0.5-0.4,0.8-0.4c0.4,0,0.6,0.1,0.8,0.4c0.2,0.2,0.4,0.5,0.4,0.8c0,0.4-0.1,0.6-0.4,0.8
		C333.1,153.4,332.9,153.5,332.7,153.5z M162.1,215.1c-1.2,0-2.2-0.2-3.3-0.8c-0.9-0.5-1.7-1.3-2.2-2.2c-0.6-0.9-0.8-2.1-0.8-3.4
		c0-0.9,0.1-1.9,0.5-2.7s0.8-1.5,1.4-2.1s1.3-1.1,2-1.4c0.8-0.4,1.5-0.5,2.5-0.5c0.6,0,1.2,0,1.5,0.1c0.5,0.1,0.8,0.1,1.1,0.2
		l0.4,3.4h-1.3l-0.7-2.1c-0.1,0-0.2,0-0.4,0s-0.4,0-0.6,0c-0.8,0-1.7,0.2-2.4,0.6c-0.7,0.5-1.2,1.1-1.5,1.8
		c-0.4,0.7-0.6,1.5-0.6,2.5c0,0.9,0.2,1.8,0.6,2.6c0.4,0.7,0.8,1.3,1.5,1.8s1.4,0.7,2.4,0.7c0.5,0,0.9-0.1,1.4-0.2
		c0.5-0.1,0.8-0.4,1.2-0.6l0.6,1.4c-0.4,0.4-0.8,0.6-1.4,0.8C163.4,215.1,162.9,215.1,162.1,215.1z M166.6,215.1l-0.1-0.9l1.2-0.2
		v-11.1h-0.9l-0.2-1.1l2.4-0.4l0.6,0.6v11.8l1.2,0.2v0.9h-4v0.2H166.6z M171.9,215.1l-0.2-0.9l1.1-0.2v-6.4h-0.9l-0.2-1.1l2.4-0.5
		l0.6,0.6v7.3l1.1,0.2v1.1h-3.7v-0.1H171.9z M173.3,203.6c-0.4,0-0.6-0.1-0.8-0.4c-0.2-0.2-0.4-0.5-0.4-0.8c0-0.4,0.1-0.6,0.4-0.8
		c0.2-0.2,0.5-0.4,0.8-0.4s0.6,0.1,0.8,0.4c0.2,0.2,0.4,0.5,0.4,0.8c0,0.4-0.1,0.6-0.4,0.8C174,203.5,173.6,203.6,173.3,203.6z
		 M180.6,215.1c-0.8,0-1.4-0.2-2-0.6c-0.6-0.4-1.1-0.9-1.4-1.5c-0.4-0.6-0.5-1.4-0.5-2.4c0-1.1,0.1-1.9,0.5-2.6
		c0.4-0.7,0.8-1.3,1.4-1.7s1.3-0.6,2.1-0.6c0.6,0,0.9,0.1,1.4,0.2c0.4,0.1,0.7,0.4,0.9,0.5c0.2,0.2,0.4,0.4,0.5,0.5l-1.5,1.3
		l-0.9-0.9h-0.5c-0.5,0-0.9,0.1-1.3,0.5c-0.4,0.4-0.6,0.7-0.7,1.2c-0.1,0.5-0.2,1.1-0.2,1.7c0,0.5,0.1,1.1,0.2,1.5
		c0.1,0.5,0.5,0.8,0.8,1.2c0.4,0.2,0.8,0.5,1.5,0.5c0.5,0,0.8-0.1,1.2-0.2c0.4-0.1,0.6-0.4,0.8-0.5l0.5,1.3
		c-0.4,0.2-0.7,0.5-1.2,0.6C181.7,215.1,181.2,215.1,180.6,215.1z M184.5,215.1l-0.1-1.1l1.1-0.2v-11.1h-0.9l-0.2-1.1l2.4-0.4
		l0.6,0.6v8.1l2.8-2.8h-0.9l-0.1-1.2h3l0.5,0.8l-3,2.8l2.1,4.3l0.9,0.2v0.9h-2.4l-2.1-4.3l-1.1,0.9v2l0.9,0.2v1.1h-3.4v0.3H184.5z
		 M199.3,215.1l-0.5-0.2v-12.2h-1.1l-0.1-1.1l2.4-0.4l0.6,0.6v4.6c0.2-0.1,0.5-0.4,0.8-0.4c0.4-0.1,0.7-0.1,1.1-0.1
		c0.8,0,1.5,0.2,2,0.6c0.6,0.4,0.9,0.9,1.3,1.7c0.2,0.7,0.5,1.4,0.5,2.4c0,1.5-0.4,2.7-1.2,3.6c-0.7,0.8-1.8,1.2-3,1.2
		c-0.7,0-1.4-0.1-1.9-0.5L199.3,215.1z M202.1,213.6c0.8,0,1.3-0.4,1.8-0.9c0.4-0.6,0.6-1.4,0.6-2.4c0-0.6-0.1-1.2-0.2-1.7
		c-0.1-0.5-0.4-0.8-0.7-1.2c-0.4-0.2-0.7-0.5-1.3-0.5c-0.4,0-0.6,0.1-0.9,0.2c-0.4,0.1-0.5,0.2-0.7,0.5v5.3c0.1,0.1,0.4,0.2,0.7,0.4
		C201.5,213.6,201.8,213.6,202.1,213.6z M211.8,215.1c-0.8,0-1.5-0.2-2.1-0.6c-0.6-0.4-1.2-0.9-1.5-1.5c-0.4-0.7-0.5-1.5-0.5-2.4
		s0.2-1.8,0.6-2.5s0.8-1.3,1.4-1.7s1.3-0.6,2-0.6c0.5,0,0.9,0.1,1.4,0.2c0.5,0.2,0.8,0.5,1.2,0.8c0.2,0.4,0.5,0.8,0.5,1.4
		s-0.1,1.1-0.5,1.5c-0.2,0.4-0.6,0.7-1.1,0.9s-0.9,0.4-1.5,0.5s-1.1,0.1-1.7,0.1h-0.6c0.1,0.6,0.4,1.2,0.7,1.7
		c0.5,0.5,1.1,0.6,1.9,0.6c0.5,0,0.9-0.1,1.3-0.2c0.4-0.1,0.7-0.4,0.9-0.6l0.4,1.3c-0.2,0.2-0.6,0.5-1.2,0.6
		C212.9,215.1,212.4,215.1,211.8,215.1z M209.3,210.1h0.5c0.4,0,0.6,0,0.9,0s0.7-0.1,0.9-0.2c0.4-0.1,0.6-0.2,0.8-0.5
		c0.2-0.2,0.4-0.5,0.4-0.9s-0.1-0.7-0.4-0.8c-0.2-0.2-0.6-0.2-0.8-0.2c-0.5,0-0.8,0.1-1.2,0.4c-0.4,0.2-0.6,0.6-0.8,1.1
		C209.5,209.1,209.4,209.6,209.3,210.1z M219.5,220.2c-0.7,0-1.3-0.1-1.9-0.4c-0.6-0.2-0.9-0.6-1.3-0.9c-0.4-0.5-0.5-0.9-0.5-1.5
		s0.1-1.2,0.5-1.5c0.4-0.4,0.7-0.7,1.1-0.9c-0.1-0.1-0.4-0.4-0.4-0.5s-0.1-0.4-0.1-0.7s0.1-0.6,0.2-0.8c0.1-0.2,0.4-0.5,0.5-0.6
		c-0.5-0.2-0.8-0.7-1.1-1.1c-0.2-0.5-0.4-1.1-0.4-1.7c0-0.7,0.1-1.3,0.5-1.8s0.7-0.9,1.3-1.2c0.6-0.2,1.2-0.5,1.8-0.5
		c0.9,0,1.7,0.2,2.4,0.8l1.9-0.9h0.4l0.2,1.5l-1.7,0.2c0.1,0.2,0.2,0.5,0.4,0.8c0.1,0.2,0.1,0.6,0.1,0.9c0,0.7-0.1,1.3-0.5,1.8
		s-0.7,0.8-1.3,1.2c-0.6,0.2-1.2,0.4-1.8,0.4c-0.2,0-0.6,0-0.7-0.1l-0.4,0.6v0.4l2,0.5c0.9,0.2,1.7,0.5,2.1,0.9
		c0.6,0.4,0.8,1.1,0.8,1.8s-0.2,1.4-0.6,1.9c-0.4,0.5-0.8,0.8-1.5,1.2C220.9,220,220.2,220.2,219.5,220.2z M219.7,218.4
		c0.4,0,0.8-0.1,1.2-0.2c0.4-0.1,0.7-0.2,0.9-0.5c0.2-0.2,0.4-0.5,0.4-0.8c0-0.2-0.1-0.5-0.4-0.7c-0.2-0.1-0.5-0.4-0.8-0.4
		c-0.4-0.1-0.7-0.2-1.2-0.2c-0.4-0.1-0.8-0.1-1.2-0.2c-0.4,0.1-0.7,0.4-0.9,0.7c-0.2,0.4-0.4,0.6-0.4,0.9c0,0.5,0.2,0.8,0.7,1.1
		C218.5,218.3,219,218.4,219.7,218.4z M219.7,211.3c0.6,0,1.1-0.2,1.3-0.6c0.4-0.4,0.5-0.8,0.5-1.4s-0.1-1.1-0.5-1.4
		c-0.4-0.4-0.7-0.6-1.3-0.6s-1.1,0.2-1.3,0.6c-0.4,0.4-0.5,0.8-0.5,1.4s0.1,1.1,0.5,1.4C218.7,211,219.1,211.3,219.7,211.3z
		 M225.5,215.1l-0.2-0.9l1.1-0.2v-6.4h-0.9l-0.2-1.1l2.4-0.5l0.6,0.6v7.3l1.1,0.2v1.1h-3.7v-0.1H225.5z M226.9,203.6
		c-0.4,0-0.6-0.1-0.8-0.4c-0.2-0.2-0.4-0.5-0.4-0.8c0-0.4,0.1-0.6,0.4-0.8c0.2-0.2,0.5-0.4,0.8-0.4c0.4,0,0.6,0.1,0.8,0.4
		c0.2,0.2,0.4,0.5,0.4,0.8c0,0.4-0.1,0.6-0.4,0.8C227.5,203.5,227.3,203.6,226.9,203.6z M230.5,215.1l-0.1-0.9l1.1-0.2v-6.5h-0.9
		l-0.2-1.1l2.4-0.5l0.5,0.7c0.2-0.2,0.6-0.4,1.1-0.5c0.4-0.1,0.8-0.2,1.2-0.2c0.8,0,1.5,0.2,2,0.7s0.8,1.1,0.8,2v5.3l1.1,0.2v1.1
		h-3.8v-1.1l1.1-0.2v-5c0-0.9-0.5-1.5-1.4-1.5c-0.4,0-0.7,0.1-1.1,0.2c-0.4,0.1-0.6,0.4-0.8,0.5v5.7l1.1,0.2v0.9h-3.8v0.2H230.5z
		 M248.1,215.1c-0.6,0-1.1-0.2-1.4-0.6c-0.4-0.4-0.6-0.9-0.6-1.8v-5.6h-1.4l-0.2-1.2l0.1-0.2h1.7v-3.2l1.5-0.4l0.1,0.2v3.3h1.9
		c0.1,0,0.1,0,0.1,0.1v1.3h-2.1v5.6c0,0.4,0.1,0.6,0.2,0.7c0.1,0.1,0.4,0.1,0.6,0.1s0.5-0.1,0.7-0.2c0.2-0.1,0.4-0.2,0.5-0.4
		l0.4,1.2c-0.1,0.1-0.4,0.4-0.7,0.5C249.1,215.1,248.6,215.1,248.1,215.1z M255,215.1c-0.8,0-1.4-0.2-2.1-0.6
		c-0.6-0.4-1.1-0.9-1.4-1.7c-0.4-0.7-0.5-1.5-0.5-2.4s0.1-1.7,0.5-2.4s0.8-1.2,1.4-1.7c0.6-0.4,1.3-0.6,2-0.6c0.8,0,1.5,0.2,2.1,0.6
		c0.6,0.4,1.1,0.9,1.4,1.7c0.4,0.7,0.5,1.5,0.5,2.4s-0.1,1.7-0.5,2.4s-0.8,1.3-1.4,1.7C256.5,214.9,255.8,215.1,255,215.1z
		 M255,213.6c0.7,0,1.3-0.2,1.7-0.8s0.6-1.3,0.6-2.2s-0.2-1.8-0.6-2.4s-0.9-0.9-1.7-0.9c-0.5,0-0.9,0.1-1.2,0.5
		c-0.4,0.4-0.6,0.7-0.7,1.2c-0.1,0.5-0.2,1.1-0.2,1.7c0,0.9,0.2,1.7,0.6,2.2C253.8,213.4,254.3,213.6,255,213.6z M268,215.1
		c-0.6,0-1.1-0.1-1.5-0.4c-0.5-0.2-0.8-0.5-1.1-0.8c-0.2-0.4-0.5-0.6-0.6-0.9l1.9-0.7l0.5,1.1c0.1,0,0.2,0.1,0.4,0.1s0.4,0,0.6,0
		s0.4,0,0.6-0.1s0.4-0.2,0.5-0.4c0.1-0.1,0.2-0.4,0.2-0.6c0-0.5-0.2-0.7-0.6-0.9s-0.8-0.4-1.4-0.6c-0.7-0.2-1.3-0.6-1.8-1.1
		c-0.4-0.5-0.6-0.9-0.6-1.5c0-0.5,0.1-0.9,0.5-1.4c0.2-0.4,0.6-0.7,1.1-0.9s0.9-0.4,1.5-0.4s1.1,0.1,1.5,0.4
		c0.5,0.2,0.8,0.5,1.1,0.7c0.2,0.2,0.5,0.6,0.6,0.8l-1.9,0.7l-0.5-0.9c0,0-0.1-0.1-0.2-0.1c-0.1-0.1-0.4-0.1-0.6-0.1
		s-0.6,0.1-0.8,0.2c-0.2,0.1-0.4,0.4-0.4,0.8c0,0.4,0.2,0.6,0.6,0.8s0.9,0.5,1.7,0.7c0.6,0.2,1.2,0.6,1.4,0.9
		c0.4,0.4,0.6,0.9,0.6,1.5s-0.1,1.1-0.5,1.5s-0.7,0.7-1.2,0.9C269.1,215.1,268.6,215.1,268,215.1z M275.8,215.1
		c-0.6,0-1.1-0.2-1.4-0.6c-0.4-0.4-0.6-0.9-0.6-1.8v-5.6h-1.4l-0.2-1.2l0.1-0.2h1.7v-3.2l1.5-0.4l0.1,0.2v3.3h1.9
		c0.1,0,0.1,0,0.1,0.1v1.3h-2v5.6c0,0.4,0.1,0.6,0.2,0.7c0.1,0.1,0.4,0.1,0.6,0.1s0.5-0.1,0.7-0.2c0.2-0.1,0.4-0.2,0.5-0.4l0.4,1.2
		c-0.1,0.1-0.4,0.4-0.7,0.5C276.8,215.1,276.3,215.1,275.8,215.1z M281.5,215.1c-0.8,0-1.4-0.2-2-0.7c-0.5-0.5-0.8-1.1-0.8-1.8
		c0-0.6,0.1-1.1,0.5-1.4c0.4-0.4,0.7-0.7,1.2-0.9s1.1-0.4,1.5-0.5c0.6-0.1,1.1-0.1,1.5-0.1v-1.3c0-0.2-0.1-0.5-0.4-0.7
		c-0.2-0.2-0.6-0.2-1.1-0.2c-0.1,0-0.4,0-0.5,0s-0.4,0-0.5,0.1l-0.4,1.2l-1.9-0.6c0.2-0.7,0.7-1.2,1.3-1.5c0.6-0.4,1.3-0.6,2-0.6
		c0.9,0,1.7,0.2,2.2,0.7c0.6,0.5,0.8,1.2,0.8,2.1v4.6c0,0.4,0.1,0.5,0.4,0.5c0.1,0,0.1,0,0.2,0s0.1,0,0.1,0l0.2,0.8
		c-0.1,0.1-0.2,0.2-0.5,0.4c-0.2,0.1-0.5,0.1-0.7,0.1c-0.4,0-0.6-0.1-0.8-0.2c-0.2-0.1-0.4-0.4-0.5-0.6c-0.2,0.2-0.6,0.5-0.9,0.6
		C282.3,215.1,282,215.1,281.5,215.1z M281.7,213.6c0.4,0,0.7-0.1,1.1-0.2c0.4-0.2,0.6-0.5,0.7-0.7v-1.8c-0.2,0-0.6,0-0.9,0.1
		c-0.4,0-0.7,0.1-0.9,0.2c-0.4,0.1-0.6,0.2-0.8,0.5c-0.2,0.2-0.4,0.5-0.4,0.8c0,0.4,0.1,0.6,0.4,0.8
		C281,213.5,281.4,213.6,281.7,213.6z M287.6,215.1l-0.2-1.1l1.2-0.2v-6.4h-0.9l-0.1-1.1l2.2-0.4l0.6,0.8c0.2-0.2,0.6-0.5,0.9-0.6
		c0.4-0.1,0.7-0.2,0.9-0.2c0.6,0,1.1,0.1,1.4,0.5c0.4,0.2,0.7,0.6,0.9,1.1l-1.9,0.9l-0.6-0.9c-0.2,0-0.5,0.1-0.7,0.2
		c-0.2,0.1-0.5,0.4-0.7,0.6c-0.2,0.2-0.4,0.7-0.4,1.2v4.1l2.5,0.5v1.1h-5.2v-0.1H287.6z M298.2,215.1c-0.6,0-1.1-0.2-1.4-0.6
		c-0.4-0.4-0.6-0.9-0.6-1.8v-5.6h-1.4l-0.2-1.2l0.1-0.2h1.7v-3.2l1.5-0.4l0.1,0.2v3.3h1.9c0.1,0,0.1,0,0.1,0.1v1.3h-2v5.6
		c0,0.4,0.1,0.6,0.2,0.7s0.4,0.1,0.6,0.1s0.5-0.1,0.7-0.2c0.2-0.1,0.4-0.2,0.5-0.4l0.4,1.2c-0.1,0.1-0.4,0.4-0.7,0.5
		C299.2,215.1,298.7,215.1,298.2,215.1z M307.4,220.3c-0.2,0-0.6-0.1-0.9-0.2c-0.4-0.1-0.7-0.4-0.9-0.6l0.8-1.3
		c0.1,0.1,0.2,0.2,0.5,0.4c0.2,0.1,0.5,0.2,0.6,0.2c0.2,0,0.5-0.1,0.7-0.5c0.1-0.2,0.4-0.6,0.5-1.1l0.5-1.3L306,207h-0.7l-0.1-1.2
		l2.2-0.1l2.5,7.6l2.2-6.3h-0.8l-0.1-1.2l2.2-0.1l0.4,0.7c-0.1,0.5-0.4,1.1-0.6,1.8s-0.6,1.5-0.8,2.4c-0.4,0.8-0.6,1.8-0.9,2.7
		c-0.4,0.9-0.6,1.8-0.9,2.6c-0.2,0.8-0.6,1.4-0.7,2C309.1,219.4,308.4,220.3,307.4,220.3z M318.7,215.1c-0.8,0-1.4-0.2-2.1-0.6
		c-0.6-0.4-1.1-0.9-1.4-1.7c-0.4-0.7-0.5-1.5-0.5-2.4s0.1-1.7,0.5-2.4s0.8-1.2,1.4-1.7c0.6-0.4,1.3-0.6,2-0.6c0.8,0,1.5,0.2,2.1,0.6
		c0.6,0.4,1.1,0.9,1.4,1.7c0.4,0.7,0.5,1.5,0.5,2.4s-0.1,1.7-0.5,2.4s-0.8,1.3-1.4,1.7S319.5,215.1,318.7,215.1z M318.7,213.6
		c0.7,0,1.3-0.2,1.7-0.8s0.6-1.3,0.6-2.2s-0.2-1.8-0.6-2.4s-0.9-0.9-1.7-0.9c-0.5,0-0.9,0.1-1.2,0.5c-0.4,0.4-0.6,0.7-0.7,1.2
		s-0.2,1.1-0.2,1.7c0,0.9,0.2,1.7,0.6,2.2C317.4,213.4,318,213.6,318.7,213.6z M327.7,215.1c-0.6,0-1.1-0.1-1.4-0.2
		c-0.5-0.2-0.8-0.5-1.1-0.9c-0.2-0.5-0.4-0.9-0.4-1.7v-4.9h-0.9l-0.2-1.1l2.4-0.5l0.6,0.6v5.4c0,0.5,0.1,0.8,0.2,1.2
		c0.1,0.2,0.4,0.4,0.6,0.5s0.5,0.1,0.7,0.1c0.4,0,0.7-0.1,0.9-0.2c0.4-0.2,0.6-0.4,0.7-0.6v-5.4h-0.9l-0.2-1.1l2.2-0.5l0.6,0.6v6.9
		c0,0.1,0,0.2,0.1,0.4c0.1,0,0.1,0.1,0.2,0.1s0.1,0,0.1,0c0.1,0,0.1,0,0.1,0l0.2,0.8c-0.1,0.1-0.2,0.2-0.5,0.4
		c-0.2,0.1-0.5,0.2-0.8,0.2c-0.6,0-1.1-0.2-1.2-0.8c-0.2,0.2-0.6,0.5-1.1,0.6C328.5,215.1,328.1,215.1,327.7,215.1z M333.9,215.1
		l-0.2-1.1l1.2-0.2v-6.4H334l-0.1-1.1l2.2-0.4l0.6,0.8c0.2-0.2,0.6-0.5,0.9-0.6c0.4-0.1,0.7-0.2,0.9-0.2c0.6,0,1.1,0.1,1.4,0.5
		c0.4,0.2,0.7,0.6,0.9,1.1l-1.9,0.9l-0.6-0.9c-0.2,0-0.5,0.1-0.7,0.2c-0.2,0.1-0.5,0.4-0.7,0.6c-0.2,0.2-0.4,0.7-0.4,1.2v4.1
		l2.5,0.5v1.1h-5.2v-0.1H333.9z M217.2,246.2c-0.4,0-0.7-0.1-0.9-0.2c-0.2-0.1-0.5-0.2-0.7-0.5l0.8-1.3c0.1,0.1,0.2,0.1,0.4,0.2
		c0.1,0.1,0.2,0.1,0.5,0.1c0.2,0,0.4-0.1,0.5-0.4c0-0.2,0.1-0.5,0.1-0.8v-10.2h-1.2l-0.1-1.1l2.5-0.5l0.6,0.6v11.1
		c0,0.6-0.1,1.2-0.4,1.5c-0.2,0.4-0.5,0.6-0.8,0.8C218,246.2,217.7,246.2,217.2,246.2z M218.3,229.6c-0.4,0-0.6-0.1-0.8-0.4
		c-0.2-0.2-0.4-0.5-0.4-0.8c0-0.4,0.1-0.6,0.4-0.8c0.2-0.2,0.5-0.4,0.8-0.4c0.4,0,0.6,0.1,0.8,0.4s0.4,0.5,0.4,0.8
		c0,0.4-0.1,0.6-0.4,0.8S218.5,229.6,218.3,229.6z M225.4,241.1c-0.8,0-1.4-0.2-2.1-0.6c-0.6-0.4-1.1-0.9-1.4-1.7
		c-0.4-0.7-0.5-1.5-0.5-2.4s0.1-1.7,0.5-2.4s0.8-1.2,1.4-1.7c0.6-0.4,1.3-0.6,2-0.6c0.8,0,1.5,0.2,2.1,0.6c0.6,0.4,1.1,0.9,1.4,1.7
		c0.4,0.7,0.5,1.5,0.5,2.4c0,0.8-0.1,1.7-0.5,2.4s-0.8,1.3-1.4,1.7C226.9,241,226.2,241.1,225.4,241.1z M225.4,239.7
		c0.7,0,1.3-0.2,1.7-0.8s0.6-1.3,0.6-2.2s-0.2-1.8-0.6-2.4c-0.4-0.6-0.9-0.9-1.7-0.9c-0.5,0-0.9,0.1-1.2,0.5
		c-0.4,0.4-0.6,0.7-0.7,1.2s-0.2,1.1-0.2,1.7c0,0.9,0.2,1.7,0.6,2.2C224.1,239.5,224.7,239.7,225.4,239.7z M234.4,241.1
		c-0.6,0-1.1-0.1-1.4-0.2c-0.5-0.2-0.8-0.5-1.1-0.9c-0.2-0.5-0.4-0.9-0.4-1.7v-4.9h-0.9l-0.2-1.1l2.4-0.5l0.6,0.6v5.4
		c0,0.5,0.1,0.8,0.2,1.2c0.1,0.2,0.4,0.4,0.6,0.5c0.2,0.1,0.5,0.1,0.7,0.1c0.4,0,0.7-0.1,0.9-0.2c0.4-0.2,0.6-0.4,0.7-0.6v-5.4h-0.9
		l-0.2-1.1l2.2-0.5l0.6,0.6v6.9c0,0.1,0,0.2,0.1,0.4c0.1,0,0.1,0.1,0.2,0.1c0.1,0,0.1,0,0.1,0c0.1,0,0.1,0,0.1,0l0.2,0.8
		c-0.1,0.1-0.2,0.2-0.5,0.4c-0.2,0.1-0.5,0.2-0.8,0.2c-0.6,0-1.1-0.2-1.2-0.8c-0.2,0.2-0.6,0.5-1.1,0.6
		C235.2,241.1,234.9,241.1,234.4,241.1z M240.7,241.1l-0.2-1.1l1.2-0.2v-6.4h-0.9l-0.1-1.1l2.2-0.4l0.6,0.8c0.2-0.2,0.6-0.5,0.9-0.6
		s0.7-0.2,0.9-0.2c0.6,0,1.1,0.1,1.4,0.5c0.4,0.2,0.7,0.6,0.9,1.1l-1.9,0.9l-0.6-0.9c-0.2,0-0.5,0.1-0.7,0.2
		c-0.2,0.1-0.5,0.4-0.7,0.6c-0.2,0.2-0.4,0.7-0.4,1.2v4.1l2.5,0.5v1.1h-5.2v-0.1H240.7z M248.4,241.1l-0.1-0.9l1.1-0.2v-6.5h-0.9
		l-0.2-1.1l2.4-0.5l0.5,0.7c0.2-0.2,0.6-0.4,1.1-0.5c0.4-0.1,0.8-0.2,1.2-0.2c0.8,0,1.5,0.2,2,0.7s0.8,1.1,0.8,2v5.3l1.1,0.2v1.1
		h-3.8v-1.1l1.1-0.2v-5c0-0.9-0.5-1.5-1.4-1.5c-0.4,0-0.7,0.1-1.1,0.2c-0.4,0.1-0.6,0.4-0.8,0.5v5.7l1.1,0.2v0.9h-3.8v0.2H248.4z
		 M262.3,241.1c-0.8,0-1.5-0.2-2.1-0.6c-0.6-0.4-1.2-0.9-1.5-1.5c-0.4-0.7-0.5-1.5-0.5-2.4s0.2-1.8,0.6-2.5s0.8-1.3,1.4-1.7
		s1.3-0.6,2-0.6c0.5,0,0.9,0.1,1.4,0.2c0.5,0.2,0.8,0.5,1.2,0.8c0.2,0.4,0.5,0.8,0.5,1.4s-0.1,1.1-0.5,1.5c-0.2,0.4-0.6,0.7-1.1,0.9
		s-0.9,0.4-1.5,0.5s-1.1,0.1-1.7,0.1H260c0.1,0.6,0.4,1.2,0.7,1.7c0.5,0.5,1.1,0.6,1.9,0.6c0.5,0,0.9-0.1,1.3-0.2
		c0.4-0.1,0.7-0.4,0.9-0.6l0.4,1.3c-0.2,0.2-0.6,0.5-1.2,0.6C263.5,241.1,262.9,241.1,262.3,241.1z M260,236.1h0.5
		c0.4,0,0.6,0,0.9,0s0.7-0.1,0.9-0.2c0.4-0.1,0.6-0.2,0.8-0.5s0.4-0.5,0.4-0.9s-0.1-0.7-0.4-0.8c-0.2-0.2-0.6-0.2-0.8-0.2
		c-0.5,0-0.8,0.1-1.2,0.4c-0.4,0.2-0.6,0.6-0.8,1.1C260.1,235.2,260,235.7,260,236.1z M268.2,246.3c-0.2,0-0.6-0.1-0.9-0.2
		c-0.4-0.1-0.7-0.4-0.9-0.6l0.8-1.3c0.1,0.1,0.2,0.2,0.5,0.4c0.2,0.1,0.5,0.2,0.6,0.2c0.2,0,0.5-0.1,0.7-0.5
		c0.1-0.2,0.4-0.6,0.5-1.1l0.5-1.3l-3.1-8.9h-0.7l-0.1-1.2l2.2-0.1l2.5,7.6l2.2-6.3h-0.8l-0.1-1.2l2.2-0.1l0.4,0.7
		c-0.1,0.5-0.4,1.1-0.6,1.8s-0.6,1.5-0.8,2.4c-0.2,0.8-0.6,1.8-0.9,2.7c-0.4,0.9-0.6,1.8-0.9,2.6c-0.4,0.8-0.6,1.4-0.7,2
		C270,245.5,269.2,246.3,268.2,246.3z M276.7,236.6l-0.5-8.3l2.1-0.2l0.4,0.7l-0.7,7.8H276.7L276.7,236.6z M277.4,241.1
		c-0.4,0-0.6-0.1-0.8-0.4c-0.2-0.2-0.4-0.5-0.4-0.8c0-0.4,0.1-0.6,0.4-0.8s0.5-0.4,0.8-0.4c0.4,0,0.6,0.1,0.8,0.4s0.4,0.5,0.4,0.8
		c0,0.4-0.1,0.6-0.4,0.8C278,241,277.6,241.1,277.4,241.1z"/>
</g>
</svg>
