<svg id="Layer_1" data-name="Layer 1" xmlns="http://www.w3.org/2000/svg" viewBox="0 0 325.5 220.67"><defs><style>.cls-1{fill:#fff9dc;}</style></defs><path class="cls-1" d="M67.57,106C81.5-14,243.59-24.78,299.28,41.2s19.86,161-66.09,176.33C135.65,234.89,88,195,67.57,134.5c-25.7,0-51.71-7.88-67.07-8.5Z" transform="translate(-0.5 -0.94)"/><path d="M118.77,59.44a6.52,6.52,0,0,1-2.31-.4,5.47,5.47,0,0,1-1.89-1.13,5.08,5.08,0,0,1-1.28-1.82,6.5,6.5,0,0,1-.46-2.49,6.38,6.38,0,0,1,.75-3.15,5.23,5.23,0,0,1,2.08-2.09,6.24,6.24,0,0,1,3.06-.74c.36,0,.71,0,1,.05s.64.08.92.14a5.81,5.81,0,0,1,.67.17l.26,3h-1.23l-.61-1.89-.48,0a5.92,5.92,0,0,0-.62,0,3.82,3.82,0,0,0-3.59,2.19,5.15,5.15,0,0,0-.51,2.33,4.74,4.74,0,0,0,.54,2.3,3.9,3.9,0,0,0,1.56,1.56,4.89,4.89,0,0,0,2.4.56l.52,0a2.12,2.12,0,0,0,.47-.07V55.39l-1.94-.24.31-1.19h3.3v5.19l-.85.14a10.17,10.17,0,0,1-1,.11C119.49,59.42,119.13,59.44,118.77,59.44Z" transform="translate(-0.5 -0.94)"/><path d="M123.44,59.37l-.2-.92,1-.24V52.43l-.9,0-.16-1,2-.36.53.77a2.61,2.61,0,0,1,.82-.58,2.2,2.2,0,0,1,.9-.2,2.27,2.27,0,0,1,1.29.36,2.23,2.23,0,0,1,.8.93l-1.67.85-.54-.82a1.38,1.38,0,0,0-.61.18,1.74,1.74,0,0,0-.64.58,1.82,1.82,0,0,0-.28,1.08V58l2.22.46,0,.92Z" transform="translate(-0.5 -0.94)"/><path d="M133.86,59.44a3.8,3.8,0,0,1-2-.5,3.51,3.51,0,0,1-1.34-1.41,4.59,4.59,0,0,1-.48-2.16,4.85,4.85,0,0,1,.49-2.27,3.54,3.54,0,0,1,1.34-1.47,3.47,3.47,0,0,1,1.84-.51,3.43,3.43,0,0,1,1.33.26,2.43,2.43,0,0,1,1,.76,2,2,0,0,1,.39,1.26,2.23,2.23,0,0,1-.37,1.34,2.5,2.5,0,0,1-1,.83,5,5,0,0,1-1.37.42,8.59,8.59,0,0,1-1.52.13h-.49a2.73,2.73,0,0,0,.69,1.46,2.15,2.15,0,0,0,1.66.58,2.79,2.79,0,0,0,1.16-.22,3.91,3.91,0,0,0,.86-.51l.32,1.19a2.64,2.64,0,0,1-.63.41,4.92,4.92,0,0,1-.87.3A5,5,0,0,1,133.86,59.44Zm-2.16-4.53h.43a6.87,6.87,0,0,0,.88,0,4.22,4.22,0,0,0,.9-.19,1.82,1.82,0,0,0,.71-.44,1.11,1.11,0,0,0,.28-.79.92.92,0,0,0-.35-.8,1.32,1.32,0,0,0-.77-.24,1.68,1.68,0,0,0-1.07.35,2.37,2.37,0,0,0-.7.91A3.89,3.89,0,0,0,131.7,54.91Z" transform="translate(-0.5 -0.94)"/><path d="M141.48,59.44a3.83,3.83,0,0,1-2-.5,3.48,3.48,0,0,1-1.33-1.41,4.59,4.59,0,0,1-.49-2.16,4.85,4.85,0,0,1,.5-2.27,3.59,3.59,0,0,1,1.33-1.47,3.51,3.51,0,0,1,1.85-.51,3.41,3.41,0,0,1,1.32.26,2.46,2.46,0,0,1,1,.76,2,2,0,0,1,.39,1.26,2.24,2.24,0,0,1-.38,1.34,2.47,2.47,0,0,1-1,.83,5,5,0,0,1-1.38.42,8.47,8.47,0,0,1-1.51.13h-.49a2.73,2.73,0,0,0,.69,1.46,2.11,2.11,0,0,0,1.65.58,2.87,2.87,0,0,0,1.17-.22,4.16,4.16,0,0,0,.86-.51l.32,1.19a2.64,2.64,0,0,1-.63.41,4.77,4.77,0,0,1-.88.3A4.88,4.88,0,0,1,141.48,59.44Zm-2.16-4.53h.42a7,7,0,0,0,.89,0,4.22,4.22,0,0,0,.9-.19,1.9,1.9,0,0,0,.71-.44,1.15,1.15,0,0,0,.28-.79.92.92,0,0,0-.35-.8,1.33,1.33,0,0,0-.78-.24,1.65,1.65,0,0,0-1.06.35,2.37,2.37,0,0,0-.7.91A3.65,3.65,0,0,0,139.32,54.91Z" transform="translate(-0.5 -0.94)"/><path d="M148.16,59.44a1.94,1.94,0,0,1-.95-.23,1.7,1.7,0,0,1-.65-.7,2.61,2.61,0,0,1-.24-1.2l0-5H145l-.24-1,.12-.19h1.46l0-2.85,1.36-.31.12.22v2.94h1.75c.06,0,.08,0,.08.11v1.12h-1.85v5A.85.85,0,0,0,148,58a.72.72,0,0,0,.49.15,1.33,1.33,0,0,0,.65-.18,4.76,4.76,0,0,0,.46-.28l.34,1.1a2.75,2.75,0,0,1-.67.44A2.65,2.65,0,0,1,148.16,59.44Z" transform="translate(-0.5 -0.94)"/><path d="M151,59.37l-.17-.9,1-.24V52.45l-.9,0-.17-1,2.09-.37.51.56v6.56l1,.22v.92Zm1.36-10.29a1,1,0,1,1,.75-.3A1,1,0,0,1,152.32,49.08Z" transform="translate(-0.5 -0.94)"/><path d="M155.52,59.37l-.15-.9.95-.24V52.4l-.9.05-.17-1,2.11-.37.47.66a3.38,3.38,0,0,1,.93-.47,3.43,3.43,0,0,1,1.1-.18,3,3,0,0,1,1.31.27,2,2,0,0,1,.9.78,2.48,2.48,0,0,1,.32,1.32v4.77l1,.19v.92h-3.42l0-.92.93-.2V53.78a1.43,1.43,0,0,0-.32-1,1.27,1.27,0,0,0-.94-.33,2.37,2.37,0,0,0-1,.21,3.14,3.14,0,0,0-.75.46v5.13l1,.24v.9Z" transform="translate(-0.5 -0.94)"/><path d="M167.42,63.92a4.11,4.11,0,0,1-1.67-.32,2.7,2.7,0,0,1-1.19-.91,2.25,2.25,0,0,1-.44-1.38,2.21,2.21,0,0,1,.44-1.42,3.23,3.23,0,0,1,1-.85,1.39,1.39,0,0,1-.36-.44,1.25,1.25,0,0,1-.14-.59,1.47,1.47,0,0,1,.19-.73,2.86,2.86,0,0,1,.44-.58,3.05,3.05,0,0,1-.91-1,3.2,3.2,0,0,1,.09-3.11,3.08,3.08,0,0,1,1.17-1.07,3.28,3.28,0,0,1,1.59-.39,3.59,3.59,0,0,1,1.14.19,3.25,3.25,0,0,1,1,.53l1.7-.85.36,0,.17,1.41-1.53.19a3,3,0,0,1,.3.73,3.25,3.25,0,0,1,.1.85,2.85,2.85,0,0,1-.44,1.62,3,3,0,0,1-1.17,1,3.58,3.58,0,0,1-1.6.36h-.35l-.33,0-.32.49,0,.3,1.77.43a7.05,7.05,0,0,1,1.41.48,2.36,2.36,0,0,1,.94.78,2,2,0,0,1,.34,1.2,2.75,2.75,0,0,1-.52,1.68,3.29,3.29,0,0,1-1.36,1A4.77,4.77,0,0,1,167.42,63.92Zm.24-1.53a3.3,3.3,0,0,0,1.05-.16,2.25,2.25,0,0,0,.82-.46.92.92,0,0,0,.32-.7.76.76,0,0,0-.29-.61,2.24,2.24,0,0,0-.76-.36c-.32-.09-.66-.17-1-.25s-.72-.16-1.07-.26a2.23,2.23,0,0,0-.83.59,1.29,1.29,0,0,0-.31.85,1,1,0,0,0,.28.72,1.89,1.89,0,0,0,.75.47A3,3,0,0,0,167.66,62.39Zm0-6.42a1.48,1.48,0,0,0,1.22-.53,2,2,0,0,0,.41-1.26,2,2,0,0,0-.41-1.26,1.47,1.47,0,0,0-1.22-.52,1.45,1.45,0,0,0-1.21.52,2,2,0,0,0-.4,1.26,2,2,0,0,0,.4,1.26A1.46,1.46,0,0,0,167.64,56Z" transform="translate(-0.5 -0.94)"/><path d="M175.43,59.44a3.18,3.18,0,0,1-2.37-1,3.18,3.18,0,0,1-.57-.81l1.73-.66.41,1,.32.09a2.29,2.29,0,0,0,.58.06A1.4,1.4,0,0,0,176,58a1.16,1.16,0,0,0,.47-.32.83.83,0,0,0,.19-.56.81.81,0,0,0-.24-.62,2,2,0,0,0-.62-.41,7.47,7.47,0,0,0-.87-.35,4.18,4.18,0,0,1-1.58-1,1.89,1.89,0,0,1-.55-1.37,2.06,2.06,0,0,1,.38-1.22,2.56,2.56,0,0,1,1-.83,3.47,3.47,0,0,1,2.73,0,3.14,3.14,0,0,1,.93.65,2.59,2.59,0,0,1,.51.74l-1.72.68-.39-.87a.88.88,0,0,0-.23-.12,1.38,1.38,0,0,0-.52-.08,1.43,1.43,0,0,0-.5.09,1.12,1.12,0,0,0-.41.3.88.88,0,0,0-.16.53.68.68,0,0,0,.25.54,2.41,2.41,0,0,0,.69.42l1.07.45a3.55,3.55,0,0,1,1.33.88,2.06,2.06,0,0,1,.49,1.4,2.18,2.18,0,0,1-.41,1.34,2.64,2.64,0,0,1-1.06.83A3.53,3.53,0,0,1,175.43,59.44Z" transform="translate(-0.5 -0.94)"/><path d="M180.56,55.34l-.48-7.48,1.89-.22.36.64-.63,7.06Zm.6,4.08a1,1,0,0,1-.73-.29,1,1,0,0,1-.29-.71,1,1,0,0,1,.29-.7,1,1,0,0,1,.73-.29.94.94,0,0,1,.69.29.91.91,0,0,1,.29.7,1,1,0,0,1-1,1Z" transform="translate(-0.5 -0.94)"/><path d="M188.47,59.37l-.16-1.23,1.06-.17V49l-1.07-.08V47.62H192l.17,1.26-1.11.17V58l1.11.14v1.24Z" transform="translate(-0.5 -0.94)"/><path d="M200.09,59.44a3,3,0,0,1-1.28-.28,2.14,2.14,0,0,1-1.22-2,2,2,0,0,1,.42-1.33A3,3,0,0,1,199.1,55a5.68,5.68,0,0,1,1.42-.42,10.38,10.38,0,0,1,1.39-.14v-1.2a.75.75,0,0,0-.34-.63,1.65,1.65,0,0,0-1-.24l-.45,0a1.36,1.36,0,0,0-.4.11l-.35,1.07L197.66,53a2.77,2.77,0,0,1,1.16-1.4,3.46,3.46,0,0,1,1.85-.52,3.65,3.65,0,0,1,1.46.28,2.17,2.17,0,0,1,1,.85,2.65,2.65,0,0,1,.36,1.44v4.13a.58.58,0,0,0,.08.32.33.33,0,0,0,.26.11.57.57,0,0,0,.18,0,.42.42,0,0,1,.14,0l.24.78a1.74,1.74,0,0,1-.45.3,1.53,1.53,0,0,1-.69.16,1.14,1.14,0,0,1-.75-.22,1.12,1.12,0,0,1-.4-.57,2.85,2.85,0,0,1-.87.57A2.65,2.65,0,0,1,200.09,59.44Zm.26-1.3a1.75,1.75,0,0,0,.93-.25,1.61,1.61,0,0,0,.63-.61V55.65c-.25,0-.53,0-.84.07a4.53,4.53,0,0,0-.9.21,1.68,1.68,0,0,0-.71.42,1.1,1.1,0,0,0,0,1.49A1.16,1.16,0,0,0,200.35,58.14Z" transform="translate(-0.5 -0.94)"/><path d="M205.5,59.37l-.17-.9,1-.24V52.4l-.9.05-.17-1,2.1-.37.48.66a3.31,3.31,0,0,1,1-.47,3.57,3.57,0,0,1,1.06-.18,3.18,3.18,0,0,1,1.18.21,1.88,1.88,0,0,1,.86.63,4,4,0,0,1,.92-.55,4.35,4.35,0,0,1,.83-.23,4.86,4.86,0,0,1,.72-.06,3.13,3.13,0,0,1,1.33.27,1.93,1.93,0,0,1,.89.78,2.48,2.48,0,0,1,.31,1.32v4.74l.95.22v.92h-3.45l0-.9,1-.22V53.78a1.39,1.39,0,0,0-.33-1,1.23,1.23,0,0,0-.93-.33,2.31,2.31,0,0,0-.9.19,2.11,2.11,0,0,0-.82.56v5.07l1,.2v.92h-3.38l0-.92.92-.2V53.78a1.43,1.43,0,0,0-.32-1,1.27,1.27,0,0,0-.94-.33,2.37,2.37,0,0,0-1,.21,3.14,3.14,0,0,0-.75.46v5.13l1,.24v.9Z" transform="translate(-0.5 -0.94)"/><path d="M223.28,59.37l-.19-1.21,1-.22V49l-1-.1V47.62h2.72a8.18,8.18,0,0,1,3.33.63,4.85,4.85,0,0,1,2.23,1.91,6.08,6.08,0,0,1,.8,3.24,7.12,7.12,0,0,1-.69,3.29,4.54,4.54,0,0,1-2,2,7,7,0,0,1-3.2.67Zm3.08-1.45a4.68,4.68,0,0,0,1.9-.34,3.13,3.13,0,0,0,1.27-.95,3.87,3.87,0,0,0,.7-1.44,6.55,6.55,0,0,0,.23-1.75A4.93,4.93,0,0,0,230,51.1a3.66,3.66,0,0,0-1.48-1.49,5,5,0,0,0-2.38-.53h-.28v8.83Z" transform="translate(-0.5 -0.94)"/><path d="M237.22,59.44a3.77,3.77,0,0,1-1.95-.5,3.44,3.44,0,0,1-1.34-1.41,4.59,4.59,0,0,1-.48-2.16,4.85,4.85,0,0,1,.49-2.27,3.59,3.59,0,0,1,1.33-1.47,3.53,3.53,0,0,1,1.85-.51,3.47,3.47,0,0,1,1.33.26,2.43,2.43,0,0,1,1,.76,2,2,0,0,1,.39,1.26,2.24,2.24,0,0,1-.38,1.34,2.41,2.41,0,0,1-1,.83,5,5,0,0,1-1.38.42,8.4,8.4,0,0,1-1.51.13h-.49a2.73,2.73,0,0,0,.69,1.46,2.12,2.12,0,0,0,1.65.58,2.84,2.84,0,0,0,1.17-.22,4.16,4.16,0,0,0,.86-.51l.32,1.19a2.64,2.64,0,0,1-.63.41,4.92,4.92,0,0,1-.87.3A5,5,0,0,1,237.22,59.44Zm-2.16-4.53h.43a7,7,0,0,0,.88,0,4.22,4.22,0,0,0,.9-.19,1.9,1.9,0,0,0,.71-.44,1.15,1.15,0,0,0,.28-.79.92.92,0,0,0-.35-.8,1.32,1.32,0,0,0-.77-.24,1.66,1.66,0,0,0-1.07.35,2.37,2.37,0,0,0-.7.91A3.89,3.89,0,0,0,235.06,54.91Z" transform="translate(-0.5 -0.94)"/><path d="M243.9,59.44a1.94,1.94,0,0,1-1-.23,1.7,1.7,0,0,1-.65-.7,2.76,2.76,0,0,1-.23-1.2l0-5h-1.33l-.23-1,.12-.19h1.46l0-2.85,1.36-.31.12.22v2.94h1.75c.06,0,.09,0,.09.11v1.12h-1.86v5a.85.85,0,0,0,.17.63.75.75,0,0,0,.5.15,1.3,1.3,0,0,0,.64-.18,3.75,3.75,0,0,0,.46-.28l.34,1.1a2.75,2.75,0,0,1-.67.44A2.62,2.62,0,0,1,243.9,59.44Z" transform="translate(-0.5 -0.94)"/><path d="M250.33,59.44a3.83,3.83,0,0,1-2-.5A3.48,3.48,0,0,1,247,57.53a4.59,4.59,0,0,1-.49-2.16,4.85,4.85,0,0,1,.5-2.27,3.59,3.59,0,0,1,1.33-1.47,3.51,3.51,0,0,1,1.85-.51,3.41,3.41,0,0,1,1.32.26,2.46,2.46,0,0,1,1,.76A2,2,0,0,1,253,53.4a2.24,2.24,0,0,1-.38,1.34,2.47,2.47,0,0,1-1,.83,5,5,0,0,1-1.38.42,8.47,8.47,0,0,1-1.51.13h-.49a2.73,2.73,0,0,0,.69,1.46,2.11,2.11,0,0,0,1.65.58,2.87,2.87,0,0,0,1.17-.22,4.16,4.16,0,0,0,.86-.51l.32,1.19a2.64,2.64,0,0,1-.63.41,4.77,4.77,0,0,1-.88.3A4.88,4.88,0,0,1,250.33,59.44Zm-2.16-4.53h.42a7,7,0,0,0,.89,0,4.22,4.22,0,0,0,.9-.19,1.78,1.78,0,0,0,.7-.44,1.11,1.11,0,0,0,.29-.79.92.92,0,0,0-.35-.8,1.36,1.36,0,0,0-.78-.24,1.63,1.63,0,0,0-1.06.35,2.37,2.37,0,0,0-.7.91A3.65,3.65,0,0,0,248.17,54.91Z" transform="translate(-0.5 -0.94)"/><path d="M257.77,59.44a3.68,3.68,0,0,1-1.43-.28,3.2,3.2,0,0,1-1.14-.82,3.86,3.86,0,0,1-.75-1.28,5,5,0,0,1-.26-1.65,6.05,6.05,0,0,1,.26-1.84,3.86,3.86,0,0,1,.75-1.34,3.22,3.22,0,0,1,1.14-.83,3.75,3.75,0,0,1,1.45-.28,3.58,3.58,0,0,1,1,.12,3.25,3.25,0,0,1,1.26.66c.13.12.24.21.3.28L259,53.32l-.88-.9-.37,0a1.58,1.58,0,0,0-1.13.41,2.52,2.52,0,0,0-.62,1.1,5.26,5.26,0,0,0-.19,1.46,4.24,4.24,0,0,0,.21,1.35,2.09,2.09,0,0,0,.72,1,2.07,2.07,0,0,0,1.35.4,2.45,2.45,0,0,0,.74-.1,2.91,2.91,0,0,0,.59-.25,4.87,4.87,0,0,0,.47-.28l.37,1.14a3,3,0,0,1-1.09.58A5,5,0,0,1,257.77,59.44Z" transform="translate(-0.5 -0.94)"/><path d="M264.1,59.44a1.94,1.94,0,0,1-1-.23,1.64,1.64,0,0,1-.65-.7,2.61,2.61,0,0,1-.24-1.2l0-5H261l-.24-1,.12-.19h1.46l0-2.85,1.36-.31.12.22v2.94h1.75c.05,0,.08,0,.08.11v1.12h-1.85v5A.85.85,0,0,0,264,58a.72.72,0,0,0,.49.15,1.33,1.33,0,0,0,.65-.18,4.76,4.76,0,0,0,.46-.28l.34,1.1a2.75,2.75,0,0,1-.67.44A2.68,2.68,0,0,1,264.1,59.44Z" transform="translate(-0.5 -0.94)"/><path d="M266.9,59.37l-.17-.9,1-.24V52.45l-.9,0-.17-1,2.09-.37.51.56v6.56l1,.22v.92Zm1.36-10.29a1,1,0,0,1-1.05-1,1,1,0,0,1,.3-.75,1.05,1.05,0,0,1,.75-.3,1,1,0,0,1,.75.3,1,1,0,0,1,.31.75,1.06,1.06,0,0,1-.31.75A1,1,0,0,1,268.26,49.08Z" transform="translate(-0.5 -0.94)"/><path d="M273.86,59.37l-2.37-7.09h-.73l-.13-1,2.24-.17,2,6.41,2-5.24h-.75l-.11-1,2.09-.17.32.63-2.89,7.63Z" transform="translate(-0.5 -0.94)"/><path d="M282.93,59.44a3.82,3.82,0,0,1-1.95-.5,3.51,3.51,0,0,1-1.34-1.41,4.59,4.59,0,0,1-.48-2.16,4.85,4.85,0,0,1,.49-2.27A3.61,3.61,0,0,1,281,51.63a3.47,3.47,0,0,1,1.84-.51,3.43,3.43,0,0,1,1.33.26,2.37,2.37,0,0,1,1,.76,2,2,0,0,1,.39,1.26,2.23,2.23,0,0,1-.37,1.34,2.5,2.5,0,0,1-1,.83,4.87,4.87,0,0,1-1.37.42,8.56,8.56,0,0,1-1.51.13h-.5a2.73,2.73,0,0,0,.69,1.46,2.15,2.15,0,0,0,1.66.58,2.79,2.79,0,0,0,1.16-.22,3.91,3.91,0,0,0,.86-.51l.32,1.19a2.29,2.29,0,0,1-.63.41,4.35,4.35,0,0,1-1.92.41Zm-2.16-4.53h.43a6.87,6.87,0,0,0,.88,0,4.22,4.22,0,0,0,.9-.19,1.82,1.82,0,0,0,.71-.44,1.11,1.11,0,0,0,.28-.79.92.92,0,0,0-.35-.8,1.32,1.32,0,0,0-.77-.24,1.63,1.63,0,0,0-1.06.35,2.39,2.39,0,0,0-.71.91A3.89,3.89,0,0,0,280.77,54.91Z" transform="translate(-0.5 -0.94)"/><path d="M100.14,79.77,100,78.54l1-.16v-9l-1-.08V68h3.55l.15,1.26-1,.17V73h4.45V69.38l-1-.08V68h3.57l.15,1.26-1.09.17v8.94l1.11.14v1.24h-3.58l-.16-1.23,1-.16V74.43h-4.45v4l1,.14,0,1.24Z" transform="translate(-0.5 -0.94)"/><path d="M114.63,79.84a3.21,3.21,0,0,1-1.86-.55,3.62,3.62,0,0,1-1.26-1.49,5,5,0,0,1-.45-2.16,4.7,4.7,0,0,1,.46-2.15A3.55,3.55,0,0,1,112.79,72a3.34,3.34,0,0,1,1.84-.52,3.3,3.3,0,0,1,1.89.53,3.66,3.66,0,0,1,1.26,1.46,4.85,4.85,0,0,1,.45,2.14,5,5,0,0,1-.45,2.16,3.62,3.62,0,0,1-1.26,1.49A3.24,3.24,0,0,1,114.63,79.84Zm0-1.28a1.71,1.71,0,0,0,1.12-.36,2.09,2.09,0,0,0,.66-1,4.41,4.41,0,0,0,.22-1.47,4.66,4.66,0,0,0-.22-1.51,2.32,2.32,0,0,0-.66-1.06,1.63,1.63,0,0,0-1.12-.39,1.51,1.51,0,0,0-.87.25,2,2,0,0,0-.62.66,3.43,3.43,0,0,0-.37,1,4.69,4.69,0,0,0-.13,1.14,4.2,4.2,0,0,0,.23,1.45,2.06,2.06,0,0,0,.68,1A1.67,1.67,0,0,0,114.63,78.56Z" transform="translate(-0.5 -0.94)"/><path d="M123,79.84a3.22,3.22,0,0,1-1.87-.55,3.67,3.67,0,0,1-1.25-1.49,5,5,0,0,1-.45-2.16,4.7,4.7,0,0,1,.46-2.15A3.55,3.55,0,0,1,121.19,72a3.57,3.57,0,0,1,3.73,0,3.66,3.66,0,0,1,1.26,1.46,4.85,4.85,0,0,1,.45,2.14,5,5,0,0,1-.45,2.16,3.62,3.62,0,0,1-1.26,1.49A3.26,3.26,0,0,1,123,79.84Zm0-1.28a1.73,1.73,0,0,0,1.12-.36,2.16,2.16,0,0,0,.66-1,4.41,4.41,0,0,0,.22-1.47,4.66,4.66,0,0,0-.22-1.51,2.41,2.41,0,0,0-.66-1.06,1.64,1.64,0,0,0-1.12-.39,1.51,1.51,0,0,0-.87.25,1.88,1.88,0,0,0-.62.66,3.44,3.44,0,0,0-.38,1,5.24,5.24,0,0,0-.12,1.14,4,4,0,0,0,.23,1.45,2.06,2.06,0,0,0,.68,1A1.67,1.67,0,0,0,123,78.56Z" transform="translate(-0.5 -0.94)"/><path d="M130.62,79.84a1.94,1.94,0,0,1-1-.23,1.68,1.68,0,0,1-.64-.7,2.61,2.61,0,0,1-.24-1.2l0-5H127.5l-.24-1,.12-.19h1.46l0-2.85,1.36-.31.12.22v2.94h1.75c.06,0,.09,0,.09.11v1.12h-1.85v5c0,.32,0,.54.17.63a.7.7,0,0,0,.49.15,1.36,1.36,0,0,0,.65-.18,4.33,4.33,0,0,0,.45-.28l.34,1.1a2.57,2.57,0,0,1-.67.44A2.62,2.62,0,0,1,130.62,79.84Z" transform="translate(-0.5 -0.94)"/><path d="M133.11,81.71l0-.22.8-1.62-.43-2.06,1.81-.25c0,.08,0,.24.09.47a5,5,0,0,1,.06.82,4.23,4.23,0,0,1-.19,1.26,5.23,5.23,0,0,1-.48,1.16,4.7,4.7,0,0,1-.64.91Z" transform="translate(-0.5 -0.94)"/><path d="M143.51,79.84a2.94,2.94,0,0,1-1.28-.28,2.1,2.1,0,0,1-1.22-2,2,2,0,0,1,.42-1.33,3,3,0,0,1,1.09-.83,5.56,5.56,0,0,1,1.42-.42,10.22,10.22,0,0,1,1.39-.14v-1.2A.75.75,0,0,0,145,73a1.67,1.67,0,0,0-1-.24l-.45,0a1.28,1.28,0,0,0-.4.11L142.81,74l-1.73-.57a2.72,2.72,0,0,1,1.16-1.4,3.46,3.46,0,0,1,1.85-.52,3.6,3.6,0,0,1,1.45.28,2.19,2.19,0,0,1,1,.85,2.65,2.65,0,0,1,.36,1.44v4.13a.51.51,0,0,0,.08.32.32.32,0,0,0,.26.11l.18,0a.42.42,0,0,1,.14,0l.24.78a1.74,1.74,0,0,1-.45.3,1.41,1.41,0,0,1-.69.16,1.18,1.18,0,0,1-.76-.22,1.12,1.12,0,0,1-.4-.57,2.93,2.93,0,0,1-.86.57A2.65,2.65,0,0,1,143.51,79.84Zm.26-1.3a1.84,1.84,0,0,0,1.56-.86V76.05c-.25,0-.53,0-.84.07a4.53,4.53,0,0,0-.9.21,1.62,1.62,0,0,0-.71.42,1,1,0,0,0-.27.74,1,1,0,0,0,.31.75A1.14,1.14,0,0,0,143.77,78.54Z" transform="translate(-0.5 -0.94)"/><path d="M153,79.77l-.17-.9,1-.24V72.8l-.9,0-.17-1,2.11-.37.48.66a3.31,3.31,0,0,1,1-.47,3.52,3.52,0,0,1,1.06-.18,3.13,3.13,0,0,1,1.17.21,2,2,0,0,1,.87.63,3.79,3.79,0,0,1,.92-.55,4.16,4.16,0,0,1,.83-.23,4.76,4.76,0,0,1,.72-.06,3.08,3.08,0,0,1,1.32.27,1.89,1.89,0,0,1,.89.78,2.5,2.5,0,0,1,.32,1.32v4.74l.95.22v.92h-3.45l0-.9,1-.22V74.18a1.43,1.43,0,0,0-.32-1,1.27,1.27,0,0,0-.94-.33,2.39,2.39,0,0,0-.9.19,2.07,2.07,0,0,0-.81.56v5.07l1,.2v.92h-3.39l0-.92.92-.2V74.18a1.39,1.39,0,0,0-.33-1,1.23,1.23,0,0,0-.93-.33,2.45,2.45,0,0,0-1,.21,3.27,3.27,0,0,0-.74.46v5.13l1,.24v.9Z" transform="translate(-0.5 -0.94)"/><path d="M168.81,79.84a3,3,0,0,1-1.29-.28,2.11,2.11,0,0,1-1.21-2,2.09,2.09,0,0,1,.41-1.33,3,3,0,0,1,1.09-.83,5.68,5.68,0,0,1,1.42-.42,10.38,10.38,0,0,1,1.39-.14v-1.2a.77.77,0,0,0-.33-.63,1.67,1.67,0,0,0-1-.24l-.45,0a1.2,1.2,0,0,0-.4.11L168.11,74l-1.73-.57a2.75,2.75,0,0,1,1.15-1.4,3.49,3.49,0,0,1,1.85-.52,3.65,3.65,0,0,1,1.46.28,2.25,2.25,0,0,1,1,.85,2.74,2.74,0,0,1,.35,1.44v4.13a.51.51,0,0,0,.09.32.3.3,0,0,0,.25.11.57.57,0,0,0,.18,0,.42.42,0,0,1,.14,0l.24.78a1.74,1.74,0,0,1-.45.3,1.41,1.41,0,0,1-.69.16,1.16,1.16,0,0,1-.75-.22,1.12,1.12,0,0,1-.4-.57,2.85,2.85,0,0,1-.87.57A2.64,2.64,0,0,1,168.81,79.84Zm.25-1.3a1.81,1.81,0,0,0,.94-.25,1.65,1.65,0,0,0,.62-.61V76.05c-.24,0-.52,0-.84.07a4.53,4.53,0,0,0-.9.21,1.58,1.58,0,0,0-.7.42,1,1,0,0,0-.27.74,1,1,0,0,0,.3.75A1.18,1.18,0,0,0,169.06,78.54Z" transform="translate(-0.5 -0.94)"/><path d="M176.81,79.84a3.25,3.25,0,0,1-1.37-.28,3.2,3.2,0,0,1-1-.7,3.52,3.52,0,0,1-.58-.81l1.74-.66.4,1,.33.1a2.9,2.9,0,0,0,.58.05,1.39,1.39,0,0,0,.5-.1,1,1,0,0,0,.47-.32.9.9,0,0,0,0-1.18,2.47,2.47,0,0,0-.62-.41,8.49,8.49,0,0,0-.88-.35,4.26,4.26,0,0,1-1.58-1,1.91,1.91,0,0,1-.54-1.37,2,2,0,0,1,.37-1.22,2.6,2.6,0,0,1,1-.83,3.47,3.47,0,0,1,2.73,0,3,3,0,0,1,.92.65,2.59,2.59,0,0,1,.51.74l-1.71.68-.39-.86a.73.73,0,0,0-.23-.13,1.42,1.42,0,0,0-.52-.08,1.24,1.24,0,0,0-.5.1.93.93,0,0,0-.41.29.82.82,0,0,0-.16.53.68.68,0,0,0,.24.54,2.64,2.64,0,0,0,.7.42l1.06.45a3.6,3.6,0,0,1,1.34.88,2.05,2.05,0,0,1,.48,1.4,2.12,2.12,0,0,1-.41,1.34,2.61,2.61,0,0,1-1.05.83A3.54,3.54,0,0,1,176.81,79.84Z" transform="translate(-0.5 -0.94)"/><path d="M183.77,79.84a2,2,0,0,1-1-.23,1.68,1.68,0,0,1-.64-.7,2.61,2.61,0,0,1-.24-1.2l0-5h-1.32l-.24-1,.12-.19H182l0-2.85,1.36-.31.11.22v2.94h1.76c.05,0,.08,0,.08.11v1.12h-1.85v5c0,.32.05.54.17.63a.7.7,0,0,0,.49.15,1.33,1.33,0,0,0,.65-.18l.46-.28.33,1.1a2.4,2.4,0,0,1-.67.44A2.6,2.6,0,0,1,183.77,79.84Z" transform="translate(-0.5 -0.94)"/><path d="M190.19,79.84a3.8,3.8,0,0,1-1.95-.5,3.51,3.51,0,0,1-1.34-1.41,4.59,4.59,0,0,1-.48-2.16,4.85,4.85,0,0,1,.49-2.27A3.54,3.54,0,0,1,188.25,72a3.47,3.47,0,0,1,1.84-.51,3.43,3.43,0,0,1,1.33.26,2.43,2.43,0,0,1,1,.76,2,2,0,0,1,.39,1.26,2.23,2.23,0,0,1-.37,1.34,2.5,2.5,0,0,1-1,.83,5.08,5.08,0,0,1-1.37.42,8.59,8.59,0,0,1-1.52.13h-.49a2.73,2.73,0,0,0,.69,1.46,2.15,2.15,0,0,0,1.66.58,2.79,2.79,0,0,0,1.16-.22,4.16,4.16,0,0,0,.86-.51l.32,1.19a2.64,2.64,0,0,1-.63.41,4.92,4.92,0,0,1-.87.3A5,5,0,0,1,190.19,79.84ZM188,75.31h.43a7,7,0,0,0,.88,0,4.22,4.22,0,0,0,.9-.19,1.82,1.82,0,0,0,.71-.44,1.11,1.11,0,0,0,.28-.79.92.92,0,0,0-.35-.8,1.32,1.32,0,0,0-.77-.24,1.72,1.72,0,0,0-1.07.35,2.33,2.33,0,0,0-.7.92A3.83,3.83,0,0,0,188,75.31Z" transform="translate(-0.5 -0.94)"/><path d="M194.19,79.77l-.21-.92,1-.24V72.83l-.9,0-.15-1,2-.36.52.77a2.65,2.65,0,0,1,.83-.58,2.15,2.15,0,0,1,.89-.2,2.27,2.27,0,0,1,1.29.36,2.17,2.17,0,0,1,.8.93l-1.66.85-.55-.82a1.41,1.41,0,0,0-.61.18,1.74,1.74,0,0,0-.64.58,1.92,1.92,0,0,0-.28,1.08v3.72l2.23.46,0,.92Z" transform="translate(-0.5 -0.94)"/><path d="M205.32,79.77l-.18-.9,1-.24V72.76H205l-.25-1.05.12-.19h1.29V70.08a3.4,3.4,0,0,1,.3-1.52,2,2,0,0,1,.83-.9,2.54,2.54,0,0,1,1.25-.3,3.23,3.23,0,0,1,.73.09,2.86,2.86,0,0,1,.78.32,3.26,3.26,0,0,1,.74.57l-1.36,1.16-.84-.87h-.2a.57.57,0,0,0-.55.28,1.4,1.4,0,0,0-.15.66v2h1.91c.05,0,.08,0,.08.11v1.13h-2v5.87l1.75.22v.92Z" transform="translate(-0.5 -0.94)"/><path d="M213.18,79.84a3,3,0,0,1-1.29-.28,2.11,2.11,0,0,1-1.21-2,2.09,2.09,0,0,1,.41-1.33,3,3,0,0,1,1.09-.83A5.68,5.68,0,0,1,213.6,75a10.36,10.36,0,0,1,1.4-.14v-1.2a.78.78,0,0,0-.34-.63,1.67,1.67,0,0,0-1-.24l-.45,0a1.2,1.2,0,0,0-.4.11L212.48,74l-1.73-.57A2.75,2.75,0,0,1,211.9,72a3.49,3.49,0,0,1,1.85-.52,3.65,3.65,0,0,1,1.46.28,2.17,2.17,0,0,1,1,.85,2.65,2.65,0,0,1,.36,1.44v4.13a.51.51,0,0,0,.09.32.3.3,0,0,0,.25.11.57.57,0,0,0,.18,0,.44.44,0,0,1,.15,0l.23.78a1.74,1.74,0,0,1-.45.3,1.41,1.41,0,0,1-.69.16,1.16,1.16,0,0,1-.75-.22,1.12,1.12,0,0,1-.4-.57,2.85,2.85,0,0,1-.87.57A2.64,2.64,0,0,1,213.18,79.84Zm.25-1.3a1.81,1.81,0,0,0,.94-.25,1.76,1.76,0,0,0,.63-.61V76.05c-.25,0-.54,0-.85.07a4.53,4.53,0,0,0-.9.21,1.58,1.58,0,0,0-.7.42,1,1,0,0,0-.27.74,1,1,0,0,0,.3.75A1.18,1.18,0,0,0,213.43,78.54Z" transform="translate(-0.5 -0.94)"/><path d="M218.36,79.77l-.14-.9,1-.24v-10h-.9l-.17-1,2.08-.33.54.58V78.63l1.07.24v.9Z" transform="translate(-0.5 -0.94)"/><path d="M222.8,79.77l-.14-.9,1-.24v-10h-.9l-.17-1,2.07-.33.55.58V78.63l1.07.24v.9Z" transform="translate(-0.5 -0.94)"/><path d="M229.78,79.84a3,3,0,0,1-1.28-.28,2.11,2.11,0,0,1-1.21-2,2,2,0,0,1,.41-1.33,3,3,0,0,1,1.09-.83,5.68,5.68,0,0,1,1.42-.42,10.38,10.38,0,0,1,1.39-.14v-1.2a.75.75,0,0,0-.34-.63,1.65,1.65,0,0,0-1-.24l-.45,0a1.36,1.36,0,0,0-.4.11L229.09,74l-1.74-.57a2.77,2.77,0,0,1,1.16-1.4,3.46,3.46,0,0,1,1.85-.52,3.65,3.65,0,0,1,1.46.28,2.17,2.17,0,0,1,1,.85,2.65,2.65,0,0,1,.36,1.44v4.13a.51.51,0,0,0,.09.32.3.3,0,0,0,.25.11.57.57,0,0,0,.18,0,.42.42,0,0,1,.14,0l.24.78a1.74,1.74,0,0,1-.45.3,1.41,1.41,0,0,1-.69.16,1.14,1.14,0,0,1-.75-.22,1.12,1.12,0,0,1-.4-.57,2.85,2.85,0,0,1-.87.57A2.65,2.65,0,0,1,229.78,79.84Zm.26-1.3a1.75,1.75,0,0,0,.93-.25,1.61,1.61,0,0,0,.63-.61V76.05c-.25,0-.53,0-.84.07a4.53,4.53,0,0,0-.9.21,1.58,1.58,0,0,0-.7.42,1,1,0,0,0-.28.74,1,1,0,0,0,.31.75A1.16,1.16,0,0,0,230,78.54Z" transform="translate(-0.5 -0.94)"/><path d="M238.61,79.84a3.73,3.73,0,0,1-1.44-.28,3.2,3.2,0,0,1-1.14-.82,3.86,3.86,0,0,1-.75-1.28,5,5,0,0,1-.26-1.65,6.05,6.05,0,0,1,.26-1.84,3.86,3.86,0,0,1,.75-1.34,3.22,3.22,0,0,1,1.14-.83,3.78,3.78,0,0,1,1.45-.28,3.52,3.52,0,0,1,1,.12,3.17,3.17,0,0,1,.74.3,3.34,3.34,0,0,1,.52.36l.31.28-1.36,1.14-.89-.9-.37,0a1.54,1.54,0,0,0-1.12.41,2.42,2.42,0,0,0-.62,1.1,5.26,5.26,0,0,0-.2,1.46,4.24,4.24,0,0,0,.21,1.35,2.15,2.15,0,0,0,.72,1,2.07,2.07,0,0,0,1.35.4,2.45,2.45,0,0,0,.74-.1,2.91,2.91,0,0,0,.59-.25,4.87,4.87,0,0,0,.47-.28l.37,1.14a2.86,2.86,0,0,1-1.09.58A5,5,0,0,1,238.61,79.84Z" transform="translate(-0.5 -0.94)"/><path d="M243.57,84.41a2.73,2.73,0,0,1-.86-.16,2.6,2.6,0,0,1-.89-.52l.71-1.16.41.34a.94.94,0,0,0,.58.22A.64.64,0,0,0,244,83a1.74,1.74,0,0,0,.33-.49,6.9,6.9,0,0,0,.28-.66l.41-1.12-2.76-8h-.59l-.14-1,2.06-.16,2.26,6.8,2-5.62h-.69l-.14-1,2-.14.32.6c-.11.27-.24.62-.39,1s-.31.88-.5,1.4-.38,1.06-.58,1.63-.4,1.15-.62,1.73-.42,1.14-.61,1.69-.38,1.06-.55,1.53-.33.88-.45,1.23a5.31,5.31,0,0,1-.6,1.12,2.26,2.26,0,0,1-.69.69A1.56,1.56,0,0,1,243.57,84.41Z" transform="translate(-0.5 -0.94)"/><path d="M254.5,79.77l-.19-.9,1-.24V72.76h-1.14l-.25-1.05.12-.19h1.29V70.08a3.4,3.4,0,0,1,.3-1.52,2,2,0,0,1,.83-.9,2.51,2.51,0,0,1,1.25-.3,3.23,3.23,0,0,1,.73.09,2.86,2.86,0,0,1,.78.32,3,3,0,0,1,.73.57l-1.36,1.16-.83-.87h-.2a.58.58,0,0,0-.56.28,1.53,1.53,0,0,0-.14.66v2h1.9c.06,0,.09,0,.09.11v1.13h-2v5.87l1.75.22v.92Z" transform="translate(-0.5 -0.94)"/><path d="M260,79.77l-.17-.9,1-.24V72.85l-.9,0-.17-1,2.09-.37.51.56v6.56l1,.22v.92Zm1.36-10.29a1,1,0,0,1-1.06-1,1,1,0,0,1,.31-.75,1.08,1.08,0,0,1,1.49,0,1,1,0,0,1,.31.75,1,1,0,0,1-1.05,1Z" transform="translate(-0.5 -0.94)"/><path d="M264.58,79.77l-.15-.9.95-.24V72.8l-.9,0-.17-1,2.11-.37.47.66a3.53,3.53,0,0,1,.93-.47,3.43,3.43,0,0,1,1.1-.18,3.05,3.05,0,0,1,1.32.27,2,2,0,0,1,.89.78,2.5,2.5,0,0,1,.32,1.32v4.77l1,.19,0,.92H269l0-.92.93-.2V74.18a1.39,1.39,0,0,0-.32-1,1.24,1.24,0,0,0-.93-.33,2.45,2.45,0,0,0-1,.21,3.14,3.14,0,0,0-.75.46v5.13l1,.24v.9Z" transform="translate(-0.5 -0.94)"/><path d="M276.7,79.84a2.85,2.85,0,0,1-1.77-.55,3.35,3.35,0,0,1-1.13-1.47,5.24,5.24,0,0,1-.39-2,5.49,5.49,0,0,1,.28-1.85,3.7,3.7,0,0,1,.77-1.33,3.3,3.3,0,0,1,1.14-.79,3.37,3.37,0,0,1,1.38-.28,3.24,3.24,0,0,1,.79.09,4.67,4.67,0,0,1,.63.2V68.63l-.95,0-.17-1,2.14-.35.51.58V78.22a.46.46,0,0,0,.1.32.33.33,0,0,0,.26.11.54.54,0,0,0,.22,0l.15,0,.26.78a2.56,2.56,0,0,1-.5.32,1.57,1.57,0,0,1-.72.18,1.2,1.2,0,0,1-.74-.21,1.26,1.26,0,0,1-.4-.49,2.15,2.15,0,0,1-.82.53A3.15,3.15,0,0,1,276.7,79.84Zm.24-1.28a1.7,1.7,0,0,0,.85-.23,1.35,1.35,0,0,0,.61-.62V73.26a1.35,1.35,0,0,0-.57-.35,2,2,0,0,0-.74-.13,1.8,1.8,0,0,0-1.13.36,2.21,2.21,0,0,0-.73,1,4.71,4.71,0,0,0-.24,1.61,4.34,4.34,0,0,0,.21,1.38,2.29,2.29,0,0,0,.64,1A1.56,1.56,0,0,0,276.94,78.56Z" transform="translate(-0.5 -0.94)"/><path d="M285.66,79.84a3.8,3.8,0,0,1-2-.5,3.51,3.51,0,0,1-1.34-1.41,4.59,4.59,0,0,1-.48-2.16,4.85,4.85,0,0,1,.49-2.27A3.61,3.61,0,0,1,283.72,72a3.47,3.47,0,0,1,1.84-.51,3.43,3.43,0,0,1,1.33.26,2.43,2.43,0,0,1,1,.76,2,2,0,0,1,.39,1.26,2.23,2.23,0,0,1-.37,1.34,2.5,2.5,0,0,1-1,.83,5,5,0,0,1-1.37.42,8.59,8.59,0,0,1-1.52.13h-.49a2.73,2.73,0,0,0,.69,1.46,2.15,2.15,0,0,0,1.66.58,2.79,2.79,0,0,0,1.16-.22,3.91,3.91,0,0,0,.86-.51l.32,1.19a2.64,2.64,0,0,1-.63.41,4.92,4.92,0,0,1-.87.3A5,5,0,0,1,285.66,79.84Zm-2.16-4.53h.43a6.87,6.87,0,0,0,.88,0,4.22,4.22,0,0,0,.9-.19,1.82,1.82,0,0,0,.71-.44,1.11,1.11,0,0,0,.28-.79.92.92,0,0,0-.35-.8,1.32,1.32,0,0,0-.77-.24,1.74,1.74,0,0,0-1.07.35,2.33,2.33,0,0,0-.7.92A3.83,3.83,0,0,0,283.5,75.31Z" transform="translate(-0.5 -0.94)"/><path d="M289.66,79.77l-.21-.92,1-.24V72.83l-.9,0-.15-1,2-.36.52.77a2.65,2.65,0,0,1,.83-.58,2.15,2.15,0,0,1,.89-.2,2.27,2.27,0,0,1,1.29.36,2.17,2.17,0,0,1,.8.93l-1.66.85-.55-.82a1.41,1.41,0,0,0-.61.18,1.74,1.74,0,0,0-.64.58,1.92,1.92,0,0,0-.28,1.08v3.72l2.23.46,0,.92Z" transform="translate(-0.5 -0.94)"/><path d="M296.05,81.71l0-.22.8-1.62-.42-2.06,1.8-.25c0,.08.05.24.09.47a5,5,0,0,1,.06.82,4.23,4.23,0,0,1-.19,1.26,5.23,5.23,0,0,1-.48,1.16,4.7,4.7,0,0,1-.64.91Z" transform="translate(-0.5 -0.94)"/><path d="M99.7,100.24a3,3,0,0,1-1.28-.28,2.21,2.21,0,0,1-.89-.79A2.14,2.14,0,0,1,97.2,98a2,2,0,0,1,.42-1.33,3,3,0,0,1,1.09-.83,5.68,5.68,0,0,1,1.42-.42,10.38,10.38,0,0,1,1.39-.14v-1.2a.75.75,0,0,0-.34-.63,1.67,1.67,0,0,0-1-.24l-.45,0a1.28,1.28,0,0,0-.4.11L99,94.41l-1.74-.57a2.73,2.73,0,0,1,1.16-1.4,3.46,3.46,0,0,1,1.85-.52,3.57,3.57,0,0,1,1.45.28,2.19,2.19,0,0,1,1,.85,2.65,2.65,0,0,1,.36,1.44v4.13a.58.58,0,0,0,.08.32.32.32,0,0,0,.26.11l.18,0a.42.42,0,0,1,.14,0l.24.78a1.74,1.74,0,0,1-.45.3,1.53,1.53,0,0,1-.69.16,1.12,1.12,0,0,1-1.16-.79,2.81,2.81,0,0,1-.86.57A2.65,2.65,0,0,1,99.7,100.24Zm.26-1.3a1.75,1.75,0,0,0,.93-.25,1.61,1.61,0,0,0,.63-.61V96.45c-.25,0-.53,0-.84.07a4.53,4.53,0,0,0-.9.21,1.62,1.62,0,0,0-.71.42,1.1,1.1,0,0,0,0,1.49A1.14,1.14,0,0,0,100,98.94Z" transform="translate(-0.5 -0.94)"/><path d="M105.11,100.17l-.15-.9,1-.24V93.2l-.9,0-.17-1,2.1-.37.48.66a3.54,3.54,0,0,1,2-.65,3.05,3.05,0,0,1,1.32.27,1.93,1.93,0,0,1,.89.78,2.39,2.39,0,0,1,.33,1.32v4.77l1,.19v.92h-3.42l0-.92.94-.2V94.58a1.43,1.43,0,0,0-.32-1,1.27,1.27,0,0,0-.94-.33,2.37,2.37,0,0,0-1,.21,3.52,3.52,0,0,0-.75.45V99l1,.24v.9Z" transform="translate(-0.5 -0.94)"/><path d="M117.23,100.24a3,3,0,0,1-1.78-.55,3.42,3.42,0,0,1-1.13-1.47,5.24,5.24,0,0,1-.39-2,5.49,5.49,0,0,1,.28-1.85A3.87,3.87,0,0,1,115,93a3.17,3.17,0,0,1,1.13-.79,3.37,3.37,0,0,1,1.38-.28,3.12,3.12,0,0,1,.79.09,3.7,3.7,0,0,1,.64.2V89l-1,0-.17-1,2.14-.34.51.58V98.62a.51.51,0,0,0,.09.32.34.34,0,0,0,.27.11.54.54,0,0,0,.22,0l.15-.05.26.78a2.71,2.71,0,0,1-.51.32,1.54,1.54,0,0,1-.72.18,1.17,1.17,0,0,1-.73-.21,1.29,1.29,0,0,1-.41-.49,2.11,2.11,0,0,1-.81.53A3.19,3.19,0,0,1,117.23,100.24Zm.24-1.28a1.84,1.84,0,0,0,.85-.23,1.4,1.4,0,0,0,.61-.62V93.66a1.49,1.49,0,0,0-.57-.35,2,2,0,0,0-.74-.13,1.85,1.85,0,0,0-1.14.36,2.12,2.12,0,0,0-.72,1,4.46,4.46,0,0,0-.25,1.61,4.34,4.34,0,0,0,.21,1.38,2.48,2.48,0,0,0,.64,1A1.58,1.58,0,0,0,117.47,99Z" transform="translate(-0.5 -0.94)"/><path d="M126.92,100.17l-.15-1.23,1-.17v-9l-1.07-.08V88.42h3.67l.17,1.26-1.1.17v8.94l1.1.14v1.24Z" transform="translate(-0.5 -0.94)"/><path d="M133,92.84,132,92.3l0-.19.7-1.75-.41-2.06L134,88c0,.07.06.26.11.55a5.45,5.45,0,0,1,.07.92,4.84,4.84,0,0,1-.16,1.26,6.14,6.14,0,0,1-.42,1.16A6.93,6.93,0,0,1,133,92.84Z" transform="translate(-0.5 -0.94)"/><path d="M135.32,100.17l-.14-.9,1-.24V89h-.9l-.17-1,2.07-.33.55.58V99l1.07.24v.9Z" transform="translate(-0.5 -0.94)"/><path d="M139.75,100.17l-.13-.9,1-.24V89h-.9l-.17-1,2.07-.33.54.58V99l1.08.24v.9Z" transform="translate(-0.5 -0.94)"/><path d="M149.31,100.2l-.39-.22V89l-1,0-.16-1,2.15-.32.51.55v4.13a2.45,2.45,0,0,1,.74-.37,3.41,3.41,0,0,1,.92-.13,3.07,3.07,0,0,1,1.83.53,3.24,3.24,0,0,1,1.12,1.44,5.35,5.35,0,0,1,.38,2.1,5.53,5.53,0,0,1-.26,1.79,3.8,3.8,0,0,1-.75,1.34,3.17,3.17,0,0,1-1.15.84,4,4,0,0,1-2.4.17,3.36,3.36,0,0,1-.82-.3ZM151.79,99a1.79,1.79,0,0,0,1.16-.37,2.28,2.28,0,0,0,.68-1,4.3,4.3,0,0,0,.23-1.48,4.72,4.72,0,0,0-.21-1.46,2.31,2.31,0,0,0-.65-1,1.7,1.7,0,0,0-1.13-.38,2.13,2.13,0,0,0-.81.16,1.37,1.37,0,0,0-.61.43v4.78a1.5,1.5,0,0,0,.62.3A3,3,0,0,0,151.79,99Z" transform="translate(-0.5 -0.94)"/><path d="M160.46,100.24a3.83,3.83,0,0,1-2-.5,3.48,3.48,0,0,1-1.33-1.41,4.59,4.59,0,0,1-.49-2.16,4.92,4.92,0,0,1,.5-2.28,3.63,3.63,0,0,1,1.33-1.46,3.51,3.51,0,0,1,1.85-.51,3.41,3.41,0,0,1,1.32.26,2.46,2.46,0,0,1,1,.76,2,2,0,0,1,.39,1.26,2.24,2.24,0,0,1-.38,1.34,2.47,2.47,0,0,1-1,.83,5,5,0,0,1-1.38.42,8.47,8.47,0,0,1-1.51.13h-.49a2.73,2.73,0,0,0,.69,1.46,2.11,2.11,0,0,0,1.65.58,2.87,2.87,0,0,0,1.17-.22,4.16,4.16,0,0,0,.86-.51l.32,1.19a2.64,2.64,0,0,1-.63.41,4.13,4.13,0,0,1-.88.29A4.3,4.3,0,0,1,160.46,100.24Zm-2.16-4.53h.42a7,7,0,0,0,.89,0,4.22,4.22,0,0,0,.9-.19,1.9,1.9,0,0,0,.71-.44,1.15,1.15,0,0,0,.28-.79.92.92,0,0,0-.35-.8,1.33,1.33,0,0,0-.78-.24,1.65,1.65,0,0,0-1.06.35,2.29,2.29,0,0,0-.7.91A3.65,3.65,0,0,0,158.3,95.71Z" transform="translate(-0.5 -0.94)"/><path d="M171.22,100.24a1.94,1.94,0,0,1-.95-.23,1.7,1.7,0,0,1-.65-.7,2.61,2.61,0,0,1-.24-1.2l0-5h-1.33l-.24-1,.12-.19h1.46l0-2.85,1.36-.31L171,89v2.94h1.75c.06,0,.08,0,.08.11v1.12h-1.85v5a.86.86,0,0,0,.17.64.72.72,0,0,0,.49.15,1.33,1.33,0,0,0,.65-.18,3.75,3.75,0,0,0,.46-.28l.34,1.1a2.75,2.75,0,0,1-.67.44A2.65,2.65,0,0,1,171.22,100.24Z" transform="translate(-0.5 -0.94)"/><path d="M177.65,100.24a3.83,3.83,0,0,1-2-.5,3.42,3.42,0,0,1-1.33-1.41,4.47,4.47,0,0,1-.49-2.16,4.92,4.92,0,0,1,.5-2.28,3.56,3.56,0,0,1,1.33-1.46,3.5,3.5,0,0,1,1.84-.51,3.43,3.43,0,0,1,1.33.26,2.37,2.37,0,0,1,1,.76,2,2,0,0,1,.39,1.26,2.23,2.23,0,0,1-.37,1.34,2.47,2.47,0,0,1-1,.83,5,5,0,0,1-1.38.42,8.47,8.47,0,0,1-1.51.13h-.5a2.89,2.89,0,0,0,.69,1.46,2.15,2.15,0,0,0,1.66.58,2.79,2.79,0,0,0,1.16-.22,3.91,3.91,0,0,0,.86-.51l.33,1.19a2.64,2.64,0,0,1-.63.41,4.86,4.86,0,0,1-1.92.41Zm-2.16-4.53h.42a7.13,7.13,0,0,0,.89,0,4.5,4.5,0,0,0,.9-.19,1.78,1.78,0,0,0,.7-.44,1.11,1.11,0,0,0,.28-.79.9.9,0,0,0-.35-.8,1.32,1.32,0,0,0-.77-.24,1.63,1.63,0,0,0-1.06.35,2.32,2.32,0,0,0-.71.91A3.64,3.64,0,0,0,175.49,95.71Z" transform="translate(-0.5 -0.94)"/><path d="M184.24,100.24a3.33,3.33,0,0,1-1.38-.28,3.27,3.27,0,0,1-1-.7,3.52,3.52,0,0,1-.58-.81l1.74-.66.4,1,.33.09a2.21,2.21,0,0,0,.57.06,1.4,1.4,0,0,0,.51-.1,1.1,1.1,0,0,0,.47-.32.83.83,0,0,0,.2-.56.81.81,0,0,0-.24-.62,2.23,2.23,0,0,0-.62-.41,8.49,8.49,0,0,0-.88-.35,4.18,4.18,0,0,1-1.58-1,1.91,1.91,0,0,1-.54-1.37A2,2,0,0,1,182,93a2.6,2.6,0,0,1,1-.83,3,3,0,0,1,1.36-.29,3.19,3.19,0,0,1,1.37.27,3.08,3.08,0,0,1,.92.65,2.59,2.59,0,0,1,.51.74l-1.71.68-.39-.87-.23-.12a1.57,1.57,0,0,0-1,0,1,1,0,0,0-.41.3.82.82,0,0,0-.16.53.7.7,0,0,0,.24.54,2.64,2.64,0,0,0,.7.42l1.06.45a3.6,3.6,0,0,1,1.34.88,2.05,2.05,0,0,1,.48,1.4,2.18,2.18,0,0,1-.41,1.34,2.61,2.61,0,0,1-1,.83A3.54,3.54,0,0,1,184.24,100.24Z" transform="translate(-0.5 -0.94)"/><path d="M191.2,100.24a2,2,0,0,1-1-.23,1.68,1.68,0,0,1-.64-.7,2.61,2.61,0,0,1-.24-1.2l0-5h-1.32l-.24-1,.12-.19h1.46l0-2.85,1.36-.31.12.22v2.94h1.75c.06,0,.09,0,.09.11v1.12h-1.85v5c0,.33.05.55.17.64a.7.7,0,0,0,.49.15,1.3,1.3,0,0,0,.64-.18,3.75,3.75,0,0,0,.46-.28l.34,1.1a2.57,2.57,0,0,1-.67.44A2.6,2.6,0,0,1,191.2,100.24Z" transform="translate(-0.5 -0.94)"/><path d="M194,100.17l-.17-.9,1-.24V93.25l-.9,0-.18-1,2.1-.37.51.56V99l1,.22v.92Zm1.36-10.29a1,1,0,0,1-.75-.3,1.05,1.05,0,0,1-.3-.75,1,1,0,0,1,1.05-1,1.05,1.05,0,0,1,.75.3,1,1,0,0,1,.3.75,1,1,0,0,1-1,1Z" transform="translate(-0.5 -0.94)"/><path d="M198.56,100.17l-.16-.9.95-.24V93.2l-.9,0-.17-1,2.11-.37.48.66a3.48,3.48,0,0,1,2-.65,3.05,3.05,0,0,1,1.32.27,2,2,0,0,1,.89.78,2.39,2.39,0,0,1,.32,1.32v4.77l1,.19,0,.92H203l0-.92.94-.2V94.58a1.39,1.39,0,0,0-.33-1,1.23,1.23,0,0,0-.93-.33,2.45,2.45,0,0,0-1,.21,3.79,3.79,0,0,0-.75.45V99l1,.24v.9Z" transform="translate(-0.5 -0.94)"/><path d="M210.46,104.72a4.16,4.16,0,0,1-1.68-.32,2.81,2.81,0,0,1-1.19-.91,2.24,2.24,0,0,1-.43-1.38,2.15,2.15,0,0,1,.44-1.42,3.2,3.2,0,0,1,1-.85,1.51,1.51,0,0,1-.35-.44,1.12,1.12,0,0,1-.14-.59,1.37,1.37,0,0,1,.19-.73,2.53,2.53,0,0,1,.44-.58,3.08,3.08,0,0,1-.92-1,3.2,3.2,0,0,1,.09-3.11,3,3,0,0,1,1.18-1.07,3.28,3.28,0,0,1,1.59-.39,3.68,3.68,0,0,1,1.14.19,3,3,0,0,1,1,.53l1.7-.85.36,0,.17,1.41-1.53.19a2.63,2.63,0,0,1,.31.73,3.25,3.25,0,0,1,.1.85,2.93,2.93,0,0,1-.44,1.62,3,3,0,0,1-1.18,1,3.54,3.54,0,0,1-1.59.36h-.35A2.79,2.79,0,0,1,210,98l-.33.5,0,.3,1.77.43a7.05,7.05,0,0,1,1.41.48,2.43,2.43,0,0,1,.94.78,2,2,0,0,1,.33,1.2,2.69,2.69,0,0,1-.52,1.68,3.23,3.23,0,0,1-1.36,1A4.75,4.75,0,0,1,210.46,104.72Zm.23-1.53a3.32,3.32,0,0,0,1.06-.16,2.12,2.12,0,0,0,.81-.46.9.9,0,0,0,.33-.7.76.76,0,0,0-.29-.61,2.3,2.3,0,0,0-.77-.36c-.32-.09-.66-.17-1-.25s-.72-.16-1.07-.26a2.19,2.19,0,0,0-.82.59,1.3,1.3,0,0,0-.32.85,1.07,1.07,0,0,0,.28.72,1.86,1.86,0,0,0,.76.47A3,3,0,0,0,210.69,103.19Zm0-6.42a1.46,1.46,0,0,0,1.21-.53,2,2,0,0,0,.42-1.26,1.92,1.92,0,0,0-.42-1.26,1.45,1.45,0,0,0-1.21-.52,1.43,1.43,0,0,0-1.21.52,2,2,0,0,0-.41,1.26,2,2,0,0,0,.41,1.26A1.43,1.43,0,0,0,210.68,96.77Z" transform="translate(-0.5 -0.94)"/><path d="M221.27,104.81a3,3,0,0,1-.86-.16,2.6,2.6,0,0,1-.89-.52l.71-1.16.41.33a.88.88,0,0,0,.58.23.69.69,0,0,0,.46-.17,1.74,1.74,0,0,0,.33-.49c.09-.2.19-.42.28-.66l.41-1.12-2.76-8h-.59l-.14-1,2.06-.16,2.26,6.8,2-5.62h-.7l-.13-1,2-.14.32.6c-.11.27-.24.62-.39,1s-.31.89-.5,1.41-.38,1.06-.58,1.63-.4,1.15-.62,1.73-.42,1.14-.61,1.69-.38,1.06-.55,1.53-.33.88-.45,1.23a6.12,6.12,0,0,1-.6,1.12,2.28,2.28,0,0,1-.7.69A1.55,1.55,0,0,1,221.27,104.81Z" transform="translate(-0.5 -0.94)"/><path d="M231.38,100.24a3.28,3.28,0,0,1-1.86-.55,3.62,3.62,0,0,1-1.26-1.49,5,5,0,0,1-.45-2.16,4.7,4.7,0,0,1,.46-2.15,3.57,3.57,0,0,1,1.28-1.46,3.29,3.29,0,0,1,1.83-.52,3.33,3.33,0,0,1,1.9.53,3.66,3.66,0,0,1,1.26,1.46A4.85,4.85,0,0,1,235,96a5,5,0,0,1-.45,2.16,3.62,3.62,0,0,1-1.26,1.49A3.34,3.34,0,0,1,231.38,100.24Zm0-1.28a1.71,1.71,0,0,0,1.12-.36,2.1,2.1,0,0,0,.67-1,4.73,4.73,0,0,0,.22-1.47,5,5,0,0,0-.22-1.51,2.33,2.33,0,0,0-.67-1.06,1.63,1.63,0,0,0-1.12-.39,1.45,1.45,0,0,0-.86.25,2,2,0,0,0-.63.66,3.76,3.76,0,0,0-.37,1,5.24,5.24,0,0,0-.13,1.14,4.2,4.2,0,0,0,.23,1.45,2.13,2.13,0,0,0,.68,1A1.73,1.73,0,0,0,231.38,99Z" transform="translate(-0.5 -0.94)"/><path d="M239.49,100.24a3.31,3.31,0,0,1-1.32-.26,1.92,1.92,0,0,1-.92-.84,3,3,0,0,1-.34-1.54V93.25H236l-.17-1,2.1-.37.5.56v4.91a2.1,2.1,0,0,0,.13.82,1.16,1.16,0,0,0,.36.47,1,1,0,0,0,.48.22,2,2,0,0,0,.47,0,1.79,1.79,0,0,0,.92-.25,1.49,1.49,0,0,0,.61-.58V93.23l-.83,0-.17-1,2.06-.39.49.58v6.2a.35.35,0,0,0,.1.3.41.41,0,0,0,.24.08.41.41,0,0,0,.16,0,.28.28,0,0,1,.11,0l.22.76a1.75,1.75,0,0,1-.4.3,1.4,1.4,0,0,1-.74.18,1.28,1.28,0,0,1-.68-.18,1,1,0,0,1-.42-.57,2.57,2.57,0,0,1-1,.56A3.7,3.7,0,0,1,239.49,100.24Z" transform="translate(-0.5 -0.94)"/><path d="M252.55,100.24a3.29,3.29,0,0,1-1.87-.55,3.67,3.67,0,0,1-1.25-1.49A5,5,0,0,1,249,96a4.7,4.7,0,0,1,.46-2.15,3.55,3.55,0,0,1,1.27-1.46,3.57,3.57,0,0,1,3.73,0,3.66,3.66,0,0,1,1.26,1.46,4.85,4.85,0,0,1,.45,2.14,5,5,0,0,1-.45,2.16,3.62,3.62,0,0,1-1.26,1.49A3.33,3.33,0,0,1,252.55,100.24Zm0-1.28a1.73,1.73,0,0,0,1.12-.36,2.16,2.16,0,0,0,.66-1,4.45,4.45,0,0,0,.22-1.47,4.66,4.66,0,0,0-.22-1.51,2.41,2.41,0,0,0-.66-1.06,1.64,1.64,0,0,0-1.12-.39,1.51,1.51,0,0,0-.87.25,1.88,1.88,0,0,0-.62.66,3.44,3.44,0,0,0-.38,1,5.24,5.24,0,0,0-.12,1.14,4,4,0,0,0,.23,1.45,2.06,2.06,0,0,0,.68,1A1.73,1.73,0,0,0,252.55,99Z" transform="translate(-0.5 -0.94)"/><path d="M257.49,100.17l-.15-.9,1-.24V93.2l-.9,0-.17-1,2.11-.37.48.66a3.48,3.48,0,0,1,2-.65,3.05,3.05,0,0,1,1.32.27A2,2,0,0,1,264,93a2.48,2.48,0,0,1,.32,1.32v4.77l1,.19,0,.92h-3.42l0-.92.93-.2V94.58a1.39,1.39,0,0,0-.32-1,1.24,1.24,0,0,0-.93-.33,2.45,2.45,0,0,0-1,.21,3.52,3.52,0,0,0-.75.45V99l1,.24v.9Z" transform="translate(-0.5 -0.94)"/><path d="M271.89,104.81a3,3,0,0,1-.86-.16,2.6,2.6,0,0,1-.89-.52l.71-1.16.41.33a.92.92,0,0,0,.58.23.69.69,0,0,0,.46-.17,1.55,1.55,0,0,0,.33-.49,6.9,6.9,0,0,0,.28-.66l.41-1.12-2.75-8H270l-.14-1,2.06-.16,2.26,6.8,2-5.62h-.7l-.14-1,2-.14.33.6c-.12.27-.25.62-.4,1s-.31.89-.5,1.41-.38,1.06-.57,1.63-.41,1.15-.62,1.73-.42,1.14-.62,1.69-.37,1.06-.55,1.53-.33.88-.45,1.23a5.57,5.57,0,0,1-.6,1.12,2.26,2.26,0,0,1-.69.69A1.56,1.56,0,0,1,271.89,104.81Z" transform="translate(-0.5 -0.94)"/><path d="M282,100.24a3.24,3.24,0,0,1-1.86-.55,3.62,3.62,0,0,1-1.26-1.49,5,5,0,0,1-.45-2.16,4.7,4.7,0,0,1,.46-2.15,3.55,3.55,0,0,1,1.27-1.46,3.57,3.57,0,0,1,3.73,0,3.66,3.66,0,0,1,1.26,1.46,4.85,4.85,0,0,1,.45,2.14,5,5,0,0,1-.45,2.16,3.62,3.62,0,0,1-1.26,1.49A3.33,3.33,0,0,1,282,100.24ZM282,99a1.73,1.73,0,0,0,1.12-.36,2.16,2.16,0,0,0,.66-1,4.45,4.45,0,0,0,.22-1.47,4.66,4.66,0,0,0-.22-1.51,2.41,2.41,0,0,0-.66-1.06,1.64,1.64,0,0,0-1.12-.39,1.51,1.51,0,0,0-.87.25,1.88,1.88,0,0,0-.62.66,3.43,3.43,0,0,0-.37,1,4.69,4.69,0,0,0-.13,1.14,4,4,0,0,0,.23,1.45,2.06,2.06,0,0,0,.68,1A1.73,1.73,0,0,0,282,99Z" transform="translate(-0.5 -0.94)"/><path d="M290.12,100.24a3.27,3.27,0,0,1-1.32-.26,2,2,0,0,1-.93-.84,3,3,0,0,1-.34-1.54V93.25h-.9l-.17-1,2.11-.37.49.56v4.91a2.09,2.09,0,0,0,.14.82,1.23,1.23,0,0,0,.35.47,1,1,0,0,0,.48.22,2.06,2.06,0,0,0,.48,0,1.79,1.79,0,0,0,.91-.25,1.53,1.53,0,0,0,.62-.58V93.23l-.84,0-.17-1,2.06-.39.49.58v6.2a.35.35,0,0,0,.11.3.36.36,0,0,0,.23.08.41.41,0,0,0,.16,0l.12,0,.22.76a2,2,0,0,1-.4.3,1.42,1.42,0,0,1-.74.18,1.25,1.25,0,0,1-.68-.18,1,1,0,0,1-.43-.57,2.57,2.57,0,0,1-.95.56A3.58,3.58,0,0,1,290.12,100.24Z" transform="translate(-0.5 -0.94)"/><path d="M295.67,100.17l-.2-.92,1-.24V93.23l-.9,0-.15-1,2-.36.53.77a2.54,2.54,0,0,1,.83-.58,2.15,2.15,0,0,1,.89-.2,2.27,2.27,0,0,1,1.29.36,2.23,2.23,0,0,1,.8.93l-1.67.85-.54-.82a1.41,1.41,0,0,0-.61.18,1.74,1.74,0,0,0-.64.58,1.82,1.82,0,0,0-.28,1.08v3.72l2.23.46v.92Z" transform="translate(-0.5 -0.94)"/><path d="M123.58,120.57l-.14-.92,1-.22v-10h-.9l-.17-1,2.09-.33.53.58V116l2.6-2.6h-.8l-.15-1h2.67l.4.76-2.61,2.53,2,3.88.85.19v.9h-2.11l-1.88-3.83-.92.89v1.82l.88.2,0,.92Z" transform="translate(-0.5 -0.94)"/><path d="M131.94,120.57l-.15-.9,1-.24V113.6l-.9.05-.17-1,2.11-.37.47.66a3.38,3.38,0,0,1,.93-.47,3.43,3.43,0,0,1,1.1-.18,3,3,0,0,1,1.31.27,2,2,0,0,1,.9.78,2.48,2.48,0,0,1,.32,1.32v4.77l1,.19,0,.92h-3.42l0-.92.93-.2V115a1.43,1.43,0,0,0-.32-1,1.27,1.27,0,0,0-.94-.33,2.4,2.4,0,0,0-1,.21,3.52,3.52,0,0,0-.75.45v5.14l1,.24v.9Z" transform="translate(-0.5 -0.94)"/><path d="M144.32,120.64a3.16,3.16,0,0,1-1.86-.55,3.62,3.62,0,0,1-1.26-1.49,5,5,0,0,1-.45-2.16,4.7,4.7,0,0,1,.46-2.15,3.55,3.55,0,0,1,1.27-1.46,3.57,3.57,0,0,1,3.73,0,3.66,3.66,0,0,1,1.26,1.46,4.85,4.85,0,0,1,.45,2.14,5,5,0,0,1-.45,2.16,3.62,3.62,0,0,1-1.26,1.49A3.26,3.26,0,0,1,144.32,120.64Zm0-1.28a1.71,1.71,0,0,0,1.12-.36,2.09,2.09,0,0,0,.66-1,4.45,4.45,0,0,0,.22-1.47,4.66,4.66,0,0,0-.22-1.51,2.32,2.32,0,0,0-.66-1.06,1.63,1.63,0,0,0-1.12-.39,1.51,1.51,0,0,0-.87.25,1.88,1.88,0,0,0-.62.66,3.43,3.43,0,0,0-.37,1,4.69,4.69,0,0,0-.13,1.14,4.2,4.2,0,0,0,.23,1.45,2.06,2.06,0,0,0,.68,1A1.67,1.67,0,0,0,144.32,119.36Z" transform="translate(-0.5 -0.94)"/><path d="M150.86,120.57l-1.43-7.09h-.66l-.13-1,2.21-.14,1.25,6.55,1.75-6.1h1.64l1.75,6.1,1.29-5.39h-.68l-.15-1,2-.14.29.53-1.91,7.72h-2L154.53,115,153,120.57Z" transform="translate(-0.5 -0.94)"/><path d="M160.89,120.57l-.13-.9,1-.24v-10h-.9l-.17-1,2.07-.33.54.58v10.73l1.07.24v.9Z" transform="translate(-0.5 -0.94)"/><path d="M169.1,120.64a3.8,3.8,0,0,1-1.95-.5,3.51,3.51,0,0,1-1.34-1.41,4.59,4.59,0,0,1-.48-2.16,4.92,4.92,0,0,1,.49-2.28,3.65,3.65,0,0,1,1.34-1.46,3.47,3.47,0,0,1,1.84-.51,3.43,3.43,0,0,1,1.33.26,2.37,2.37,0,0,1,1,.76,2,2,0,0,1,.39,1.26,2.23,2.23,0,0,1-.37,1.34,2.5,2.5,0,0,1-1,.83,5,5,0,0,1-1.37.42,8.59,8.59,0,0,1-1.52.13H167a2.73,2.73,0,0,0,.69,1.46,2.15,2.15,0,0,0,1.66.58,2.79,2.79,0,0,0,1.16-.22,3.91,3.91,0,0,0,.86-.51l.32,1.19a2.29,2.29,0,0,1-.63.41,4.35,4.35,0,0,1-1.92.41Zm-2.16-4.53h.43a6.87,6.87,0,0,0,.88,0,4.22,4.22,0,0,0,.9-.19,1.82,1.82,0,0,0,.71-.44,1.11,1.11,0,0,0,.28-.79.92.92,0,0,0-.35-.8,1.32,1.32,0,0,0-.77-.24A1.63,1.63,0,0,0,168,114a2.35,2.35,0,0,0-.71.92A3.83,3.83,0,0,0,166.94,116.11Z" transform="translate(-0.5 -0.94)"/><path d="M176.26,120.64a2.9,2.9,0,0,1-1.78-.55,3.42,3.42,0,0,1-1.13-1.47,5.24,5.24,0,0,1-.39-2.05,5.76,5.76,0,0,1,.28-1.85,3.87,3.87,0,0,1,.78-1.33,3.12,3.12,0,0,1,1.14-.79,3.33,3.33,0,0,1,1.37-.28,3.12,3.12,0,0,1,.79.09,3.7,3.7,0,0,1,.64.2v-3.18l-1,0-.17-1,2.14-.34.51.58V119a.51.51,0,0,0,.09.32.35.35,0,0,0,.27.11.54.54,0,0,0,.22,0l.15,0,.26.78a2.71,2.71,0,0,1-.51.32,1.54,1.54,0,0,1-.72.18,1.17,1.17,0,0,1-.73-.21,1.29,1.29,0,0,1-.41-.49,2.11,2.11,0,0,1-.81.53A3.19,3.19,0,0,1,176.26,120.64Zm.24-1.28a1.73,1.73,0,0,0,.85-.23,1.4,1.4,0,0,0,.61-.62v-4.45a1.49,1.49,0,0,0-.57-.35,2,2,0,0,0-.74-.13,1.85,1.85,0,0,0-1.14.36,2.19,2.19,0,0,0-.72,1,4.46,4.46,0,0,0-.25,1.61,4.08,4.08,0,0,0,.22,1.38,2.37,2.37,0,0,0,.63,1A1.58,1.58,0,0,0,176.5,119.36Z" transform="translate(-0.5 -0.94)"/><path d="M184.57,125.12a4.11,4.11,0,0,1-1.67-.32,2.75,2.75,0,0,1-1.19-.91,2.24,2.24,0,0,1-.43-1.38,2.17,2.17,0,0,1,.44-1.42,3,3,0,0,1,1-.84,1.55,1.55,0,0,1-.36-.45,1.22,1.22,0,0,1-.13-.59,1.46,1.46,0,0,1,.18-.73,2.9,2.9,0,0,1,.45-.58,3.08,3.08,0,0,1-.92-1,3.2,3.2,0,0,1,.09-3.11,3,3,0,0,1,1.18-1.07,3.27,3.27,0,0,1,1.58-.39,3.59,3.59,0,0,1,1.14.19,2.94,2.94,0,0,1,1,.53l1.7-.85.36,0,.17,1.41-1.53.19a2.63,2.63,0,0,1,.31.73,3.74,3.74,0,0,1,.1.85,2.93,2.93,0,0,1-.44,1.62,3,3,0,0,1-1.18,1,3.58,3.58,0,0,1-1.6.36h-.34l-.34-.05-.32.49,0,.3,1.76.43a6.64,6.64,0,0,1,1.41.48,2.4,2.4,0,0,1,.95.78,2,2,0,0,1,.33,1.2,2.69,2.69,0,0,1-.52,1.68,3.23,3.23,0,0,1-1.36,1A4.77,4.77,0,0,1,184.57,125.12Zm.24-1.53a3.32,3.32,0,0,0,1.06-.16,2.07,2.07,0,0,0,.81-.46.89.89,0,0,0,.32-.7.7.7,0,0,0-.29-.6,2,2,0,0,0-.76-.37c-.32-.09-.66-.17-1-.25s-.72-.16-1.07-.26a2.23,2.23,0,0,0-.83.59,1.35,1.35,0,0,0-.31.85,1,1,0,0,0,.28.72,1.86,1.86,0,0,0,.76.47A2.93,2.93,0,0,0,184.81,123.59Zm0-6.42a1.46,1.46,0,0,0,1.22-.53,2,2,0,0,0,.42-1.26,1.92,1.92,0,0,0-.42-1.26,1.46,1.46,0,0,0-1.22-.52,1.42,1.42,0,0,0-1.2.52,2,2,0,0,0-.41,1.26,2,2,0,0,0,.41,1.26A1.43,1.43,0,0,0,184.79,117.17Z" transform="translate(-0.5 -0.94)"/><path d="M193.6,120.64a3.77,3.77,0,0,1-1.95-.5,3.44,3.44,0,0,1-1.34-1.41,4.59,4.59,0,0,1-.48-2.16,4.92,4.92,0,0,1,.49-2.28,3.63,3.63,0,0,1,1.33-1.46,3.51,3.51,0,0,1,1.85-.51,3.38,3.38,0,0,1,1.32.26,2.4,2.4,0,0,1,1,.76,2,2,0,0,1,.39,1.26,2.24,2.24,0,0,1-.38,1.34,2.47,2.47,0,0,1-1,.83,5,5,0,0,1-1.38.42,8.47,8.47,0,0,1-1.51.13h-.49a2.73,2.73,0,0,0,.69,1.46,2.12,2.12,0,0,0,1.65.58,2.84,2.84,0,0,0,1.17-.22,4.16,4.16,0,0,0,.86-.51l.32,1.19a2.64,2.64,0,0,1-.63.41,4.92,4.92,0,0,1-.87.3A5,5,0,0,1,193.6,120.64Zm-2.16-4.53h.43a7,7,0,0,0,.88,0,4.22,4.22,0,0,0,.9-.19,1.9,1.9,0,0,0,.71-.44,1.15,1.15,0,0,0,.28-.79.92.92,0,0,0-.35-.8,1.33,1.33,0,0,0-.78-.24,1.65,1.65,0,0,0-1.06.35,2.33,2.33,0,0,0-.7.92A3.83,3.83,0,0,0,191.44,116.11Z" transform="translate(-0.5 -0.94)"/><path d="M205.09,120.64a3.21,3.21,0,0,1-1.86-.55A3.62,3.62,0,0,1,202,118.6a5,5,0,0,1-.45-2.16,4.83,4.83,0,0,1,.46-2.15,3.57,3.57,0,0,1,1.28-1.46,3.29,3.29,0,0,1,1.83-.52,3.33,3.33,0,0,1,1.9.53,3.66,3.66,0,0,1,1.26,1.46,4.85,4.85,0,0,1,.45,2.14,5,5,0,0,1-.45,2.16,3.62,3.62,0,0,1-1.26,1.49A3.27,3.27,0,0,1,205.09,120.64Zm0-1.28a1.71,1.71,0,0,0,1.12-.36,2.1,2.1,0,0,0,.67-1,4.73,4.73,0,0,0,.22-1.47,5,5,0,0,0-.22-1.51,2.33,2.33,0,0,0-.67-1.06,1.63,1.63,0,0,0-1.12-.39,1.45,1.45,0,0,0-.86.25,2,2,0,0,0-.63.66,3.76,3.76,0,0,0-.37,1,5.24,5.24,0,0,0-.13,1.14,4.2,4.2,0,0,0,.23,1.45,2.13,2.13,0,0,0,.68,1A1.67,1.67,0,0,0,205.09,119.36Z" transform="translate(-0.5 -0.94)"/><path d="M210.16,120.57l-.19-.9,1-.24v-5.87H209.8l-.25-1,.12-.19H211v-1.44a3.55,3.55,0,0,1,.29-1.52,2,2,0,0,1,.84-.9,2.49,2.49,0,0,1,1.25-.3,3.3,3.3,0,0,1,.73.09,2.86,2.86,0,0,1,.78.32,3.21,3.21,0,0,1,.73.57l-1.36,1.16-.83-.87h-.21a.58.58,0,0,0-.55.28,1.53,1.53,0,0,0-.14.66v1.95h1.9c.06,0,.09,0,.09.11v1.13h-2v5.87l1.75.22v.92Z" transform="translate(-0.5 -0.94)"/><path d="M219.92,120.57l-.19-.9,1-.24v-5.87h-1.14l-.26-1,.12-.19h1.29v-1.44a3.4,3.4,0,0,1,.3-1.52,2,2,0,0,1,.84-.9,2.47,2.47,0,0,1,1.24-.3,3.32,3.32,0,0,1,.74.09,2.86,2.86,0,0,1,.78.32,3.21,3.21,0,0,1,.73.57L224,110.3l-.83-.87h-.21a.58.58,0,0,0-.55.28,1.39,1.39,0,0,0-.14.66v1.95h1.9c.06,0,.08,0,.08.11v1.13h-2v5.87l1.75.22v.92Z" transform="translate(-0.5 -0.94)"/><path d="M227.77,120.64a2.94,2.94,0,0,1-1.28-.28,2.1,2.1,0,0,1-1.22-2,2,2,0,0,1,.42-1.33,2.88,2.88,0,0,1,1.09-.83,5.6,5.6,0,0,1,1.41-.42,10.52,10.52,0,0,1,1.4-.14v-1.2a.75.75,0,0,0-.34-.63,1.67,1.67,0,0,0-1-.24l-.45,0a1.28,1.28,0,0,0-.4.11l-.36,1.08-1.73-.57a2.72,2.72,0,0,1,1.16-1.4,3.46,3.46,0,0,1,1.85-.52,3.6,3.6,0,0,1,1.45.28,2.25,2.25,0,0,1,1,.85,2.65,2.65,0,0,1,.36,1.44V119a.51.51,0,0,0,.08.32.32.32,0,0,0,.26.11l.17,0a.47.47,0,0,1,.15,0l.24.78a2.19,2.19,0,0,1-.45.3,1.53,1.53,0,0,1-.69.16,1.18,1.18,0,0,1-.76-.22,1.12,1.12,0,0,1-.4-.57,2.93,2.93,0,0,1-.86.57A2.65,2.65,0,0,1,227.77,120.64Zm.25-1.3a1.84,1.84,0,0,0,1.57-.86v-1.63c-.25,0-.53,0-.84.07a4.53,4.53,0,0,0-.9.21,1.62,1.62,0,0,0-.71.42,1,1,0,0,0-.27.74,1.05,1.05,0,0,0,.3.75A1.18,1.18,0,0,0,228,119.34Z" transform="translate(-0.5 -0.94)"/><path d="M233,120.57l-.14-.9,1-.24v-10h-.9l-.17-1,2.07-.33.55.58v10.73l1.07.24v.9Z" transform="translate(-0.5 -0.94)"/><path d="M237.39,120.57l-.13-.9,1-.24v-10h-.9l-.17-1,2.07-.33.54.58v10.73l1.07.24v.9Z" transform="translate(-0.5 -0.94)"/><path d="M244.38,120.64a3,3,0,0,1-1.29-.28,2.11,2.11,0,0,1-1.21-2,2,2,0,0,1,.42-1.33,2.92,2.92,0,0,1,1.08-.83,5.68,5.68,0,0,1,1.42-.42,10.52,10.52,0,0,1,1.4-.14v-1.2a.78.78,0,0,0-.34-.63,1.67,1.67,0,0,0-1-.24l-.45,0a1.2,1.2,0,0,0-.4.11l-.36,1.08-1.73-.57a2.75,2.75,0,0,1,1.15-1.4,3.52,3.52,0,0,1,1.86-.52,3.6,3.6,0,0,1,1.45.28,2.25,2.25,0,0,1,1,.85,2.74,2.74,0,0,1,.35,1.44V119a.51.51,0,0,0,.09.32.31.31,0,0,0,.25.11l.18,0a.47.47,0,0,1,.15,0l.24.78a2,2,0,0,1-.46.3,1.45,1.45,0,0,1-.68.16,1.18,1.18,0,0,1-.76-.22,1.12,1.12,0,0,1-.4-.57,2.85,2.85,0,0,1-.87.57A2.6,2.6,0,0,1,244.38,120.64Zm.25-1.3a1.79,1.79,0,0,0,.94-.25,1.76,1.76,0,0,0,.63-.61v-1.63c-.25,0-.53,0-.84.07a4.23,4.23,0,0,0-.9.21,1.62,1.62,0,0,0-.71.42,1,1,0,0,0-.27.74,1.05,1.05,0,0,0,.3.75A1.18,1.18,0,0,0,244.63,119.34Z" transform="translate(-0.5 -0.94)"/><path d="M253.2,120.64a3.77,3.77,0,0,1-1.44-.28,3.25,3.25,0,0,1-1.13-.82,3.55,3.55,0,0,1-.75-1.28,4.76,4.76,0,0,1-.27-1.65,5.75,5.75,0,0,1,.27-1.84,3.57,3.57,0,0,1,.75-1.34,3.28,3.28,0,0,1,1.13-.83,3.84,3.84,0,0,1,1.46-.28,3.63,3.63,0,0,1,1,.12,3.25,3.25,0,0,1,1.26.66l.3.28-1.36,1.14-.88-.9-.38,0A1.56,1.56,0,0,0,252,114a2.52,2.52,0,0,0-.62,1.1,5.26,5.26,0,0,0-.19,1.46,4.24,4.24,0,0,0,.21,1.35,2.14,2.14,0,0,0,.71,1,2.11,2.11,0,0,0,1.35.4,2.41,2.41,0,0,0,.74-.1,3.27,3.27,0,0,0,.6-.25c.17-.09.33-.19.47-.28l.37,1.14a2.9,2.9,0,0,1-1.1.58A4.89,4.89,0,0,1,253.2,120.64Z" transform="translate(-0.5 -0.94)"/><path d="M256.84,120.57l-.17-.9,1-.24v-5.78l-.91,0-.17-1,2.09-.37.52.56v6.56l1,.22v.92Zm1.36-10.29a1,1,0,0,1-.75-.3,1.05,1.05,0,0,1-.3-.75,1,1,0,0,1,1.05-1,1.05,1.05,0,0,1,.75.3,1,1,0,0,1,.3.75,1,1,0,0,1-1.05,1Z" transform="translate(-0.5 -0.94)"/><path d="M264.93,120.64a3.77,3.77,0,0,1-1.95-.5,3.44,3.44,0,0,1-1.34-1.41,4.59,4.59,0,0,1-.48-2.16,4.92,4.92,0,0,1,.49-2.28,3.63,3.63,0,0,1,1.33-1.46,3.53,3.53,0,0,1,1.85-.51,3.47,3.47,0,0,1,1.33.26,2.43,2.43,0,0,1,1,.76,2,2,0,0,1,.39,1.26,2.24,2.24,0,0,1-.38,1.34,2.41,2.41,0,0,1-1,.83,5,5,0,0,1-1.38.42,8.4,8.4,0,0,1-1.51.13h-.49a2.73,2.73,0,0,0,.69,1.46,2.12,2.12,0,0,0,1.65.58,2.84,2.84,0,0,0,1.17-.22,4.16,4.16,0,0,0,.86-.51l.32,1.19a2.64,2.64,0,0,1-.63.41,4.92,4.92,0,0,1-.87.3A5,5,0,0,1,264.93,120.64Zm-2.16-4.53h.43a7,7,0,0,0,.88,0,4.22,4.22,0,0,0,.9-.19,1.9,1.9,0,0,0,.71-.44,1.15,1.15,0,0,0,.28-.79.92.92,0,0,0-.35-.8,1.32,1.32,0,0,0-.77-.24,1.66,1.66,0,0,0-1.07.35,2.33,2.33,0,0,0-.7.92A3.83,3.83,0,0,0,262.77,116.11Z" transform="translate(-0.5 -0.94)"/><path d="M271.53,120.64a3.33,3.33,0,0,1-1.38-.28,3.24,3.24,0,0,1-1.56-1.51l1.73-.66.41,1,.32.1a3,3,0,0,0,.58,0,1.4,1.4,0,0,0,.51-.1,1.16,1.16,0,0,0,.47-.32.83.83,0,0,0,.19-.56.81.81,0,0,0-.24-.62,2,2,0,0,0-.62-.41,7.47,7.47,0,0,0-.87-.35,4.18,4.18,0,0,1-1.58-1,1.88,1.88,0,0,1-.55-1.37,2.06,2.06,0,0,1,.38-1.22,2.64,2.64,0,0,1,1-.83,3.47,3.47,0,0,1,2.73,0,3.14,3.14,0,0,1,.93.65,2.59,2.59,0,0,1,.51.74l-1.72.68-.39-.86a.62.62,0,0,0-.23-.13,1.38,1.38,0,0,0-.52-.08,1.43,1.43,0,0,0-.5.09,1.12,1.12,0,0,0-.41.3.82.82,0,0,0-.16.53.68.68,0,0,0,.25.54,2.41,2.41,0,0,0,.69.42l1.07.45a3.55,3.55,0,0,1,1.33.88,2,2,0,0,1,.49,1.4,2.18,2.18,0,0,1-.41,1.34,2.64,2.64,0,0,1-1.06.83A3.53,3.53,0,0,1,271.53,120.64Z" transform="translate(-0.5 -0.94)"/><path d="M276.66,116.54l-.47-7.48,1.88-.22.36.64-.63,7.06Zm.6,4.08a1,1,0,0,1-.73-.29.94.94,0,0,1-.29-.71.91.91,0,0,1,.29-.7,1,1,0,0,1,.73-.29.94.94,0,0,1,.69.29.91.91,0,0,1,.29.7,1,1,0,0,1-1,1Z" transform="translate(-0.5 -0.94)"/><path d="M140.31,161.44a6.39,6.39,0,0,1-2.26-.4,5.19,5.19,0,0,1-1.8-1.17,5.48,5.48,0,0,1-1.2-1.85,7,7,0,0,1,0-4.87,5.67,5.67,0,0,1,1.23-1.89,5.28,5.28,0,0,1,1.81-1.21,5.51,5.51,0,0,1,2.18-.43,8.4,8.4,0,0,1,1.43.11l1,.2L143,153h-1.18l-.68-1.89-.28,0-.5,0a3.84,3.84,0,0,0-2.09.58,4,4,0,0,0-1.41,1.57,5,5,0,0,0-.54,2.22,5.44,5.44,0,0,0,.51,2.31,4,4,0,0,0,1.38,1.62,3.71,3.71,0,0,0,2.12.59,4.05,4.05,0,0,0,1.27-.2,3.14,3.14,0,0,0,1.09-.58l.58,1.26a3.29,3.29,0,0,1-.78.51,5.39,5.39,0,0,1-1,.35A5.55,5.55,0,0,1,140.31,161.44Z" transform="translate(-0.5 -0.94)"/><path d="M144.29,161.37l-.13-.9,1-.24v-10h-.91l-.17-1,2.08-.33.54.58v10.73l1.07.24v.9Z" transform="translate(-0.5 -0.94)"/><path d="M149,161.37l-.17-.9,1-.24v-5.78l-.91,0-.17-1,2.1-.37.51.56v6.56l1,.22v.92Zm1.36-10.29a1,1,0,0,1-.75-.3,1.05,1.05,0,0,1-.3-.75,1,1,0,0,1,1.05-1.05,1.05,1.05,0,0,1,.75.3,1,1,0,0,1,.3.75,1,1,0,0,1-1.05,1.05Z" transform="translate(-0.5 -0.94)"/><path d="M156.87,161.44a3.68,3.68,0,0,1-1.43-.28,3.2,3.2,0,0,1-1.14-.82,3.55,3.55,0,0,1-.75-1.28,4.76,4.76,0,0,1-.27-1.65,5.75,5.75,0,0,1,.27-1.84,3.57,3.57,0,0,1,.75-1.34,3.22,3.22,0,0,1,1.14-.83,3.75,3.75,0,0,1,1.45-.28,3.63,3.63,0,0,1,1,.12,3.25,3.25,0,0,1,1.26.66l.3.28-1.36,1.14-.88-.9-.38,0a1.56,1.56,0,0,0-1.12.41,2.52,2.52,0,0,0-.62,1.1,5.26,5.26,0,0,0-.19,1.46,4.24,4.24,0,0,0,.21,1.35,2.14,2.14,0,0,0,.71,1,2.11,2.11,0,0,0,1.35.4,2.41,2.41,0,0,0,.74-.1,3.27,3.27,0,0,0,.6-.25c.17-.09.33-.19.47-.28l.37,1.14a3,3,0,0,1-1.1.58A4.89,4.89,0,0,1,156.87,161.44Z" transform="translate(-0.5 -0.94)"/><path d="M160.34,161.37l-.14-.92,1-.22v-10h-.9l-.17-1,2.09-.33.53.58v7.26l2.6-2.6h-.8l-.15-1H167l.41.76-2.62,2.53,1.95,3.88.85.19v.9h-2.11l-1.88-3.83-.92.89v1.82l.88.2v.92Z" transform="translate(-0.5 -0.94)"/><path d="M173.6,161.4l-.39-.22v-11l-1,.05-.15-1,2.14-.32.51.55v4.13a2.39,2.39,0,0,1,.75-.37,3.35,3.35,0,0,1,.92-.13,3.06,3.06,0,0,1,1.82.53,3.17,3.17,0,0,1,1.12,1.44,5.35,5.35,0,0,1,.39,2.1,5.52,5.52,0,0,1-.27,1.79,3.78,3.78,0,0,1-.74,1.34,3.2,3.2,0,0,1-1.16.84,4,4,0,0,1-2.4.17,3.36,3.36,0,0,1-.82-.3Zm2.48-1.24a1.77,1.77,0,0,0,1.16-.37,2.38,2.38,0,0,0,.69-1,4.55,4.55,0,0,0,.23-1.48,4.71,4.71,0,0,0-.22-1.46,2.31,2.31,0,0,0-.65-1,1.69,1.69,0,0,0-1.12-.38,2.14,2.14,0,0,0-.82.16,1.42,1.42,0,0,0-.61.43v4.78a1.56,1.56,0,0,0,.62.3A3,3,0,0,0,176.08,160.16Z" transform="translate(-0.5 -0.94)"/><path d="M184.75,161.44a3.77,3.77,0,0,1-1.95-.5,3.51,3.51,0,0,1-1.34-1.41,4.59,4.59,0,0,1-.48-2.16,4.92,4.92,0,0,1,.49-2.28,3.63,3.63,0,0,1,1.33-1.46,3.53,3.53,0,0,1,1.85-.51,3.47,3.47,0,0,1,1.33.26,2.43,2.43,0,0,1,1,.76,2,2,0,0,1,.39,1.26,2.23,2.23,0,0,1-.37,1.34,2.5,2.5,0,0,1-1,.83,5.08,5.08,0,0,1-1.37.42,8.59,8.59,0,0,1-1.52.13h-.49a2.73,2.73,0,0,0,.69,1.46,2.15,2.15,0,0,0,1.66.58,2.79,2.79,0,0,0,1.16-.22,4.16,4.16,0,0,0,.86-.51l.32,1.19a2.64,2.64,0,0,1-.63.41,4.92,4.92,0,0,1-.87.3A5,5,0,0,1,184.75,161.44Zm-2.16-4.53H183a7,7,0,0,0,.88,0,4.22,4.22,0,0,0,.9-.19,1.82,1.82,0,0,0,.71-.44,1.11,1.11,0,0,0,.28-.79.92.92,0,0,0-.35-.8,1.32,1.32,0,0,0-.77-.24,1.66,1.66,0,0,0-1.07.35,2.33,2.33,0,0,0-.7.92A3.77,3.77,0,0,0,182.59,156.91Z" transform="translate(-0.5 -0.94)"/><path d="M191.65,165.92a4.11,4.11,0,0,1-1.67-.32,2.75,2.75,0,0,1-1.19-.91,2.24,2.24,0,0,1-.43-1.38,2.15,2.15,0,0,1,.44-1.42,3.2,3.2,0,0,1,1-.85,1.39,1.39,0,0,1-.36-.44,1.22,1.22,0,0,1-.13-.59,1.37,1.37,0,0,1,.19-.73,2.53,2.53,0,0,1,.44-.58,3.08,3.08,0,0,1-.92-1,3.2,3.2,0,0,1,.09-3.11,3,3,0,0,1,1.18-1.07,3.28,3.28,0,0,1,1.59-.39,3.57,3.57,0,0,1,1.13.19,2.94,2.94,0,0,1,1,.53l1.7-.85.36,0,.17,1.41-1.53.19a2.63,2.63,0,0,1,.31.73,3.74,3.74,0,0,1,.1.85,2.93,2.93,0,0,1-.44,1.62,3,3,0,0,1-1.18,1,3.54,3.54,0,0,1-1.59.36h-.35a3.43,3.43,0,0,1-.34-.06l-.32.5,0,.3,1.76.43a6.64,6.64,0,0,1,1.41.48,2.4,2.4,0,0,1,.95.78,2,2,0,0,1,.33,1.2,2.69,2.69,0,0,1-.52,1.68,3.23,3.23,0,0,1-1.36,1A4.77,4.77,0,0,1,191.65,165.92Zm.24-1.53a3.32,3.32,0,0,0,1.06-.16,2.2,2.2,0,0,0,.81-.46.89.89,0,0,0,.32-.7.75.75,0,0,0-.28-.61,2.3,2.3,0,0,0-.77-.36c-.32-.09-.66-.17-1-.25s-.72-.16-1.07-.26a2.19,2.19,0,0,0-.82.59,1.3,1.3,0,0,0-.32.85,1,1,0,0,0,.28.72,1.86,1.86,0,0,0,.76.47A3,3,0,0,0,191.89,164.39Zm0-6.42a1.46,1.46,0,0,0,1.21-.53,2,2,0,0,0,.42-1.26,1.92,1.92,0,0,0-.42-1.26,1.45,1.45,0,0,0-1.21-.52,1.43,1.43,0,0,0-1.21.52,2,2,0,0,0-.41,1.26,2,2,0,0,0,.41,1.26A1.43,1.43,0,0,0,191.88,158Z" transform="translate(-0.5 -0.94)"/><path d="M197.06,161.37l-.17-.9,1-.24v-5.78l-.91,0-.17-1,2.1-.37.51.56v6.56l1,.22v.92Zm1.36-10.29a1,1,0,0,1-.75-.3,1.05,1.05,0,0,1-.3-.75,1,1,0,0,1,1-1.05,1.05,1.05,0,0,1,.75.3,1,1,0,0,1,.3.75,1,1,0,0,1-1.05,1.05Z" transform="translate(-0.5 -0.94)"/><path d="M201.62,161.37l-.16-.9,1-.24V154.4l-.91,0-.17-1,2.11-.37.48.66a3.48,3.48,0,0,1,2-.65,3.05,3.05,0,0,1,1.32.27,1.93,1.93,0,0,1,.89.78,2.39,2.39,0,0,1,.32,1.32v4.77l1,.19,0,.92H206l0-.92.94-.2v-4.47a1.39,1.39,0,0,0-.33-1,1.23,1.23,0,0,0-.93-.33,2.45,2.45,0,0,0-1,.21,4.11,4.11,0,0,0-.75.45v5.14l1,.24v.9Z" transform="translate(-0.5 -0.94)"/><path d="M217.37,161.44a1.94,1.94,0,0,1-1-.23,1.61,1.61,0,0,1-.64-.7,2.61,2.61,0,0,1-.24-1.2l0-5h-1.32l-.24-1,.12-.19h1.46l0-2.85L217,150l.12.22v2.94h1.75c.06,0,.09,0,.09.11v1.12h-1.86v5a.86.86,0,0,0,.17.64.75.75,0,0,0,.5.15,1.3,1.3,0,0,0,.64-.18,3.75,3.75,0,0,0,.46-.28l.34,1.1a2.57,2.57,0,0,1-.67.44A2.62,2.62,0,0,1,217.37,161.44Z" transform="translate(-0.5 -0.94)"/><path d="M223.6,161.44a3.29,3.29,0,0,1-1.87-.55,3.67,3.67,0,0,1-1.25-1.49,5,5,0,0,1-.45-2.16,4.7,4.7,0,0,1,.46-2.15,3.55,3.55,0,0,1,1.27-1.46,3.57,3.57,0,0,1,3.73,0,3.66,3.66,0,0,1,1.26,1.46,4.85,4.85,0,0,1,.45,2.14,5,5,0,0,1-.45,2.16,3.62,3.62,0,0,1-1.26,1.49A3.33,3.33,0,0,1,223.6,161.44Zm0-1.28a1.73,1.73,0,0,0,1.12-.36,2.16,2.16,0,0,0,.66-1,4.45,4.45,0,0,0,.22-1.47,4.66,4.66,0,0,0-.22-1.51,2.41,2.41,0,0,0-.66-1.06,1.64,1.64,0,0,0-1.12-.39,1.51,1.51,0,0,0-.87.25,1.88,1.88,0,0,0-.62.66,3.44,3.44,0,0,0-.38,1,5.24,5.24,0,0,0-.12,1.14,4,4,0,0,0,.23,1.45,2.06,2.06,0,0,0,.68,1A1.73,1.73,0,0,0,223.6,160.16Z" transform="translate(-0.5 -0.94)"/><path d="M235.26,161.44a3.18,3.18,0,0,1-2.37-1,3.18,3.18,0,0,1-.57-.81l1.73-.66.41,1,.32.09a2.29,2.29,0,0,0,.58.06,1.4,1.4,0,0,0,.51-.1,1.16,1.16,0,0,0,.47-.32.83.83,0,0,0,.19-.56.81.81,0,0,0-.24-.62,2,2,0,0,0-.62-.41,7.47,7.47,0,0,0-.87-.35,4.18,4.18,0,0,1-1.58-1,1.88,1.88,0,0,1-.55-1.37,2.06,2.06,0,0,1,.38-1.22,2.64,2.64,0,0,1,1-.83,3.47,3.47,0,0,1,2.73,0,3.14,3.14,0,0,1,.93.65,2.59,2.59,0,0,1,.51.74l-1.72.68-.39-.87a.88.88,0,0,0-.23-.12,1.38,1.38,0,0,0-.52-.08,1.43,1.43,0,0,0-.5.09,1.12,1.12,0,0,0-.41.3.88.88,0,0,0-.16.53.68.68,0,0,0,.25.54,2.56,2.56,0,0,0,.69.42l1.07.45a3.55,3.55,0,0,1,1.33.88,2,2,0,0,1,.49,1.4,2.18,2.18,0,0,1-.41,1.34,2.58,2.58,0,0,1-1.06.83A3.49,3.49,0,0,1,235.26,161.44Z" transform="translate(-0.5 -0.94)"/><path d="M242.21,161.44a1.94,1.94,0,0,1-1-.23,1.7,1.7,0,0,1-.65-.7,2.62,2.62,0,0,1-.23-1.2l0-5h-1.33l-.24-1,.12-.19h1.47l0-2.85,1.36-.31.12.22v2.94h1.75c.06,0,.08,0,.08.11v1.12h-1.85v5a.86.86,0,0,0,.17.64.74.74,0,0,0,.49.15,1.3,1.3,0,0,0,.65-.18,3.75,3.75,0,0,0,.46-.28l.34,1.1a2.75,2.75,0,0,1-.67.44A2.65,2.65,0,0,1,242.21,161.44Z" transform="translate(-0.5 -0.94)"/><path d="M247.34,161.44a3,3,0,0,1-1.28-.28,2.11,2.11,0,0,1-1.21-2,2,2,0,0,1,.41-1.33,3,3,0,0,1,1.09-.83,5.68,5.68,0,0,1,1.42-.42,10.38,10.38,0,0,1,1.39-.14v-1.2a.75.75,0,0,0-.34-.63,1.65,1.65,0,0,0-1-.24l-.45,0a1.36,1.36,0,0,0-.4.11l-.35,1.08-1.74-.57a2.77,2.77,0,0,1,1.16-1.4,3.46,3.46,0,0,1,1.85-.52,3.65,3.65,0,0,1,1.46.28,2.17,2.17,0,0,1,1,.85,2.65,2.65,0,0,1,.36,1.44v4.13a.51.51,0,0,0,.09.32.3.3,0,0,0,.25.11.57.57,0,0,0,.18,0,.42.42,0,0,1,.14,0l.24.78a1.74,1.74,0,0,1-.45.3,1.53,1.53,0,0,1-.69.16,1.16,1.16,0,0,1-.75-.22,1.12,1.12,0,0,1-.4-.57,2.85,2.85,0,0,1-.87.57A2.65,2.65,0,0,1,247.34,161.44Zm.26-1.3a1.81,1.81,0,0,0,.94-.25,1.65,1.65,0,0,0,.62-.61v-1.63c-.24,0-.53,0-.84.07a4.53,4.53,0,0,0-.9.21,1.58,1.58,0,0,0-.7.42,1,1,0,0,0-.28.74,1.06,1.06,0,0,0,.31.75A1.16,1.16,0,0,0,247.6,160.14Z" transform="translate(-0.5 -0.94)"/><path d="M252.75,161.37l-.2-.92,1-.24v-5.78l-.9,0-.16-1,2-.36.53.77a2.61,2.61,0,0,1,.82-.58,2.16,2.16,0,0,1,.9-.2,2.32,2.32,0,0,1,1.29.36,2.23,2.23,0,0,1,.8.93l-1.67.85-.54-.82a1.45,1.45,0,0,0-.62.18,1.72,1.72,0,0,0-.63.58,1.84,1.84,0,0,0-.28,1.08V160l2.22.46,0,.92Z" transform="translate(-0.5 -0.94)"/><path d="M262.34,161.44a1.94,1.94,0,0,1-.95-.23,1.64,1.64,0,0,1-.65-.7,2.61,2.61,0,0,1-.24-1.2l0-5h-1.33l-.24-1,.12-.19h1.46l0-2.85L262,150l.12.22v2.94h1.75c.05,0,.08,0,.08.11v1.12h-1.85v5a.86.86,0,0,0,.17.64.72.72,0,0,0,.49.15,1.33,1.33,0,0,0,.65-.18,4.76,4.76,0,0,0,.46-.28l.34,1.1a2.75,2.75,0,0,1-.67.44A2.68,2.68,0,0,1,262.34,161.44Z" transform="translate(-0.5 -0.94)"/><path d="M156.68,186.41a2.68,2.68,0,0,1-.86-.16,2.6,2.6,0,0,1-.89-.52l.71-1.16.41.34a.92.92,0,0,0,.58.22.6.6,0,0,0,.45-.17,1.57,1.57,0,0,0,.34-.49c.09-.2.19-.42.28-.66l.4-1.12-2.75-8h-.59l-.14-1,2.06-.16,2.26,6.8,2-5.62h-.7l-.13-1,2-.14.32.6c-.11.27-.24.62-.39,1s-.31.88-.5,1.4-.38,1.06-.58,1.63-.41,1.15-.62,1.73-.42,1.14-.61,1.69-.38,1.06-.56,1.53l-.45,1.23a5.81,5.81,0,0,1-.59,1.12,2.4,2.4,0,0,1-.7.69A1.55,1.55,0,0,1,156.68,186.41Z" transform="translate(-0.5 -0.94)"/><path d="M166.79,181.84a3.21,3.21,0,0,1-1.86-.55,3.62,3.62,0,0,1-1.26-1.49,5,5,0,0,1-.45-2.16,4.7,4.7,0,0,1,.46-2.15A3.57,3.57,0,0,1,165,174a3.29,3.29,0,0,1,1.83-.52,3.33,3.33,0,0,1,1.9.53A3.74,3.74,0,0,1,170,175.5a4.85,4.85,0,0,1,.45,2.14,5,5,0,0,1-.45,2.16,3.69,3.69,0,0,1-1.26,1.49A3.27,3.27,0,0,1,166.79,181.84Zm0-1.28a1.69,1.69,0,0,0,1.12-.36,2.1,2.1,0,0,0,.67-1,4.69,4.69,0,0,0,.22-1.47,5,5,0,0,0-.22-1.51,2.33,2.33,0,0,0-.67-1.06,1.61,1.61,0,0,0-1.12-.39,1.51,1.51,0,0,0-.87.25,2,2,0,0,0-.62.66,3.43,3.43,0,0,0-.37,1,4.69,4.69,0,0,0-.13,1.14,4.2,4.2,0,0,0,.23,1.45,2.13,2.13,0,0,0,.68,1A1.67,1.67,0,0,0,166.79,180.56Z" transform="translate(-0.5 -0.94)"/><path d="M174.9,181.84a3.27,3.27,0,0,1-1.32-.26,1.92,1.92,0,0,1-.92-.84,3,3,0,0,1-.34-1.54v-4.35h-.9l-.17-1,2.1-.37.5.56V179a2.1,2.1,0,0,0,.13.82,1.16,1.16,0,0,0,.36.47,1,1,0,0,0,.48.22,2,2,0,0,0,.47,0,1.82,1.82,0,0,0,.92-.25,1.49,1.49,0,0,0,.61-.58v-4.88l-.83,0-.17-1,2.06-.39.49.58v6.2a.35.35,0,0,0,.1.3.41.41,0,0,0,.24.08.45.45,0,0,0,.16,0,.28.28,0,0,1,.11,0l.22.76a1.75,1.75,0,0,1-.4.3,1.4,1.4,0,0,1-.74.18,1.28,1.28,0,0,1-.68-.18,1,1,0,0,1-.42-.57,2.45,2.45,0,0,1-1,.56A3.7,3.7,0,0,1,174.9,181.84Z" transform="translate(-0.5 -0.94)"/><path d="M180.46,181.77l-.21-.92,1-.24v-5.78l-.91,0-.15-1,2-.36.53.77a2.5,2.5,0,0,1,.82-.58,2.15,2.15,0,0,1,.89-.2,2.33,2.33,0,0,1,1.3.36,2.14,2.14,0,0,1,.79.93l-1.66.85-.55-.82a1.45,1.45,0,0,0-.61.18,1.72,1.72,0,0,0-.63.58,1.84,1.84,0,0,0-.29,1.08v3.72l2.23.46,0,.92Z" transform="translate(-0.5 -0.94)"/><path d="M191.75,186.38a2,2,0,0,1-.89-.2,3,3,0,0,1-.63-.4l.73-1.12a2,2,0,0,0,.29.22.75.75,0,0,0,.41.12.37.37,0,0,0,.41-.29,3.44,3.44,0,0,0,.07-.7v-9.16l-1,0-.15-1,2.21-.37.51.56v10a3.44,3.44,0,0,1-.16,1.09,1.85,1.85,0,0,1-.43.7,1.75,1.75,0,0,1-.61.38A2.18,2.18,0,0,1,191.75,186.38Zm.86-14.9a1,1,0,0,1-.73-.3,1.05,1.05,0,0,1-.3-.75,1,1,0,0,1,.3-.75,1,1,0,0,1,.73-.3,1.06,1.06,0,0,1,.76.3,1,1,0,0,1,.31.75,1,1,0,0,1-.31.75A1.06,1.06,0,0,1,192.61,171.48Z" transform="translate(-0.5 -0.94)"/><path d="M199,181.84a3.21,3.21,0,0,1-1.86-.55,3.62,3.62,0,0,1-1.26-1.49,5,5,0,0,1-.45-2.16,4.83,4.83,0,0,1,.46-2.15,3.57,3.57,0,0,1,1.28-1.46,3.29,3.29,0,0,1,1.83-.52,3.33,3.33,0,0,1,1.9.53,3.66,3.66,0,0,1,1.26,1.46,4.85,4.85,0,0,1,.45,2.14,5,5,0,0,1-.45,2.16,3.62,3.62,0,0,1-1.26,1.49A3.27,3.27,0,0,1,199,181.84Zm0-1.28a1.69,1.69,0,0,0,1.12-.36,2.1,2.1,0,0,0,.67-1,4.41,4.41,0,0,0,.22-1.47,4.66,4.66,0,0,0-.22-1.51,2.33,2.33,0,0,0-.67-1.06,1.61,1.61,0,0,0-1.12-.39,1.45,1.45,0,0,0-.86.25,1.88,1.88,0,0,0-.62.66,3.44,3.44,0,0,0-.38,1,5.24,5.24,0,0,0-.13,1.14,4.2,4.2,0,0,0,.23,1.45,2.13,2.13,0,0,0,.68,1A1.67,1.67,0,0,0,199,180.56Z" transform="translate(-0.5 -0.94)"/><path d="M207.13,181.84a3.31,3.31,0,0,1-1.32-.26,1.92,1.92,0,0,1-.92-.84,3,3,0,0,1-.34-1.54v-4.35h-.9l-.17-1,2.1-.37.5.56V179a2.1,2.1,0,0,0,.13.82,1.16,1.16,0,0,0,.36.47,1,1,0,0,0,.48.22,2,2,0,0,0,.47,0,1.79,1.79,0,0,0,.92-.25,1.43,1.43,0,0,0,.61-.58v-4.88l-.83,0-.17-1,2.06-.39.49.58v6.2a.35.35,0,0,0,.1.3.41.41,0,0,0,.24.08.41.41,0,0,0,.16,0,.28.28,0,0,1,.11,0l.22.76a1.55,1.55,0,0,1-.4.3,1.4,1.4,0,0,1-.74.18,1.28,1.28,0,0,1-.68-.18,1,1,0,0,1-.42-.57,2.45,2.45,0,0,1-.95.56A3.65,3.65,0,0,1,207.13,181.84Z" transform="translate(-0.5 -0.94)"/><path d="M212.69,181.77l-.2-.92,1-.24v-5.78l-.9,0-.16-1,2-.36.53.77a2.61,2.61,0,0,1,.82-.58,2.16,2.16,0,0,1,.9-.2,2.29,2.29,0,0,1,1.29.36,2.23,2.23,0,0,1,.8.93l-1.67.85-.54-.82a1.38,1.38,0,0,0-.61.18,1.67,1.67,0,0,0-.64.58,1.84,1.84,0,0,0-.28,1.08v3.72l2.22.46,0,.92Z" transform="translate(-0.5 -0.94)"/><path d="M219.59,181.77l-.15-.9.95-.24V174.8l-.9,0-.17-1,2.11-.37.47.66a3.53,3.53,0,0,1,.93-.47,3.43,3.43,0,0,1,1.1-.18,3.05,3.05,0,0,1,1.32.27,2,2,0,0,1,.89.78,2.5,2.5,0,0,1,.32,1.32v4.77l1,.19,0,.92H224l0-.92.93-.2v-4.47a1.39,1.39,0,0,0-.32-1,1.24,1.24,0,0,0-.93-.33,2.45,2.45,0,0,0-1,.21,3.14,3.14,0,0,0-.75.46v5.13l1,.24v.9Z" transform="translate(-0.5 -0.94)"/><path d="M232.17,181.84a3.8,3.8,0,0,1-1.95-.5,3.51,3.51,0,0,1-1.34-1.41,4.59,4.59,0,0,1-.48-2.16,4.85,4.85,0,0,1,.49-2.27,3.61,3.61,0,0,1,1.34-1.47,3.47,3.47,0,0,1,1.84-.51,3.43,3.43,0,0,1,1.33.26,2.43,2.43,0,0,1,1,.76,2,2,0,0,1,.39,1.26,2.23,2.23,0,0,1-.37,1.34,2.5,2.5,0,0,1-1,.83,5,5,0,0,1-1.37.42,8.59,8.59,0,0,1-1.52.13H230a2.73,2.73,0,0,0,.69,1.46,2.15,2.15,0,0,0,1.66.58,2.79,2.79,0,0,0,1.16-.22,3.91,3.91,0,0,0,.86-.51l.32,1.19a2.64,2.64,0,0,1-.63.41,4.92,4.92,0,0,1-.87.3A5,5,0,0,1,232.17,181.84ZM230,177.31h.43a7,7,0,0,0,.88-.05,4.22,4.22,0,0,0,.9-.19,1.82,1.82,0,0,0,.71-.44,1.11,1.11,0,0,0,.28-.79.92.92,0,0,0-.35-.8,1.32,1.32,0,0,0-.77-.24,1.74,1.74,0,0,0-1.07.35,2.33,2.33,0,0,0-.7.92A3.83,3.83,0,0,0,230,177.31Z" transform="translate(-0.5 -0.94)"/><path d="M237.49,186.41a2.73,2.73,0,0,1-.86-.16,2.6,2.6,0,0,1-.89-.52l.72-1.16.4.34a1,1,0,0,0,.58.22.63.63,0,0,0,.46-.17,1.4,1.4,0,0,0,.33-.49,6.9,6.9,0,0,0,.28-.66l.41-1.12-2.75-8h-.6l-.13-1,2.05-.16,2.26,6.8,2-5.62h-.7l-.14-1,2-.14.33.6c-.12.27-.25.62-.39,1s-.32.88-.5,1.4-.38,1.06-.58,1.63-.41,1.15-.62,1.73-.42,1.14-.62,1.69-.37,1.06-.55,1.53l-.45,1.23a5.81,5.81,0,0,1-.59,1.12,2.4,2.4,0,0,1-.7.69A1.56,1.56,0,0,1,237.49,186.41Z" transform="translate(-0.5 -0.94)"/><path d="M245.06,177.74l-.48-7.48,1.89-.22.36.64-.63,7.06Zm.59,4.08a1,1,0,0,1-.72-.29.94.94,0,0,1-.3-.71.92.92,0,0,1,.3-.7,1,1,0,0,1,.72-.29,1,1,0,0,1,.7.29,1,1,0,0,1,.29.7,1,1,0,0,1-1,1Z" transform="translate(-0.5 -0.94)"/></svg>