<?xml version="1.0" encoding="utf-8"?>
<!-- Generator: Adobe Illustrator 24.1.0, SVG Export Plug-In . SVG Version: 6.00 Build 0)  -->
<svg version="1.1" id="Layer_1" xmlns="http://www.w3.org/2000/svg" xmlns:xlink="http://www.w3.org/1999/xlink" x="0px" y="0px"
	 viewBox="0 0 325.5 220.7" style="enable-background:new 0 0 325.5 220.7;" xml:space="preserve">
<style type="text/css">
	.st0{fill:url(#SVGID_1_);}
	.st1{fill:#FFFFFF;}
</style>
<linearGradient id="SVGID_1_" gradientUnits="userSpaceOnUse" x1="0" y1="110.3395" x2="414.7713" y2="110.3395">
	<stop  offset="0.1495" style="stop-color:#2980B9"/>
	<stop  offset="0.5364" style="stop-color:#86A8E7"/>
	<stop  offset="0.9586" style="stop-color:#D3D5D6"/>
</linearGradient>
<path class="st0" d="M67.1,105.1c13.9-120,176-130.8,231.7-64.8s19.9,161-66.1,176.3c-97.5,17.4-145.2-22.5-165.6-83
	c-25.7,0-51.7-7.9-67.1-8.5L67.1,105.1z"/>
<path class="st1" d="M118.3,58.5c-0.8,0-1.6-0.1-2.3-0.4c-0.7-0.2-1.3-0.6-1.9-1.1c-0.6-0.5-1-1.1-1.3-1.8c-0.3-0.8-0.5-1.6-0.5-2.5
	c0-1.1,0.2-2.2,0.8-3.2c0.5-0.9,1.2-1.6,2.1-2.1c0.9-0.5,2-0.8,3.1-0.7c0.4,0,0.7,0,1,0s0.6,0.1,0.9,0.1c0.2,0,0.5,0.1,0.7,0.2
	l0.3,3h-1.2l-0.6-1.9h-0.5c-0.2,0-0.4,0-0.6,0c-1.5-0.1-2.9,0.8-3.6,2.2c-0.3,0.7-0.5,1.5-0.5,2.3c0,0.8,0.2,1.6,0.5,2.3
	c0.4,0.7,0.9,1.2,1.6,1.6c0.7,0.4,1.6,0.6,2.4,0.6h0.5c0.2,0,0.3,0,0.5-0.1v-2.6l-1.9-0.2l0.3-1.2h3.3v5.2l-0.8,0.1
	c-0.3,0.1-0.7,0.1-1,0.1C119,58.5,118.6,58.5,118.3,58.5z"/>
<path class="st1" d="M122.9,58.4l-0.2-0.9l1-0.2v-5.8h-0.9l-0.2-1l2-0.4l0.5,0.8c0.2-0.2,0.5-0.4,0.8-0.6c0.3-0.1,0.6-0.2,0.9-0.2
	c0.5,0,0.9,0.1,1.3,0.4c0.3,0.2,0.6,0.6,0.8,0.9l-1.7,0.8l-0.5-0.8c-0.2,0-0.4,0.1-0.6,0.2c-0.3,0.1-0.5,0.3-0.6,0.6
	c-0.2,0.3-0.3,0.7-0.3,1.1v3.8l2.2,0.5v0.9L122.9,58.4z"/>
<path class="st1" d="M133.4,58.5c-0.7,0-1.4-0.2-2-0.5c-0.6-0.3-1-0.8-1.3-1.4c-0.3-0.7-0.5-1.4-0.5-2.2c0-0.8,0.1-1.6,0.5-2.3
	c0.3-0.6,0.8-1.1,1.3-1.5c0.6-0.3,1.2-0.5,1.8-0.5c0.5,0,0.9,0.1,1.3,0.3c0.4,0.2,0.7,0.4,1,0.8c0.3,0.4,0.4,0.8,0.4,1.3
	c0,0.5-0.1,0.9-0.4,1.3c-0.3,0.4-0.6,0.6-1,0.8c-0.4,0.2-0.9,0.3-1.4,0.4c-0.5,0.1-1,0.1-1.5,0.1h-0.5c0.1,0.5,0.3,1.1,0.7,1.5
	c0.4,0.4,1,0.6,1.7,0.6c0.4,0,0.8-0.1,1.2-0.2c0.3-0.1,0.6-0.3,0.9-0.5l0.3,1.2c-0.2,0.2-0.4,0.3-0.6,0.4c-0.3,0.1-0.6,0.2-0.9,0.3
	C134,58.5,133.7,58.5,133.4,58.5z M131.2,54h0.4c0.3,0,0.6,0,0.9,0c0.3,0,0.6-0.1,0.9-0.2c0.3-0.1,0.5-0.2,0.7-0.4
	c0.2-0.2,0.3-0.5,0.3-0.8c0-0.3-0.1-0.6-0.4-0.8c-0.2-0.2-0.5-0.2-0.8-0.2c-0.4,0-0.8,0.1-1.1,0.3c-0.3,0.2-0.5,0.6-0.7,0.9
	C131.3,53.2,131.2,53.6,131.2,54z"/>
<path class="st1" d="M141,58.5c-0.7,0-1.4-0.2-2-0.5c-0.6-0.3-1-0.8-1.3-1.4c-0.3-0.7-0.5-1.4-0.5-2.2c0-0.8,0.2-1.6,0.5-2.3
	c0.3-0.6,0.8-1.1,1.3-1.5c0.6-0.3,1.2-0.5,1.9-0.5c0.5,0,0.9,0.1,1.3,0.3c0.4,0.2,0.7,0.4,1,0.8c0.3,0.4,0.4,0.8,0.4,1.3
	c0,0.5-0.1,0.9-0.4,1.3c-0.3,0.4-0.6,0.6-1,0.8c-0.4,0.2-0.9,0.3-1.4,0.4c-0.5,0.1-1,0.1-1.5,0.1h-0.5c0.1,0.5,0.3,1.1,0.7,1.5
	c0.4,0.4,1,0.6,1.6,0.6c0.4,0,0.8-0.1,1.2-0.2c0.3-0.1,0.6-0.3,0.9-0.5l0.3,1.2c-0.2,0.2-0.4,0.3-0.6,0.4c-0.3,0.1-0.6,0.2-0.9,0.3
	C141.6,58.5,141.3,58.5,141,58.5z M138.8,54h0.4c0.3,0,0.6,0,0.9,0c0.3,0,0.6-0.1,0.9-0.2c0.3-0.1,0.5-0.2,0.7-0.4
	c0.2-0.2,0.3-0.5,0.3-0.8c0-0.3-0.1-0.6-0.4-0.8c-0.2-0.2-0.5-0.2-0.8-0.2c-0.4,0-0.8,0.1-1.1,0.3c-0.3,0.2-0.5,0.6-0.7,0.9
	C139,53.1,138.9,53.6,138.8,54L138.8,54z"/>
<path class="st1" d="M147.7,58.5c-0.3,0-0.7-0.1-0.9-0.2c-0.3-0.2-0.5-0.4-0.6-0.7c-0.2-0.4-0.3-0.8-0.2-1.2v-5h-1.3l-0.2-1l0.1-0.2
	h1.5v-2.8l1.4-0.3l0.1,0.2v2.9h1.8c0.1,0,0.1,0,0.1,0.1v1.1h-1.9v5c0,0.2,0,0.5,0.2,0.7c0.1,0.1,0.3,0.2,0.5,0.2
	c0.2,0,0.5-0.1,0.6-0.2c0.2-0.1,0.3-0.2,0.5-0.3l0.3,1.1c-0.2,0.2-0.4,0.3-0.7,0.4C148.4,58.4,148,58.5,147.7,58.5z"/>
<path class="st1" d="M150.5,58.4l-0.2-0.9l1-0.2v-5.8h-0.9l-0.2-1l2.1-0.4l0.5,0.6v6.6l1,0.2v0.9L150.5,58.4z M151.9,48.1
	c-0.6,0-1-0.5-1-1c0-0.6,0.5-1,1-1c0.6,0,1,0.5,1,1c0,0.2-0.1,0.5-0.3,0.7C152.4,48.1,152.1,48.2,151.9,48.1L151.9,48.1z"/>
<path class="st1" d="M155,58.4l-0.1-0.9l0.9-0.2v-5.8l-0.9,0l-0.2-1l2.1-0.4l0.5,0.7c0.3-0.2,0.6-0.4,0.9-0.5
	c0.4-0.1,0.7-0.2,1.1-0.2c0.5,0,0.9,0.1,1.3,0.3c0.4,0.2,0.7,0.4,0.9,0.8c0.2,0.4,0.3,0.9,0.3,1.3v4.8l1,0.2v0.9h-3.4v-0.9l0.9-0.2
	v-4.4c0-0.4-0.1-0.7-0.3-1c-0.3-0.2-0.6-0.4-0.9-0.3c-0.3,0-0.7,0.1-1,0.2c-0.3,0.1-0.5,0.3-0.8,0.5v5.1l1,0.2v0.9L155,58.4z"/>
<path class="st1" d="M166.9,63c-0.6,0-1.1-0.1-1.7-0.3c-0.5-0.2-0.9-0.5-1.2-0.9c-0.3-0.4-0.4-0.9-0.4-1.4c0-0.5,0.1-1,0.4-1.4
	c0.3-0.3,0.6-0.6,1-0.8c-0.1-0.1-0.3-0.3-0.4-0.4c-0.1-0.2-0.1-0.4-0.1-0.6c0-0.3,0.1-0.5,0.2-0.7c0.1-0.2,0.3-0.4,0.4-0.6
	c-0.4-0.3-0.7-0.6-0.9-1c-0.5-1-0.5-2.2,0.1-3.1c0.3-0.5,0.7-0.8,1.2-1.1c0.5-0.3,1-0.4,1.6-0.4c0.4,0,0.8,0.1,1.1,0.2
	c0.4,0.1,0.7,0.3,1,0.5l1.7-0.8h0.4l0.2,1.4l-1.5,0.2c0.1,0.2,0.2,0.5,0.3,0.7c0.1,0.3,0.1,0.6,0.1,0.8c0,0.6-0.1,1.1-0.4,1.6
	c-0.3,0.4-0.7,0.8-1.2,1c-0.5,0.2-1,0.4-1.6,0.4h-0.4h-0.3l-0.3,0.5V57l1.8,0.4c0.5,0.1,1,0.3,1.4,0.5c0.4,0.2,0.7,0.4,0.9,0.8
	c0.2,0.4,0.4,0.8,0.3,1.2c0,0.6-0.2,1.2-0.5,1.7c-0.4,0.4-0.8,0.8-1.4,1C168.2,62.8,167.5,63,166.9,63z M167.2,61.5
	c0.4,0,0.7-0.1,1.1-0.2c0.3-0.1,0.6-0.3,0.8-0.5c0.2-0.2,0.3-0.4,0.3-0.7c0-0.2-0.1-0.5-0.3-0.6c-0.2-0.2-0.5-0.3-0.8-0.4
	c-0.3-0.1-0.7-0.2-1-0.2s-0.7-0.2-1.1-0.3c-0.3,0.1-0.6,0.3-0.8,0.6c-0.2,0.2-0.3,0.5-0.3,0.8c0,0.3,0.1,0.5,0.3,0.7
	c0.2,0.2,0.5,0.4,0.8,0.5C166.5,61.4,166.8,61.5,167.2,61.5z M167.2,55c0.5,0,0.9-0.2,1.2-0.5c0.3-0.4,0.4-0.8,0.4-1.3
	c0-0.5-0.1-0.9-0.4-1.3c-0.3-0.4-0.8-0.6-1.2-0.5c-0.5,0-0.9,0.2-1.2,0.5c-0.3,0.4-0.4,0.8-0.4,1.3c0,0.5,0.1,0.9,0.4,1.3
	C166.2,54.9,166.7,55.1,167.2,55L167.2,55z"/>
<path class="st1" d="M174.9,58.5c-0.9,0-1.8-0.3-2.4-1c-0.2-0.2-0.4-0.5-0.6-0.8l1.7-0.7l0.4,1l0.3,0.1c0.2,0,0.4,0.1,0.6,0.1
	c0.2,0,0.3-0.1,0.5-0.1c0.2-0.1,0.3-0.2,0.5-0.3c0.1-0.2,0.2-0.4,0.2-0.6c0-0.2-0.1-0.5-0.2-0.6c-0.2-0.2-0.4-0.3-0.6-0.4
	c-0.3-0.1-0.6-0.3-0.9-0.3c-0.6-0.2-1.1-0.6-1.6-1c-0.4-0.4-0.6-0.9-0.6-1.4c0-0.4,0.1-0.9,0.4-1.2c0.3-0.4,0.6-0.6,1-0.8
	c0.9-0.4,1.9-0.4,2.7,0c0.3,0.2,0.7,0.4,0.9,0.7c0.2,0.2,0.4,0.5,0.5,0.7l-1.7,0.7l-0.4-0.9c-0.1-0.1-0.1-0.1-0.2-0.1
	c-0.2-0.1-0.3-0.1-0.5-0.1c-0.2,0-0.3,0-0.5,0.1c-0.2,0.1-0.3,0.2-0.4,0.3c-0.1,0.2-0.2,0.3-0.2,0.5c0,0.2,0.1,0.4,0.2,0.5
	c0.2,0.2,0.4,0.3,0.7,0.4l1.1,0.5c0.5,0.2,1,0.5,1.3,0.9c0.3,0.4,0.5,0.9,0.5,1.4c0,0.5-0.1,1-0.4,1.3c-0.3,0.4-0.6,0.6-1.1,0.8
	C175.9,58.4,175.4,58.5,174.9,58.5z"/>
<path class="st1" d="M180.1,54.4l-0.5-7.5l1.9-0.2l0.4,0.6l-0.6,7.1H180.1z M180.7,58.5c-0.3,0-0.5-0.1-0.7-0.3
	c-0.2-0.2-0.3-0.4-0.3-0.7c0-0.3,0.1-0.5,0.3-0.7c0.2-0.2,0.5-0.3,0.7-0.3c0.3,0,0.5,0.1,0.7,0.3c0.2,0.2,0.3,0.4,0.3,0.7
	C181.6,58,181.2,58.5,180.7,58.5L180.7,58.5z"/>
<path class="st1" d="M188,58.4l-0.2-1.2l1.1-0.2v-9l-1.1-0.1v-1.3h3.7l0.2,1.3l-1.1,0.2v9l1.1,0.1v1.2L188,58.4z"/>
<path class="st1" d="M199.6,58.5c-0.4,0-0.9-0.1-1.3-0.3c-0.8-0.4-1.2-1.2-1.2-2c0-0.5,0.1-1,0.4-1.3c0.3-0.4,0.7-0.6,1.1-0.8
	c0.5-0.2,0.9-0.3,1.4-0.4c0.5-0.1,0.9-0.1,1.4-0.1v-1.2c0-0.3-0.1-0.5-0.3-0.6c-0.3-0.2-0.6-0.3-1-0.2h-0.4c-0.1,0-0.3,0.1-0.4,0.1
	l-0.4,1.1l-1.7-0.5c0.2-0.6,0.6-1.1,1.2-1.4c0.6-0.3,1.2-0.5,1.9-0.5c0.5,0,1,0.1,1.5,0.3c0.4,0.2,0.8,0.5,1,0.8
	c0.3,0.4,0.4,0.9,0.4,1.4v4.1c0,0.1,0,0.2,0.1,0.3c0.1,0.1,0.2,0.1,0.3,0.1c0.1,0,0.1,0,0.2,0c0,0,0.1,0,0.1,0l0.2,0.8
	c-0.1,0.1-0.3,0.2-0.4,0.3c-0.2,0.1-0.5,0.2-0.7,0.2c-0.3,0-0.5-0.1-0.8-0.2c-0.2-0.1-0.3-0.3-0.4-0.6c-0.3,0.2-0.5,0.4-0.9,0.6
	C200.4,58.4,200,58.5,199.6,58.5z M199.8,57.2c0.3,0,0.6-0.1,0.9-0.2c0.3-0.1,0.5-0.4,0.6-0.6v-1.6c-0.2,0-0.5,0-0.8,0.1
	c-0.3,0-0.6,0.1-0.9,0.2c-0.3,0.1-0.5,0.2-0.7,0.4c-0.4,0.4-0.4,1.1,0,1.5C199.2,57.1,199.5,57.2,199.8,57.2L199.8,57.2z"/>
<path class="st1" d="M205,58.4l-0.2-0.9l1-0.2v-5.8l-0.9,0l-0.2-1l2.1-0.4l0.5,0.7c0.3-0.2,0.6-0.4,1-0.5c0.3-0.1,0.7-0.2,1.1-0.2
	c0.4,0,0.8,0.1,1.2,0.2c0.3,0.1,0.6,0.3,0.9,0.6c0.3-0.2,0.6-0.4,0.9-0.5c0.3-0.1,0.5-0.2,0.8-0.2c0.2,0,0.5-0.1,0.7-0.1
	c0.5,0,0.9,0.1,1.3,0.3c0.4,0.2,0.7,0.4,0.9,0.8c0.2,0.4,0.3,0.9,0.3,1.3v4.7l0.9,0.2v0.9h-3.4v-0.9l1-0.2v-4.4c0-0.4-0.1-0.7-0.3-1
	c-0.3-0.2-0.6-0.4-0.9-0.3c-0.3,0-0.6,0.1-0.9,0.2c-0.3,0.1-0.6,0.3-0.8,0.6v5.1l1,0.2v0.9h-3.4v-0.9l0.9-0.2v-4.5
	c0-0.4-0.1-0.7-0.3-1c-0.3-0.2-0.6-0.4-0.9-0.3c-0.3,0-0.7,0.1-1,0.2c-0.3,0.1-0.5,0.3-0.8,0.5v5.1l1,0.2v0.9L205,58.4z"/>
<path class="st1" d="M222.8,58.4l-0.2-1.2l1-0.2v-8.9l-1-0.1v-1.3h2.7c1.1,0,2.3,0.2,3.3,0.6c0.9,0.4,1.7,1.1,2.2,1.9
	c0.6,1,0.8,2.1,0.8,3.2c0,1.1-0.2,2.3-0.7,3.3c-0.4,0.9-1.1,1.6-2,2c-1,0.5-2.1,0.7-3.2,0.7L222.8,58.4z M225.9,57
	c0.7,0,1.3-0.1,1.9-0.3c0.5-0.2,0.9-0.5,1.3-1c0.3-0.4,0.6-0.9,0.7-1.4c0.2-0.6,0.2-1.2,0.2-1.8c0-0.8-0.1-1.6-0.5-2.3
	c-0.3-0.6-0.9-1.1-1.5-1.5c-0.7-0.4-1.6-0.6-2.4-0.5h-0.3V57L225.9,57z"/>
<path class="st1" d="M236.7,58.5c-0.7,0-1.4-0.2-1.9-0.5c-0.6-0.3-1-0.8-1.3-1.4c-0.3-0.7-0.5-1.4-0.5-2.2c0-0.8,0.1-1.6,0.5-2.3
	c0.3-0.6,0.8-1.1,1.3-1.5c0.6-0.3,1.2-0.5,1.9-0.5c0.5,0,0.9,0.1,1.3,0.3c0.4,0.2,0.7,0.4,1,0.8c0.3,0.4,0.4,0.8,0.4,1.3
	c0,0.5-0.1,0.9-0.4,1.3c-0.3,0.4-0.6,0.7-1,0.8c-0.4,0.2-0.9,0.3-1.4,0.4c-0.5,0.1-1,0.1-1.5,0.1h-0.5c0.1,0.5,0.3,1.1,0.7,1.5
	c0.4,0.4,1,0.6,1.6,0.6c0.4,0,0.8-0.1,1.2-0.2c0.3-0.1,0.6-0.3,0.9-0.5l0.3,1.2c-0.2,0.2-0.4,0.3-0.6,0.4c-0.3,0.1-0.6,0.2-0.9,0.3
	C237.4,58.5,237.1,58.5,236.7,58.5z M234.6,54h0.4c0.3,0,0.6,0,0.9,0c0.3,0,0.6-0.1,0.9-0.2c0.3-0.1,0.5-0.2,0.7-0.4
	c0.2-0.2,0.3-0.5,0.3-0.8c0-0.3-0.1-0.6-0.4-0.8c-0.2-0.2-0.5-0.2-0.8-0.2c-0.4,0-0.8,0.1-1.1,0.3c-0.3,0.2-0.5,0.6-0.7,0.9
	C234.7,53.2,234.6,53.6,234.6,54z"/>
<path class="st1" d="M243.4,58.5c-0.3,0-0.7-0.1-1-0.2c-0.3-0.2-0.5-0.4-0.6-0.7c-0.2-0.4-0.2-0.8-0.2-1.2v-5h-1.3l-0.2-1l0.1-0.2
	h1.5v-2.8l1.4-0.3l0.1,0.2v2.9h1.8c0.1,0,0.1,0,0.1,0.1v1.1H243v5c0,0.2,0,0.5,0.2,0.6c0.1,0.1,0.3,0.2,0.5,0.2
	c0.2,0,0.4-0.1,0.6-0.2c0.2-0.1,0.3-0.2,0.5-0.3l0.3,1.1c-0.2,0.2-0.4,0.3-0.7,0.4C244.1,58.4,243.8,58.5,243.4,58.5z"/>
<path class="st1" d="M249.8,58.5c-0.7,0-1.4-0.2-2-0.5c-0.6-0.3-1-0.8-1.3-1.4c-0.3-0.7-0.5-1.4-0.5-2.2c0-0.8,0.2-1.6,0.5-2.3
	c0.3-0.6,0.8-1.1,1.3-1.5c0.6-0.3,1.2-0.5,1.9-0.5c0.5,0,0.9,0.1,1.3,0.3c0.4,0.2,0.7,0.4,1,0.8c0.3,0.4,0.5,0.8,0.5,1.3
	c0,0.5-0.1,0.9-0.4,1.3c-0.3,0.4-0.6,0.6-1,0.8c-0.4,0.2-0.9,0.3-1.4,0.4c-0.5,0.1-1,0.1-1.5,0.1h-0.5c0.1,0.5,0.3,1.1,0.7,1.5
	c0.4,0.4,1,0.6,1.6,0.6c0.4,0,0.8-0.1,1.2-0.2c0.3-0.1,0.6-0.3,0.9-0.5l0.3,1.2c-0.2,0.2-0.4,0.3-0.6,0.4c-0.3,0.1-0.6,0.2-0.9,0.3
	C250.6,58.5,250.2,58.5,249.8,58.5z M247.7,54h0.4c0.3,0,0.6,0,0.9,0c0.3,0,0.6-0.1,0.9-0.2c0.3-0.1,0.5-0.2,0.7-0.4
	c0.2-0.2,0.3-0.5,0.3-0.8c0-0.3-0.1-0.6-0.4-0.8c-0.2-0.2-0.5-0.2-0.8-0.2c-0.4,0-0.8,0.1-1.1,0.3c-0.3,0.2-0.5,0.6-0.7,0.9
	C247.8,53.1,247.7,53.6,247.7,54z"/>
<path class="st1" d="M257.3,58.5c-0.5,0-1-0.1-1.4-0.3c-0.4-0.2-0.8-0.5-1.1-0.8c-0.3-0.4-0.6-0.8-0.8-1.3c-0.2-0.5-0.3-1.1-0.3-1.7
	c0-0.6,0.1-1.2,0.3-1.8c0.2-0.5,0.4-0.9,0.8-1.3c0.3-0.4,0.7-0.6,1.1-0.8c0.5-0.2,1-0.3,1.5-0.3c0.3,0,0.7,0,1,0.1
	c0.5,0.1,0.9,0.3,1.3,0.7c0.1,0.1,0.2,0.2,0.3,0.3l-1.4,1.1l-0.9-0.9h-0.4c-0.4,0-0.8,0.1-1.1,0.4c-0.3,0.3-0.5,0.7-0.6,1.1
	c-0.1,0.5-0.2,1-0.2,1.5c0,0.5,0.1,0.9,0.2,1.3c0.1,0.4,0.4,0.7,0.7,1c0.4,0.3,0.9,0.4,1.4,0.4c0.3,0,0.5,0,0.7-0.1
	c0.2-0.1,0.4-0.1,0.6-0.2c0.2-0.1,0.3-0.2,0.5-0.3l0.4,1.1c-0.3,0.3-0.7,0.5-1.1,0.6C258.2,58.4,257.7,58.5,257.3,58.5z"/>
<path class="st1" d="M263.6,58.5c-0.3,0-0.7-0.1-1-0.2c-0.3-0.2-0.5-0.4-0.6-0.7c-0.2-0.4-0.3-0.8-0.2-1.2v-5h-1.2l-0.2-1l0.1-0.2
	h1.5v-2.8l1.4-0.3l0.1,0.2v2.9h1.8c0,0,0.1,0,0.1,0.1v1.1h-1.9v5c0,0.2,0,0.5,0.2,0.7c0.1,0.1,0.3,0.2,0.5,0.2
	c0.2,0,0.5-0.1,0.6-0.2c0.2-0.1,0.3-0.2,0.5-0.3l0.3,1.1c-0.2,0.2-0.4,0.3-0.7,0.4C264.4,58.4,264,58.5,263.6,58.5z"/>
<path class="st1" d="M266.4,58.4l-0.2-0.9l1-0.2v-5.8h-0.9l-0.2-1l2.1-0.4l0.5,0.6v6.6l1,0.2v0.9L266.4,58.4z M267.8,48.1
	c-0.6,0-1-0.4-1-0.9c0,0,0,0,0-0.1c0-0.3,0.1-0.6,0.3-0.8c0.2-0.2,0.5-0.3,0.8-0.3c0.3,0,0.6,0.1,0.8,0.3c0.2,0.2,0.3,0.5,0.3,0.8
	c0,0.3-0.1,0.6-0.3,0.8C268.3,48.1,268,48.2,267.8,48.1L267.8,48.1z"/>
<path class="st1" d="M273.4,58.4l-2.4-7.1h-0.7l-0.1-1l2.2-0.2l2,6.4l2-5.2h-0.8l-0.1-1l2.1-0.2l0.3,0.6l-2.9,7.6L273.4,58.4z"/>
<path class="st1" d="M282.4,58.5c-0.7,0-1.4-0.2-2-0.5c-0.6-0.3-1-0.8-1.3-1.4c-0.3-0.7-0.5-1.4-0.5-2.2c0-0.8,0.1-1.6,0.5-2.3
	c0.3-0.6,0.8-1.1,1.4-1.5c0.6-0.3,1.2-0.5,1.8-0.5c0.5,0,0.9,0.1,1.3,0.3c0.4,0.2,0.7,0.4,1,0.8c0.3,0.4,0.4,0.8,0.4,1.3
	c0,0.5-0.1,0.9-0.4,1.3c-0.3,0.4-0.6,0.6-1,0.8c-0.4,0.2-0.9,0.3-1.4,0.4c-0.5,0.1-1,0.1-1.5,0.1h-0.5c0.1,0.5,0.3,1.1,0.7,1.5
	c0.4,0.4,1,0.6,1.7,0.6c0.4,0,0.8-0.1,1.2-0.2c0.3-0.1,0.6-0.3,0.9-0.5l0.3,1.2c-0.2,0.2-0.4,0.3-0.6,0.4
	C283.8,58.4,283.1,58.5,282.4,58.5L282.4,58.5z M280.3,54h0.4c0.3,0,0.6,0,0.9,0c0.3,0,0.6-0.1,0.9-0.2c0.3-0.1,0.5-0.2,0.7-0.4
	c0.2-0.2,0.3-0.5,0.3-0.8c0-0.3-0.1-0.6-0.4-0.8c-0.2-0.2-0.5-0.2-0.8-0.2c-0.4,0-0.8,0.1-1.1,0.3c-0.3,0.2-0.6,0.6-0.7,0.9
	C280.4,53.2,280.3,53.6,280.3,54z"/>
<path class="st1" d="M99.6,78.8l-0.1-1.2l1-0.2v-9l-1-0.1v-1.3h3.6l0.2,1.3l-1,0.2v3.6h4.4v-3.6l-1-0.1v-1.3h3.6l0.2,1.3l-1.1,0.2
	v8.9l1.1,0.1v1.2h-3.6l-0.2-1.2l1-0.2v-3.9h-4.4v4l1,0.1v1.2L99.6,78.8z"/>
<path class="st1" d="M114.1,78.9c-0.7,0-1.3-0.2-1.9-0.6c-0.5-0.4-1-0.9-1.3-1.5c-0.3-0.7-0.5-1.4-0.4-2.2c0-0.7,0.1-1.5,0.5-2.2
	c0.3-0.6,0.7-1.1,1.3-1.5c0.5-0.3,1.2-0.5,1.8-0.5c0.7,0,1.3,0.2,1.9,0.5c0.5,0.4,1,0.9,1.3,1.5c0.3,0.7,0.5,1.4,0.4,2.1
	c0,0.7-0.1,1.5-0.4,2.2c-0.3,0.6-0.7,1.1-1.3,1.5C115.5,78.7,114.8,78.9,114.1,78.9z M114.1,77.6c0.4,0,0.8-0.1,1.1-0.4
	c0.3-0.3,0.5-0.6,0.7-1c0.2-0.5,0.2-1,0.2-1.5c0-0.5-0.1-1-0.2-1.5c-0.1-0.4-0.3-0.8-0.7-1.1c-0.3-0.3-0.7-0.4-1.1-0.4
	c-0.3,0-0.6,0.1-0.9,0.2c-0.3,0.2-0.5,0.4-0.6,0.7c-0.2,0.3-0.3,0.6-0.4,1c-0.1,0.4-0.1,0.8-0.1,1.1c0,0.5,0.1,1,0.2,1.4
	c0.1,0.4,0.4,0.7,0.7,1C113.4,77.5,113.7,77.7,114.1,77.6z"/>
<path class="st1" d="M122.5,78.9c-0.7,0-1.3-0.2-1.9-0.6c-0.5-0.4-1-0.9-1.2-1.5c-0.3-0.7-0.5-1.4-0.4-2.2c0-0.7,0.1-1.5,0.5-2.2
	c0.3-0.6,0.7-1.1,1.3-1.5c1.1-0.7,2.6-0.7,3.7,0c0.5,0.4,1,0.9,1.3,1.5c0.3,0.7,0.5,1.4,0.4,2.1c0,0.7-0.1,1.5-0.4,2.2
	c-0.3,0.6-0.7,1.1-1.3,1.5C123.9,78.7,123.2,78.9,122.5,78.9z M122.5,77.6c0.4,0,0.8-0.1,1.1-0.4c0.3-0.3,0.5-0.6,0.7-1
	c0.2-0.5,0.2-1,0.2-1.5c0-0.5-0.1-1-0.2-1.5c-0.1-0.4-0.4-0.8-0.7-1.1c-0.3-0.3-0.7-0.4-1.1-0.4c-0.3,0-0.6,0.1-0.9,0.2
	c-0.3,0.2-0.5,0.4-0.6,0.7c-0.2,0.3-0.3,0.6-0.4,1c-0.1,0.4-0.1,0.8-0.1,1.1c0,0.5,0.1,1,0.2,1.4c0.1,0.4,0.4,0.7,0.7,1
	C121.7,77.5,122.1,77.7,122.5,77.6z"/>
<path class="st1" d="M130.1,78.9c-0.3,0-0.7-0.1-1-0.2c-0.3-0.2-0.5-0.4-0.6-0.7c-0.2-0.4-0.3-0.8-0.2-1.2v-5H127l-0.2-1l0.1-0.2
	h1.5v-2.8l1.4-0.3l0.1,0.2v2.9h1.8c0.1,0,0.1,0,0.1,0.1v1.1h-1.9v5c0,0.3,0,0.5,0.2,0.6c0.1,0.1,0.3,0.2,0.5,0.2
	c0.2,0,0.5-0.1,0.6-0.2c0.2-0.1,0.3-0.2,0.4-0.3l0.3,1.1c-0.2,0.2-0.4,0.3-0.7,0.4C130.9,78.8,130.5,78.9,130.1,78.9z"/>
<path class="st1" d="M132.6,80.8v-0.2l0.8-1.6l-0.4-2.1l1.8-0.2c0,0.1,0,0.2,0.1,0.5c0,0.3,0.1,0.5,0.1,0.8c0,0.4-0.1,0.9-0.2,1.3
	c-0.1,0.4-0.3,0.8-0.5,1.2c-0.2,0.3-0.4,0.6-0.6,0.9L132.6,80.8z"/>
<path class="st1" d="M143,78.9c-0.4,0-0.9-0.1-1.3-0.3c-0.8-0.4-1.3-1.1-1.2-2c0-0.5,0.1-1,0.4-1.3c0.3-0.4,0.7-0.6,1.1-0.8
	c0.5-0.2,0.9-0.3,1.4-0.4c0.5-0.1,0.9-0.1,1.4-0.1v-1.2c0-0.3-0.1-0.5-0.3-0.6c-0.3-0.2-0.6-0.3-1-0.2h-0.4c-0.1,0-0.3,0.1-0.4,0.1
	l-0.3,1.1l-1.7-0.6c0.2-0.6,0.6-1.1,1.2-1.4c0.6-0.3,1.2-0.5,1.9-0.5c0.5,0,1,0.1,1.4,0.3c0.4,0.2,0.8,0.5,1,0.8
	c0.3,0.4,0.4,0.9,0.4,1.4v4.1c0,0.1,0,0.2,0.1,0.3c0.1,0.1,0.2,0.1,0.3,0.1h0.2c0,0,0.1,0,0.1,0l0.2,0.8c-0.1,0.1-0.3,0.2-0.4,0.3
	c-0.2,0.1-0.5,0.2-0.7,0.2c-0.3,0-0.5-0.1-0.8-0.2c-0.2-0.1-0.3-0.3-0.4-0.6c-0.3,0.2-0.5,0.4-0.9,0.6
	C143.8,78.9,143.4,78.9,143,78.9z M143.3,77.6c0.6,0,1.2-0.3,1.6-0.9v-1.6c-0.2,0-0.5,0-0.8,0.1c-0.3,0-0.6,0.1-0.9,0.2
	c-0.3,0.1-0.5,0.2-0.7,0.4c-0.2,0.2-0.3,0.5-0.3,0.7c0,0.3,0.1,0.6,0.3,0.8C142.7,77.5,143,77.6,143.3,77.6L143.3,77.6z"/>
<path class="st1" d="M152.5,78.8l-0.2-0.9l1-0.2v-5.8h-0.9l-0.2-1l2.1-0.4l0.5,0.7c0.3-0.2,0.6-0.4,1-0.5c0.3-0.1,0.7-0.2,1.1-0.2
	c0.4,0,0.8,0.1,1.2,0.2c0.3,0.1,0.6,0.3,0.9,0.6c0.3-0.2,0.6-0.4,0.9-0.6c0.3-0.1,0.5-0.2,0.8-0.2c0.2,0,0.5-0.1,0.7-0.1
	c0.5,0,0.9,0.1,1.3,0.3c0.4,0.2,0.7,0.4,0.9,0.8c0.2,0.4,0.3,0.9,0.3,1.3v4.7l0.9,0.2v0.9h-3.4v-0.9l1-0.2v-4.4c0-0.4-0.1-0.7-0.3-1
	c-0.3-0.2-0.6-0.4-0.9-0.3c-0.3,0-0.6,0.1-0.9,0.2c-0.3,0.1-0.6,0.3-0.8,0.6v5.1l1,0.2v0.9h-3.4v-0.9l0.9-0.2v-4.5
	c0-0.4-0.1-0.7-0.3-1c-0.3-0.2-0.6-0.4-0.9-0.3c-0.3,0-0.7,0.1-1,0.2c-0.3,0.1-0.5,0.3-0.7,0.5v5.1l1,0.2v0.9L152.5,78.8z"/>
<path class="st1" d="M168.3,78.9c-0.4,0-0.9-0.1-1.3-0.3c-0.8-0.4-1.2-1.2-1.2-2c0-0.5,0.1-0.9,0.4-1.3c0.3-0.4,0.7-0.6,1.1-0.8
	c0.5-0.2,0.9-0.3,1.4-0.4c0.5-0.1,0.9-0.1,1.4-0.1v-1.2c0-0.3-0.1-0.5-0.3-0.6c-0.3-0.2-0.6-0.3-1-0.2h-0.4c-0.1,0-0.3,0.1-0.4,0.1
	l-0.3,1.1l-1.7-0.6c0.2-0.6,0.6-1.1,1.1-1.4c0.6-0.3,1.2-0.5,1.9-0.5c0.5,0,1,0.1,1.5,0.3c0.4,0.2,0.8,0.5,1,0.8
	c0.2,0.4,0.4,0.9,0.4,1.4v4.1c0,0.1,0,0.2,0.1,0.3c0.1,0.1,0.2,0.1,0.2,0.1c0.1,0,0.1,0,0.2,0c0,0,0.1,0,0.1,0l0.2,0.8
	c-0.1,0.1-0.3,0.2-0.4,0.3c-0.2,0.1-0.5,0.2-0.7,0.2c-0.3,0-0.5-0.1-0.8-0.2c-0.2-0.1-0.3-0.3-0.4-0.6c-0.3,0.2-0.5,0.4-0.9,0.6
	C169.1,78.9,168.7,78.9,168.3,78.9z M168.6,77.6c0.3,0,0.7-0.1,0.9-0.2c0.3-0.1,0.5-0.4,0.6-0.6v-1.6c-0.2,0-0.5,0-0.8,0.1
	c-0.3,0-0.6,0.1-0.9,0.2c-0.3,0.1-0.5,0.2-0.7,0.4c-0.2,0.2-0.3,0.5-0.3,0.7c0,0.3,0.1,0.6,0.3,0.8
	C167.9,77.5,168.2,77.6,168.6,77.6z"/>
<path class="st1" d="M176.3,78.9c-0.5,0-0.9-0.1-1.4-0.3c-0.4-0.2-0.7-0.4-1-0.7c-0.2-0.2-0.4-0.5-0.6-0.8l1.7-0.7l0.4,1l0.3,0.1
	c0.2,0,0.4,0.1,0.6,0.1c0.2,0,0.3,0,0.5-0.1c0.2-0.1,0.3-0.2,0.5-0.3c0.3-0.3,0.3-0.8,0-1.2c-0.2-0.2-0.4-0.3-0.6-0.4
	c-0.3-0.1-0.6-0.2-0.9-0.3c-0.6-0.2-1.1-0.6-1.6-1c-0.4-0.4-0.6-0.9-0.5-1.4c0-0.4,0.1-0.9,0.4-1.2c0.3-0.4,0.6-0.6,1-0.8
	c0.9-0.4,1.9-0.4,2.7,0c0.3,0.2,0.7,0.4,0.9,0.7c0.2,0.2,0.4,0.5,0.5,0.7l-1.7,0.7l-0.4-0.9c-0.1-0.1-0.1-0.1-0.2-0.1
	c-0.2-0.1-0.3-0.1-0.5-0.1c-0.2,0-0.3,0-0.5,0.1c-0.2,0.1-0.3,0.2-0.4,0.3c-0.1,0.2-0.2,0.3-0.2,0.5c0,0.2,0.1,0.4,0.2,0.5
	c0.2,0.2,0.4,0.3,0.7,0.4l1.1,0.4c0.5,0.2,1,0.5,1.3,0.9c0.3,0.4,0.5,0.9,0.5,1.4c0,0.5-0.1,1-0.4,1.3c-0.3,0.4-0.6,0.6-1.1,0.8
	C177.3,78.8,176.8,78.9,176.3,78.9z"/>
<path class="st1" d="M183.3,78.9c-0.3,0-0.7-0.1-1-0.2c-0.3-0.2-0.5-0.4-0.6-0.7c-0.2-0.4-0.3-0.8-0.2-1.2v-5h-1.3l-0.2-1l0.1-0.2
	h1.6v-2.8l1.4-0.3l0.1,0.2v2.9h1.8c0.1,0,0.1,0,0.1,0.1v1.1H183v5c0,0.3,0.1,0.5,0.2,0.6c0.1,0.1,0.3,0.2,0.5,0.2
	c0.2,0,0.5-0.1,0.6-0.2l0.5-0.3l0.3,1.1c-0.2,0.2-0.4,0.3-0.7,0.4C184,78.8,183.7,78.9,183.3,78.9z"/>
<path class="st1" d="M189.7,78.9c-0.7,0-1.4-0.2-1.9-0.5c-0.6-0.3-1-0.8-1.3-1.4c-0.3-0.7-0.5-1.4-0.5-2.2c0-0.8,0.1-1.6,0.5-2.3
	c0.3-0.6,0.8-1.1,1.3-1.5c0.6-0.3,1.2-0.5,1.8-0.5c0.5,0,0.9,0.1,1.3,0.3c0.4,0.2,0.7,0.4,1,0.8c0.3,0.4,0.4,0.8,0.4,1.3
	c0,0.5-0.1,0.9-0.4,1.3c-0.3,0.4-0.6,0.6-1,0.8c-0.4,0.2-0.9,0.3-1.4,0.4c-0.5,0.1-1,0.1-1.5,0.1h-0.5c0.1,0.5,0.3,1.1,0.7,1.5
	c0.4,0.4,1,0.6,1.7,0.6c0.4,0,0.8-0.1,1.2-0.2c0.3-0.1,0.6-0.3,0.9-0.5l0.3,1.2c-0.2,0.2-0.4,0.3-0.6,0.4c-0.3,0.1-0.6,0.2-0.9,0.3
	C190.4,78.8,190,78.9,189.7,78.9z M187.5,74.4h0.4c0.3,0,0.6,0,0.9,0c0.3,0,0.6-0.1,0.9-0.2c0.3-0.1,0.5-0.2,0.7-0.4
	c0.2-0.2,0.3-0.5,0.3-0.8c0-0.3-0.1-0.6-0.4-0.8c-0.2-0.2-0.5-0.2-0.8-0.2c-0.4,0-0.8,0.1-1.1,0.3c-0.3,0.2-0.5,0.6-0.7,0.9
	C187.6,73.6,187.5,74,187.5,74.4z"/>
<path class="st1" d="M193.7,78.8l-0.2-0.9l1-0.2v-5.8h-0.9l-0.1-1l2-0.4l0.5,0.8c0.2-0.2,0.5-0.4,0.8-0.6c0.3-0.1,0.6-0.2,0.9-0.2
	c0.5,0,0.9,0.1,1.3,0.4c0.4,0.2,0.6,0.5,0.8,0.9l-1.7,0.8l-0.6-0.8c-0.2,0-0.4,0.1-0.6,0.2c-0.3,0.1-0.5,0.3-0.6,0.6
	c-0.2,0.3-0.3,0.7-0.3,1.1v3.7l2.2,0.5v0.9L193.7,78.8z"/>
<path class="st1" d="M204.8,78.8l-0.2-0.9l1-0.2v-5.9h-1.1l-0.2-1.1l0.1-0.2h1.3v-1.4c0-0.5,0.1-1,0.3-1.5c0.2-0.4,0.5-0.7,0.8-0.9
	c0.4-0.2,0.8-0.3,1.2-0.3c0.2,0,0.5,0,0.7,0.1c0.3,0.1,0.5,0.2,0.8,0.3c0.3,0.2,0.5,0.3,0.7,0.6l-1.4,1.2l-0.8-0.9h-0.2
	c-0.2,0-0.4,0.1-0.6,0.3c-0.1,0.2-0.2,0.4-0.1,0.7v2h1.9c0.1,0,0.1,0,0.1,0.1v1.1h-2v5.9l1.8,0.2v0.9L204.8,78.8z"/>
<path class="st1" d="M212.7,78.9c-0.4,0-0.9-0.1-1.3-0.3c-0.8-0.4-1.2-1.2-1.2-2c0-0.5,0.1-0.9,0.4-1.3c0.3-0.4,0.7-0.6,1.1-0.8
	c0.5-0.2,0.9-0.3,1.4-0.4c0.5-0.1,0.9-0.1,1.4-0.1v-1.2c0-0.3-0.1-0.5-0.3-0.6c-0.3-0.2-0.6-0.3-1-0.2h-0.4c-0.1,0-0.3,0.1-0.4,0.1
	l-0.3,1.1l-1.7-0.6c0.2-0.6,0.6-1.1,1.1-1.4c0.6-0.3,1.2-0.5,1.9-0.5c0.5,0,1,0.1,1.5,0.3c0.4,0.2,0.8,0.5,1,0.8
	c0.3,0.4,0.4,0.9,0.4,1.4v4.1c0,0.1,0,0.2,0.1,0.3c0.1,0.1,0.2,0.1,0.2,0.1c0.1,0,0.1,0,0.2,0c0,0,0.1,0,0.1,0l0.2,0.8
	c-0.1,0.1-0.3,0.2-0.4,0.3c-0.2,0.1-0.5,0.2-0.7,0.2c-0.3,0-0.5-0.1-0.8-0.2c-0.2-0.1-0.3-0.3-0.4-0.6c-0.3,0.2-0.5,0.4-0.9,0.6
	C213.5,78.8,213.1,78.9,212.7,78.9z M212.9,77.6c0.3,0,0.7-0.1,0.9-0.2c0.3-0.1,0.5-0.4,0.6-0.6v-1.6c-0.2,0-0.5,0-0.9,0.1
	c-0.3,0-0.6,0.1-0.9,0.2c-0.3,0.1-0.5,0.2-0.7,0.4c-0.2,0.2-0.3,0.5-0.3,0.7c0,0.3,0.1,0.6,0.3,0.8
	C212.3,77.5,212.6,77.6,212.9,77.6z"/>
<path class="st1" d="M217.9,78.8l-0.1-0.9l1-0.2v-10h-0.9l-0.2-1l2.1-0.3l0.5,0.6v10.8l1.1,0.2v0.9H217.9z"/>
<path class="st1" d="M222.3,78.8l-0.1-0.9l1-0.2v-10h-0.9l-0.2-1l2.1-0.3l0.6,0.6v10.8l1.1,0.2v0.9H222.3z"/>
<path class="st1" d="M229.3,78.9c-0.4,0-0.9-0.1-1.3-0.3c-0.8-0.4-1.2-1.2-1.2-2c0-0.5,0.1-1,0.4-1.3c0.3-0.4,0.7-0.6,1.1-0.8
	c0.5-0.2,0.9-0.3,1.4-0.4c0.5-0.1,0.9-0.1,1.4-0.1v-1.2c0-0.3-0.1-0.5-0.3-0.6c-0.3-0.2-0.6-0.3-1-0.2h-0.4c-0.1,0-0.3,0.1-0.4,0.1
	l-0.3,1.1l-1.7-0.6c0.2-0.6,0.6-1.1,1.2-1.4c0.6-0.3,1.2-0.5,1.9-0.5c0.5,0,1,0.1,1.5,0.3c0.4,0.2,0.8,0.5,1,0.8
	c0.3,0.4,0.4,0.9,0.4,1.4v4.1c0,0.1,0,0.2,0.1,0.3c0.1,0.1,0.2,0.1,0.2,0.1c0.1,0,0.1,0,0.2,0c0,0,0.1,0,0.1,0l0.2,0.8
	c-0.1,0.1-0.3,0.2-0.4,0.3c-0.2,0.1-0.5,0.2-0.7,0.2c-0.3,0-0.5-0.1-0.8-0.2c-0.2-0.1-0.3-0.3-0.4-0.6c-0.3,0.2-0.5,0.4-0.9,0.6
	C230.1,78.9,229.7,78.9,229.3,78.9z M229.5,77.6c0.3,0,0.6-0.1,0.9-0.2c0.3-0.1,0.5-0.4,0.6-0.6v-1.6c-0.2,0-0.5,0-0.8,0.1
	c-0.3,0-0.6,0.1-0.9,0.2c-0.3,0.1-0.5,0.2-0.7,0.4c-0.2,0.2-0.3,0.5-0.3,0.7c0,0.3,0.1,0.6,0.3,0.8
	C228.9,77.5,229.2,77.6,229.5,77.6L229.5,77.6z"/>
<path class="st1" d="M238.1,78.9c-0.5,0-1-0.1-1.4-0.3c-0.4-0.2-0.8-0.5-1.1-0.8c-0.3-0.4-0.6-0.8-0.8-1.3c-0.2-0.5-0.3-1.1-0.3-1.7
	c0-0.6,0.1-1.2,0.3-1.8c0.2-0.5,0.4-0.9,0.8-1.3c0.3-0.4,0.7-0.6,1.1-0.8c0.5-0.2,1-0.3,1.4-0.3c0.3,0,0.7,0,1,0.1
	c0.3,0.1,0.5,0.2,0.7,0.3c0.2,0.1,0.4,0.2,0.5,0.4l0.3,0.3l-1.4,1.1l-0.9-0.9h-0.4c-0.4,0-0.8,0.1-1.1,0.4c-0.3,0.3-0.5,0.7-0.6,1.1
	c-0.1,0.5-0.2,1-0.2,1.5c0,0.5,0.1,0.9,0.2,1.3c0.1,0.4,0.4,0.7,0.7,1c0.4,0.3,0.9,0.4,1.4,0.4c0.3,0,0.5,0,0.7-0.1
	c0.2-0.1,0.4-0.1,0.6-0.2c0.2-0.1,0.3-0.2,0.5-0.3l0.4,1.1c-0.3,0.3-0.7,0.5-1.1,0.6C239,78.8,238.6,78.9,238.1,78.9z"/>
<path class="st1" d="M243.1,83.5c-0.3,0-0.6-0.1-0.9-0.2c-0.3-0.1-0.6-0.3-0.9-0.5l0.7-1.2l0.4,0.3c0.2,0.1,0.4,0.2,0.6,0.2
	c0.2,0,0.3,0,0.5-0.1c0.1-0.1,0.2-0.3,0.3-0.5c0.1-0.2,0.2-0.4,0.3-0.7l0.4-1.1l-2.8-8h-0.6l-0.1-1l2.1-0.2l2.3,6.8l2-5.6h-0.7
	l-0.1-1l2-0.1l0.3,0.6c-0.1,0.3-0.2,0.6-0.4,1s-0.3,0.9-0.5,1.4s-0.4,1.1-0.6,1.6s-0.4,1.2-0.6,1.7s-0.4,1.1-0.6,1.7
	s-0.4,1.1-0.6,1.5s-0.3,0.9-0.4,1.2c-0.2,0.4-0.4,0.8-0.6,1.1c-0.2,0.3-0.4,0.5-0.7,0.7C243.6,83.4,243.3,83.5,243.1,83.5z"/>
<path class="st1" d="M254,78.8l-0.2-0.9l1-0.2v-5.9h-1.1l-0.2-1.1l0.1-0.2h1.3v-1.4c0-0.5,0.1-1,0.3-1.5c0.2-0.4,0.5-0.7,0.8-0.9
	c0.4-0.2,0.8-0.3,1.2-0.3c0.2,0,0.5,0,0.7,0.1c0.3,0.1,0.5,0.2,0.8,0.3c0.3,0.2,0.5,0.3,0.7,0.6l-1.4,1.2l-0.8-0.9h-0.2
	c-0.2,0-0.4,0.1-0.6,0.3c-0.1,0.2-0.1,0.4-0.1,0.7v2h1.9c0.1,0,0.1,0,0.1,0.1v1.1h-2v5.9l1.8,0.2v0.9L254,78.8z"/>
<path class="st1" d="M259.5,78.8l-0.2-0.9l1-0.2v-5.8h-0.9l-0.2-1l2.1-0.4l0.5,0.6v6.6l1,0.2v0.9L259.5,78.8z M260.9,68.5
	c-0.6,0-1-0.4-1.1-0.9c0,0,0,0,0-0.1c0-0.3,0.1-0.6,0.3-0.8c0.4-0.4,1.1-0.4,1.5,0c0.2,0.2,0.3,0.5,0.3,0.8
	C261.9,68.1,261.5,68.5,260.9,68.5C260.9,68.5,260.9,68.5,260.9,68.5z"/>
<path class="st1" d="M264.1,78.8l-0.1-0.9l1-0.2v-5.8H264l-0.2-1l2.1-0.4l0.5,0.7c0.3-0.2,0.6-0.4,0.9-0.5c0.4-0.1,0.7-0.2,1.1-0.2
	c0.5,0,0.9,0.1,1.3,0.3c0.4,0.2,0.7,0.4,0.9,0.8c0.2,0.4,0.3,0.9,0.3,1.3v4.8l1,0.2v0.9h-3.5v-0.9l0.9-0.2v-4.4c0-0.4-0.1-0.7-0.3-1
	c-0.3-0.2-0.6-0.4-0.9-0.3c-0.3,0-0.7,0.1-1,0.2c-0.3,0.1-0.5,0.3-0.8,0.5v5.1l1,0.2v0.9L264.1,78.8z"/>
<path class="st1" d="M276.2,78.9c-0.6,0-1.3-0.2-1.8-0.6c-0.5-0.4-0.9-0.9-1.1-1.5c-0.3-0.6-0.4-1.3-0.4-2c0-0.6,0.1-1.3,0.3-1.8
	c0.2-0.5,0.4-0.9,0.8-1.3c0.3-0.3,0.7-0.6,1.1-0.8c0.4-0.2,0.9-0.3,1.4-0.3c0.3,0,0.5,0,0.8,0.1c0.2,0.1,0.4,0.1,0.6,0.2v-3.2h-1
	l-0.2-1l2.1-0.3l0.5,0.6v10.4c0,0.1,0,0.2,0.1,0.3c0.1,0.1,0.2,0.1,0.3,0.1c0.1,0,0.1,0,0.2,0h0.1l0.3,0.8c-0.2,0.1-0.3,0.2-0.5,0.3
	c-0.2,0.1-0.5,0.2-0.7,0.2c-0.3,0-0.5-0.1-0.7-0.2c-0.2-0.1-0.3-0.3-0.4-0.5c-0.2,0.2-0.5,0.4-0.8,0.5
	C276.9,78.9,276.5,78.9,276.2,78.9z M276.4,77.6c0.3,0,0.6-0.1,0.9-0.2c0.3-0.1,0.5-0.4,0.6-0.6v-4.4c-0.2-0.2-0.4-0.3-0.6-0.3
	c-0.2-0.1-0.5-0.1-0.7-0.1c-0.4,0-0.8,0.1-1.1,0.4c-0.3,0.3-0.6,0.6-0.7,1c-0.2,0.5-0.3,1.1-0.2,1.6c0,0.5,0.1,0.9,0.2,1.4
	c0.1,0.4,0.3,0.7,0.6,1C275.6,77.5,276,77.6,276.4,77.6z"/>
<path class="st1" d="M285.2,78.9c-0.7,0-1.4-0.2-2-0.5c-0.6-0.3-1-0.8-1.3-1.4c-0.3-0.7-0.5-1.4-0.5-2.2c0-0.8,0.1-1.6,0.5-2.3
	c0.3-0.6,0.8-1.1,1.4-1.5c0.6-0.3,1.2-0.5,1.8-0.5c0.5,0,0.9,0.1,1.3,0.3c0.4,0.2,0.7,0.4,1,0.8c0.3,0.4,0.4,0.8,0.4,1.3
	c0,0.5-0.1,0.9-0.4,1.3c-0.3,0.4-0.6,0.6-1,0.8c-0.4,0.2-0.9,0.3-1.4,0.4c-0.5,0.1-1,0.1-1.5,0.1H283c0.1,0.5,0.3,1.1,0.7,1.5
	c0.4,0.4,1,0.6,1.7,0.6c0.4,0,0.8-0.1,1.2-0.2c0.3-0.1,0.6-0.3,0.9-0.5l0.3,1.2c-0.2,0.2-0.4,0.3-0.6,0.4c-0.3,0.1-0.6,0.2-0.9,0.3
	C285.9,78.8,285.5,78.9,285.2,78.9z M283,74.4h0.4c0.3,0,0.6,0,0.9,0c0.3,0,0.6-0.1,0.9-0.2c0.3-0.1,0.5-0.2,0.7-0.4
	c0.2-0.2,0.3-0.5,0.3-0.8c0-0.3-0.1-0.6-0.4-0.8c-0.2-0.2-0.5-0.2-0.8-0.2c-0.4,0-0.8,0.1-1.1,0.3c-0.3,0.2-0.5,0.6-0.7,0.9
	C283.1,73.6,283,74,283,74.4z"/>
<path class="st1" d="M289.2,78.8l-0.2-0.9l1-0.2v-5.8h-0.9l-0.1-1l2-0.4l0.5,0.8c0.2-0.2,0.5-0.4,0.8-0.6c0.3-0.1,0.6-0.2,0.9-0.2
	c0.5,0,0.9,0.1,1.3,0.4c0.4,0.2,0.6,0.5,0.8,0.9l-1.7,0.8l-0.5-0.8c-0.2,0-0.4,0.1-0.6,0.2c-0.3,0.1-0.5,0.3-0.6,0.6
	c-0.2,0.3-0.3,0.7-0.3,1.1v3.7l2.2,0.5v0.9L289.2,78.8z"/>
<path class="st1" d="M295.5,80.8v-0.2l0.8-1.6l-0.4-2.1l1.8-0.2c0,0.1,0,0.2,0.1,0.5c0,0.3,0.1,0.5,0.1,0.8c0,0.4-0.1,0.9-0.2,1.3
	c-0.1,0.4-0.3,0.8-0.5,1.2c-0.2,0.3-0.4,0.6-0.6,0.9L295.5,80.8z"/>
<path class="st1" d="M99.2,99.3c-0.4,0-0.9-0.1-1.3-0.3c-0.4-0.2-0.7-0.5-0.9-0.8c-0.2-0.3-0.3-0.8-0.3-1.2c0-0.5,0.1-1,0.4-1.3
	c0.3-0.4,0.7-0.6,1.1-0.8c0.5-0.2,0.9-0.3,1.4-0.4c0.5-0.1,0.9-0.1,1.4-0.1v-1.2c0-0.3-0.1-0.5-0.3-0.6c-0.3-0.2-0.6-0.3-1-0.2h-0.4
	c-0.1,0-0.3,0.1-0.4,0.1l-0.3,1.1l-1.7-0.6c0.2-0.6,0.6-1.1,1.2-1.4c0.6-0.3,1.2-0.5,1.8-0.5c0.5,0,1,0.1,1.4,0.3
	c0.4,0.2,0.8,0.5,1,0.8c0.3,0.4,0.4,0.9,0.4,1.4v4.1c0,0.1,0,0.2,0.1,0.3c0.1,0.1,0.2,0.1,0.3,0.1h0.2c0,0,0.1,0,0.1,0l0.2,0.8
	c-0.1,0.1-0.3,0.2-0.4,0.3c-0.2,0.1-0.5,0.2-0.7,0.2c-0.5,0-1-0.3-1.2-0.8c-0.2,0.2-0.5,0.4-0.9,0.6C100,99.3,99.6,99.3,99.2,99.3z
	 M99.5,98c0.3,0,0.6-0.1,0.9-0.2c0.3-0.1,0.5-0.4,0.6-0.6v-1.6c-0.2,0-0.5,0-0.8,0.1c-0.3,0-0.6,0.1-0.9,0.2
	c-0.3,0.1-0.5,0.2-0.7,0.4c-0.4,0.4-0.4,1.1,0,1.5C98.8,97.9,99.2,98,99.5,98L99.5,98z"/>
<path class="st1" d="M104.6,99.2l-0.2-0.9l1-0.2v-5.8h-0.9l-0.2-1l2.1-0.4l0.5,0.7c0.6-0.4,1.3-0.6,2-0.7c0.5,0,0.9,0.1,1.3,0.3
	c0.4,0.2,0.7,0.4,0.9,0.8c0.2,0.4,0.4,0.9,0.3,1.3V98l1,0.2v0.9h-3.4v-0.9L110,98v-4.4c0-0.4-0.1-0.7-0.3-1
	c-0.3-0.2-0.6-0.4-0.9-0.3c-0.3,0-0.7,0.1-1,0.2c-0.3,0.1-0.5,0.3-0.8,0.4v5.1l1,0.2v0.9L104.6,99.2z"/>
<path class="st1" d="M116.7,99.3c-0.6,0-1.3-0.2-1.8-0.6c-0.5-0.4-0.9-0.9-1.1-1.5c-0.3-0.6-0.4-1.3-0.4-2c0-0.6,0.1-1.3,0.3-1.8
	c0.2-0.5,0.4-1,0.8-1.4c0.3-0.3,0.7-0.6,1.1-0.8c0.4-0.2,0.9-0.3,1.4-0.3c0.3,0,0.5,0,0.8,0.1c0.2,0,0.4,0.1,0.6,0.2v-3.2h-1l-0.2-1
	l2.1-0.3l0.5,0.6v10.4c0,0.1,0,0.2,0.1,0.3c0.1,0.1,0.2,0.1,0.3,0.1c0.1,0,0.1,0,0.2,0l0.2-0.1l0.3,0.8c-0.2,0.1-0.3,0.2-0.5,0.3
	c-0.2,0.1-0.5,0.2-0.7,0.2c-0.3,0-0.5-0.1-0.7-0.2c-0.2-0.1-0.3-0.3-0.4-0.5c-0.2,0.2-0.5,0.4-0.8,0.5
	C117.4,99.3,117.1,99.3,116.7,99.3z M117,98c0.3,0,0.6-0.1,0.8-0.2c0.3-0.1,0.5-0.4,0.6-0.6v-4.4c-0.2-0.2-0.4-0.3-0.6-0.3
	c-0.2-0.1-0.5-0.1-0.7-0.1c-0.4,0-0.8,0.1-1.1,0.4c-0.3,0.3-0.6,0.6-0.7,1c-0.2,0.5-0.3,1.1-0.2,1.6c0,0.5,0.1,0.9,0.2,1.4
	c0.1,0.4,0.3,0.7,0.6,1C116.2,97.9,116.6,98.1,117,98L117,98z"/>
<path class="st1" d="M126.4,99.2l-0.2-1.2l1-0.2v-9l-1.1-0.1v-1.3h3.7l0.2,1.3l-1.1,0.2v8.9L130,98v1.2H126.4z"/>
<path class="st1" d="M132.5,91.9l-1-0.5v-0.2l0.7-1.8l-0.4-2.1l1.7-0.3c0,0.1,0.1,0.3,0.1,0.6c0,0.3,0.1,0.6,0.1,0.9
	c0,0.4-0.1,0.8-0.2,1.3c-0.1,0.4-0.2,0.8-0.4,1.2C132.9,91.3,132.7,91.6,132.5,91.9z"/>
<path class="st1" d="M134.8,99.2l-0.1-0.9l1-0.2v-10h-0.9l-0.2-1l2.1-0.3l0.6,0.6v10.8l1.1,0.2v0.9L134.8,99.2z"/>
<path class="st1" d="M139.2,99.2l-0.1-0.9l1-0.2v-10h-0.9l-0.2-1l2.1-0.3l0.5,0.6v10.8l1.1,0.2v0.9L139.2,99.2z"/>
<path class="st1" d="M148.8,99.3l-0.4-0.2v-11h-1l-0.2-1l2.1-0.3l0.5,0.6v4.1c0.2-0.2,0.5-0.3,0.7-0.4c0.3-0.1,0.6-0.1,0.9-0.1
	c0.7,0,1.3,0.2,1.8,0.5c0.5,0.4,0.9,0.9,1.1,1.4c0.3,0.7,0.4,1.4,0.4,2.1c0,0.6-0.1,1.2-0.3,1.8c-0.2,0.5-0.4,0.9-0.8,1.3
	c-0.3,0.4-0.7,0.7-1.1,0.8c-0.8,0.3-1.6,0.4-2.4,0.2c-0.3-0.1-0.6-0.2-0.8-0.3L148.8,99.3z M151.3,98.1c0.4,0,0.8-0.1,1.2-0.4
	c0.3-0.3,0.5-0.6,0.7-1c0.2-0.5,0.2-1,0.2-1.5c0-0.5-0.1-1-0.2-1.5c-0.1-0.4-0.3-0.7-0.6-1c-0.3-0.3-0.7-0.4-1.1-0.4
	c-0.3,0-0.6,0.1-0.8,0.2c-0.2,0.1-0.5,0.2-0.6,0.4v4.8c0.2,0.1,0.4,0.2,0.6,0.3C150.8,98.1,151.1,98.1,151.3,98.1z"/>
<path class="st1" d="M160,99.3c-0.7,0-1.4-0.2-2-0.5c-0.6-0.3-1-0.8-1.3-1.4c-0.3-0.7-0.5-1.4-0.5-2.2c0-0.8,0.2-1.6,0.5-2.3
	c0.3-0.6,0.8-1.1,1.3-1.5c0.6-0.3,1.2-0.5,1.9-0.5c0.5,0,0.9,0.1,1.3,0.3c0.4,0.2,0.7,0.4,1,0.8c0.3,0.4,0.4,0.8,0.4,1.3
	c0,0.5-0.1,0.9-0.4,1.3c-0.3,0.4-0.6,0.6-1,0.8c-0.4,0.2-0.9,0.3-1.4,0.4c-0.5,0.1-1,0.1-1.5,0.1h-0.5c0.1,0.5,0.3,1.1,0.7,1.5
	c0.4,0.4,1,0.6,1.6,0.6c0.4,0,0.8-0.1,1.2-0.2c0.3-0.1,0.6-0.3,0.9-0.5l0.3,1.2c-0.2,0.2-0.4,0.3-0.6,0.4c-0.3,0.1-0.6,0.2-0.9,0.3
	C160.6,99.3,160.3,99.3,160,99.3z M157.8,94.8h0.4c0.3,0,0.6,0,0.9,0c0.3,0,0.6-0.1,0.9-0.2c0.3-0.1,0.5-0.2,0.7-0.4
	c0.2-0.2,0.3-0.5,0.3-0.8c0-0.3-0.1-0.6-0.4-0.8c-0.2-0.2-0.5-0.2-0.8-0.2c-0.4,0-0.8,0.1-1.1,0.3c-0.3,0.2-0.5,0.6-0.7,0.9
	C157.9,93.9,157.8,94.4,157.8,94.8z"/>
<path class="st1" d="M170.7,99.3c-0.3,0-0.7-0.1-0.9-0.2c-0.3-0.2-0.5-0.4-0.6-0.7c-0.2-0.4-0.3-0.8-0.2-1.2v-5h-1.3l-0.2-1l0.1-0.2
	h1.5v-2.8l1.4-0.3l0.2,0.2V91h1.8c0.1,0,0.1,0,0.1,0.1v1.1h-1.9v5c0,0.2,0,0.5,0.2,0.6c0.1,0.1,0.3,0.2,0.5,0.2
	c0.2,0,0.5-0.1,0.6-0.2c0.2-0.1,0.3-0.2,0.5-0.3l0.3,1.1c-0.2,0.2-0.4,0.3-0.7,0.4C171.5,99.3,171.1,99.3,170.7,99.3z"/>
<path class="st1" d="M177.1,99.3c-0.7,0-1.4-0.2-2-0.5c-0.6-0.3-1-0.8-1.3-1.4c-0.3-0.7-0.5-1.4-0.5-2.2c0-0.8,0.2-1.6,0.5-2.3
	c0.3-0.6,0.8-1.1,1.3-1.5c0.6-0.3,1.2-0.5,1.8-0.5c0.5,0,0.9,0.1,1.3,0.3c0.4,0.2,0.7,0.4,1,0.8c0.3,0.4,0.4,0.8,0.4,1.3
	c0,0.5-0.1,0.9-0.4,1.3c-0.3,0.4-0.6,0.6-1,0.8c-0.4,0.2-0.9,0.3-1.4,0.4c-0.5,0.1-1,0.1-1.5,0.1H175c0.1,0.5,0.3,1,0.7,1.5
	c0.4,0.4,1,0.6,1.7,0.6c0.4,0,0.8-0.1,1.2-0.2c0.3-0.1,0.6-0.3,0.9-0.5l0.3,1.2c-0.2,0.2-0.4,0.3-0.6,0.4
	C178.4,99.2,177.8,99.3,177.1,99.3L177.1,99.3z M175,94.8h0.4c0.3,0,0.6,0,0.9,0c0.3,0,0.6-0.1,0.9-0.2c0.3-0.1,0.5-0.2,0.7-0.4
	c0.2-0.2,0.3-0.5,0.3-0.8c0-0.3-0.1-0.6-0.4-0.8c-0.2-0.2-0.5-0.2-0.8-0.2c-0.4,0-0.8,0.1-1.1,0.3c-0.3,0.2-0.6,0.6-0.7,0.9
	C175.1,93.9,175,94.4,175,94.8L175,94.8z"/>
<path class="st1" d="M183.7,99.3c-0.5,0-0.9-0.1-1.4-0.3c-0.4-0.2-0.7-0.4-1-0.7c-0.2-0.2-0.4-0.5-0.6-0.8l1.7-0.7l0.4,1l0.3,0.1
	c0.2,0,0.4,0.1,0.6,0.1c0.2,0,0.3,0,0.5-0.1c0.2-0.1,0.3-0.2,0.5-0.3c0.1-0.2,0.2-0.4,0.2-0.6c0-0.2-0.1-0.5-0.2-0.6
	c-0.2-0.2-0.4-0.3-0.6-0.4c-0.3-0.1-0.6-0.2-0.9-0.3c-0.6-0.2-1.1-0.6-1.6-1c-0.4-0.4-0.6-0.9-0.5-1.4c0-0.4,0.1-0.9,0.4-1.2
	c0.3-0.4,0.6-0.6,1-0.8c0.4-0.2,0.9-0.3,1.4-0.3c0.5,0,0.9,0.1,1.4,0.3c0.3,0.2,0.7,0.4,0.9,0.7c0.2,0.2,0.4,0.5,0.5,0.7l-1.7,0.7
	l-0.4-0.9l-0.2-0.1c-0.3-0.1-0.7-0.1-1,0c-0.2,0.1-0.3,0.2-0.4,0.3c-0.1,0.2-0.2,0.3-0.2,0.5c0,0.2,0.1,0.4,0.2,0.5
	c0.2,0.2,0.4,0.3,0.7,0.4l1.1,0.4c0.5,0.2,1,0.5,1.3,0.9c0.3,0.4,0.5,0.9,0.5,1.4c0,0.5-0.1,1-0.4,1.3c-0.3,0.4-0.6,0.6-1,0.8
	C184.7,99.2,184.2,99.3,183.7,99.3z"/>
<path class="st1" d="M190.7,99.3c-0.3,0-0.7-0.1-1-0.2c-0.3-0.2-0.5-0.4-0.6-0.7c-0.2-0.4-0.3-0.8-0.2-1.2v-5h-1.3l-0.2-1l0.1-0.2
	h1.5v-2.8l1.4-0.3l0.1,0.2V91h1.8c0.1,0,0.1,0,0.1,0.1v1.1h-1.9v5c0,0.3,0.1,0.6,0.2,0.6c0.1,0.1,0.3,0.2,0.5,0.2
	c0.2,0,0.4-0.1,0.6-0.2c0.2-0.1,0.3-0.2,0.5-0.3l0.3,1.1c-0.2,0.2-0.4,0.3-0.7,0.4C191.4,99.2,191.1,99.3,190.7,99.3z"/>
<path class="st1" d="M193.5,99.2l-0.2-0.9l1-0.2v-5.8h-0.9l-0.2-1l2.1-0.4l0.5,0.6v6.6l1,0.2v0.9L193.5,99.2z M194.9,88.9
	c-0.3,0-0.6-0.1-0.8-0.3c-0.2-0.2-0.3-0.5-0.3-0.8c0-0.6,0.4-1,1-1c0,0,0,0,0.1,0c0.3,0,0.6,0.1,0.8,0.3c0.2,0.2,0.3,0.5,0.3,0.8
	C195.9,88.5,195.5,88.9,194.9,88.9L194.9,88.9z"/>
<path class="st1" d="M198.1,99.2l-0.2-0.9l0.9-0.2v-5.8h-0.9l-0.2-1l2.1-0.4l0.5,0.7c0.6-0.4,1.3-0.6,2-0.7c0.5,0,0.9,0.1,1.3,0.3
	c0.4,0.2,0.7,0.4,0.9,0.8c0.2,0.4,0.3,0.9,0.3,1.3V98l1,0.2v0.9h-3.4v-0.9l0.9-0.2v-4.4c0-0.4-0.1-0.7-0.3-1
	c-0.3-0.2-0.6-0.4-0.9-0.3c-0.3,0-0.7,0.1-1,0.2c-0.3,0.1-0.5,0.3-0.8,0.4v5.1l1,0.2v0.9L198.1,99.2z"/>
<path class="st1" d="M210,103.8c-0.6,0-1.1-0.1-1.7-0.3c-0.5-0.2-0.9-0.5-1.2-0.9c-0.3-0.4-0.4-0.9-0.4-1.4c0-0.5,0.1-1,0.4-1.4
	c0.3-0.3,0.6-0.6,1-0.8c-0.1-0.1-0.3-0.3-0.4-0.4c-0.1-0.2-0.1-0.4-0.1-0.6c0-0.3,0.1-0.5,0.2-0.7c0.1-0.2,0.3-0.4,0.4-0.6
	c-0.4-0.3-0.7-0.6-0.9-1c-0.5-1-0.5-2.2,0.1-3.1c0.3-0.5,0.7-0.8,1.2-1.1c0.5-0.3,1-0.4,1.6-0.4c0.4,0,0.8,0.1,1.1,0.2
	c0.4,0.1,0.7,0.3,1,0.5l1.7-0.8h0.4l0.2,1.4l-1.5,0.2c0.1,0.2,0.2,0.5,0.3,0.7c0.1,0.3,0.1,0.6,0.1,0.8c0,0.6-0.1,1.1-0.4,1.6
	c-0.3,0.4-0.7,0.8-1.2,1c-0.5,0.2-1,0.4-1.6,0.4h-0.4c-0.1,0-0.2,0-0.4,0l-0.3,0.5v0.3l1.8,0.4c0.5,0.1,1,0.3,1.4,0.5
	c0.4,0.2,0.7,0.4,0.9,0.8c0.2,0.4,0.4,0.8,0.3,1.2c0,0.6-0.2,1.2-0.5,1.7c-0.4,0.4-0.8,0.8-1.4,1C211.2,103.7,210.6,103.8,210,103.8
	z M210.2,102.2c0.4,0,0.7,0,1.1-0.2c0.3-0.1,0.6-0.2,0.8-0.5c0.2-0.2,0.3-0.4,0.3-0.7c0-0.2-0.1-0.5-0.3-0.6
	c-0.2-0.2-0.5-0.3-0.8-0.4c-0.3-0.1-0.7-0.2-1-0.2s-0.7-0.2-1.1-0.3c-0.3,0.1-0.6,0.3-0.8,0.6c-0.2,0.2-0.3,0.5-0.3,0.8
	c0,0.3,0.1,0.5,0.3,0.7c0.2,0.2,0.5,0.4,0.8,0.5C209.5,102.2,209.8,102.3,210.2,102.2z M210.2,95.8c0.5,0,0.9-0.2,1.2-0.5
	c0.3-0.4,0.4-0.8,0.4-1.3c0-0.5-0.1-0.9-0.4-1.3c-0.3-0.4-0.7-0.6-1.2-0.5c-0.5,0-0.9,0.2-1.2,0.5c-0.3,0.4-0.4,0.8-0.4,1.3
	c0,0.5,0.1,0.9,0.4,1.3C209.3,95.7,209.7,95.9,210.2,95.8L210.2,95.8z"/>
<path class="st1" d="M220.8,103.9c-0.3,0-0.6-0.1-0.9-0.2c-0.3-0.1-0.6-0.3-0.9-0.5l0.7-1.2l0.4,0.3c0.2,0.1,0.4,0.2,0.6,0.2
	c0.2,0,0.3-0.1,0.5-0.2c0.1-0.1,0.2-0.3,0.3-0.5c0.1-0.2,0.2-0.4,0.3-0.7l0.4-1.1l-2.8-8h-0.6l-0.1-1l2.1-0.2l2.3,6.8l2-5.6h-0.7
	l-0.1-1l2-0.1l0.3,0.6c-0.1,0.3-0.2,0.6-0.4,1s-0.3,0.9-0.5,1.4s-0.4,1.1-0.6,1.6s-0.4,1.2-0.6,1.7s-0.4,1.1-0.6,1.7
	s-0.4,1.1-0.6,1.5s-0.3,0.9-0.4,1.2c-0.2,0.4-0.4,0.8-0.6,1.1c-0.2,0.3-0.4,0.5-0.7,0.7C221.3,103.8,221,103.9,220.8,103.9z"/>
<path class="st1" d="M230.9,99.3c-0.7,0-1.3-0.2-1.9-0.6c-0.5-0.4-1-0.9-1.3-1.5c-0.3-0.7-0.5-1.4-0.4-2.2c0-0.7,0.1-1.5,0.5-2.2
	c0.3-0.6,0.7-1.1,1.3-1.5c0.5-0.3,1.2-0.5,1.8-0.5c0.7,0,1.3,0.2,1.9,0.5c0.5,0.4,1,0.9,1.3,1.5c0.3,0.7,0.5,1.4,0.5,2.1
	c0,0.7-0.1,1.5-0.4,2.2c-0.3,0.6-0.7,1.1-1.3,1.5C232.2,99.1,231.6,99.3,230.9,99.3z M230.9,98c0.4,0,0.8-0.1,1.1-0.4
	c0.3-0.3,0.5-0.6,0.7-1c0.2-0.5,0.2-1,0.2-1.5c0-0.5-0.1-1-0.2-1.5c-0.1-0.4-0.4-0.8-0.7-1.1c-0.3-0.3-0.7-0.4-1.1-0.4
	c-0.3,0-0.6,0.1-0.9,0.2c-0.3,0.2-0.5,0.4-0.6,0.7c-0.2,0.3-0.3,0.7-0.4,1c-0.1,0.4-0.1,0.8-0.1,1.1c0,0.5,0.1,1,0.2,1.4
	c0.1,0.4,0.4,0.7,0.7,1C230.1,98,230.5,98.1,230.9,98L230.9,98z"/>
<path class="st1" d="M239,99.3c-0.5,0-0.9-0.1-1.3-0.3c-0.4-0.2-0.7-0.5-0.9-0.8c-0.2-0.5-0.4-1-0.3-1.5v-4.3h-0.9l-0.2-1l2.1-0.4
	l0.5,0.6v4.9c0,0.3,0,0.6,0.1,0.8c0.1,0.2,0.2,0.3,0.4,0.5c0.1,0.1,0.3,0.2,0.5,0.2c0.2,0,0.3,0,0.5,0c0.3,0,0.6-0.1,0.9-0.2
	c0.3-0.1,0.5-0.3,0.6-0.6v-4.8h-0.8l-0.2-1l2.1-0.4l0.5,0.6v6.2c0,0.1,0,0.2,0.1,0.3c0.1,0.1,0.2,0.1,0.2,0.1c0.1,0,0.1,0,0.2,0
	c0,0,0.1,0,0.1,0l0.2,0.8c-0.1,0.1-0.3,0.2-0.4,0.3c-0.2,0.1-0.5,0.2-0.7,0.2c-0.2,0-0.5-0.1-0.7-0.2c-0.2-0.1-0.4-0.3-0.4-0.6
	c-0.3,0.3-0.6,0.5-1,0.6C239.7,99.2,239.3,99.3,239,99.3z"/>
<path class="st1" d="M252.1,99.3c-0.7,0-1.3-0.2-1.9-0.6c-0.5-0.4-1-0.9-1.2-1.5c-0.3-0.7-0.5-1.4-0.4-2.2c0-0.7,0.1-1.5,0.5-2.2
	c0.3-0.6,0.7-1.1,1.3-1.5c1.1-0.7,2.6-0.7,3.7,0c0.5,0.4,1,0.9,1.3,1.5c0.3,0.7,0.5,1.4,0.5,2.1c0,0.7-0.1,1.5-0.4,2.2
	c-0.3,0.6-0.7,1.1-1.3,1.5C253.4,99.1,252.7,99.3,252.1,99.3z M252.1,98c0.4,0,0.8-0.1,1.1-0.4c0.3-0.3,0.5-0.6,0.7-1
	c0.2-0.5,0.2-1,0.2-1.5c0-0.5-0.1-1-0.2-1.5c-0.1-0.4-0.4-0.8-0.7-1.1c-0.3-0.3-0.7-0.4-1.1-0.4c-0.3,0-0.6,0.1-0.9,0.2
	c-0.3,0.2-0.5,0.4-0.6,0.7c-0.2,0.3-0.3,0.6-0.4,1c-0.1,0.4-0.1,0.8-0.1,1.1c0,0.5,0.1,1,0.2,1.4c0.1,0.4,0.4,0.7,0.7,1
	C251.3,98,251.7,98.1,252.1,98L252.1,98z"/>
<path class="st1" d="M257,99.2l-0.1-0.9l1-0.2v-5.8h-0.9l-0.2-1l2.1-0.4l0.5,0.7c0.6-0.4,1.3-0.6,2-0.7c0.5,0,0.9,0.1,1.3,0.3
	c0.4,0.2,0.6,0.5,0.8,0.9c0.2,0.4,0.3,0.9,0.3,1.3v4.8l1,0.2v0.9h-3.4v-0.9l0.9-0.2v-4.5c0-0.4-0.1-0.7-0.3-1
	c-0.3-0.2-0.6-0.4-0.9-0.3c-0.3,0-0.7,0.1-1,0.2c-0.3,0.1-0.5,0.3-0.8,0.4v5.1l1,0.2v0.9L257,99.2z"/>
<path class="st1" d="M271.4,103.9c-0.3,0-0.6-0.1-0.9-0.2c-0.3-0.1-0.6-0.3-0.9-0.5l0.7-1.2l0.4,0.3c0.2,0.1,0.4,0.2,0.6,0.2
	c0.2,0,0.3-0.1,0.5-0.2c0.1-0.1,0.3-0.3,0.3-0.5c0.1-0.2,0.2-0.4,0.3-0.7l0.4-1.1l-2.8-8h-0.6l-0.1-1l2.1-0.2l2.3,6.8l2-5.6H275
	l-0.1-1l2-0.1l0.3,0.6c-0.1,0.3-0.2,0.6-0.4,1s-0.3,0.9-0.5,1.4s-0.4,1.1-0.6,1.6s-0.4,1.2-0.6,1.7s-0.4,1.1-0.6,1.7
	s-0.4,1.1-0.5,1.5s-0.3,0.9-0.5,1.2c-0.2,0.4-0.4,0.8-0.6,1.1c-0.2,0.3-0.4,0.5-0.7,0.7C271.9,103.8,271.7,103.9,271.4,103.9z"/>
<path class="st1" d="M281.5,99.3c-0.7,0-1.3-0.2-1.9-0.6c-0.5-0.4-1-0.9-1.3-1.5c-0.3-0.7-0.5-1.4-0.5-2.2c0-0.7,0.1-1.5,0.5-2.2
	c0.3-0.6,0.7-1.1,1.3-1.5c1.1-0.7,2.6-0.7,3.7,0c0.5,0.4,1,0.9,1.3,1.5c0.3,0.7,0.5,1.4,0.5,2.1c0,0.7-0.1,1.5-0.5,2.2
	c-0.3,0.6-0.7,1.1-1.3,1.5C282.8,99.1,282.2,99.3,281.5,99.3z M281.5,98.1c0.4,0,0.8-0.1,1.1-0.4c0.3-0.3,0.5-0.6,0.7-1
	c0.2-0.5,0.2-1,0.2-1.5c0-0.5-0.1-1-0.2-1.5c-0.1-0.4-0.4-0.8-0.7-1.1c-0.3-0.3-0.7-0.4-1.1-0.4c-0.3,0-0.6,0.1-0.9,0.2
	c-0.3,0.2-0.5,0.4-0.6,0.7c-0.2,0.3-0.3,0.6-0.4,1c-0.1,0.4-0.1,0.8-0.1,1.1c0,0.5,0.1,1,0.2,1.4c0.1,0.4,0.4,0.7,0.7,1
	C280.7,98,281.1,98.1,281.5,98.1z"/>
<path class="st1" d="M289.6,99.3c-0.5,0-0.9-0.1-1.3-0.3c-0.4-0.2-0.7-0.5-0.9-0.8c-0.2-0.5-0.4-1-0.3-1.5v-4.3h-0.9l-0.2-1l2.1-0.4
	l0.5,0.6v4.9c0,0.3,0,0.6,0.1,0.8c0.1,0.2,0.2,0.3,0.4,0.5c0.1,0.1,0.3,0.2,0.5,0.2c0.2,0,0.3,0,0.5,0c0.3,0,0.6-0.1,0.9-0.2
	c0.3-0.1,0.5-0.3,0.6-0.6v-4.8h-0.8l-0.2-1l2.1-0.4l0.5,0.6v6.2c0,0.1,0,0.2,0.1,0.3c0.1,0.1,0.1,0.1,0.2,0.1c0.1,0,0.1,0,0.2,0h0.1
	l0.2,0.8c-0.1,0.1-0.3,0.2-0.4,0.3c-0.2,0.1-0.5,0.2-0.7,0.2c-0.2,0-0.5-0.1-0.7-0.2c-0.2-0.1-0.4-0.3-0.4-0.6
	c-0.3,0.3-0.6,0.4-1,0.6C290.4,99.2,290,99.3,289.6,99.3z"/>
<path class="st1" d="M295.2,99.2l-0.2-0.9l1-0.2v-5.8h-0.9l-0.1-1l2-0.4l0.5,0.8c0.2-0.2,0.5-0.4,0.8-0.6c0.3-0.1,0.6-0.2,0.9-0.2
	c0.5,0,0.9,0.1,1.3,0.4c0.3,0.2,0.6,0.6,0.8,0.9l-1.7,0.8l-0.5-0.8c-0.2,0-0.4,0.1-0.6,0.2c-0.3,0.1-0.5,0.3-0.6,0.6
	c-0.2,0.3-0.3,0.7-0.3,1.1v3.7l2.2,0.5v0.9L295.2,99.2z"/>
<path class="st1" d="M123.1,119.6l-0.1-0.9l1-0.2v-10H123l-0.2-1l2.1-0.3l0.5,0.6v7.3l2.6-2.6h-0.8l-0.2-1h2.7l0.4,0.8l-2.6,2.5
	l2,3.9l0.9,0.2v0.9h-2.1l-1.9-3.8l-0.9,0.9v1.8l0.9,0.2v0.9L123.1,119.6z"/>
<path class="st1" d="M131.4,119.6l-0.1-0.9l1-0.2v-5.8l-0.9,0.1l-0.2-1l2.1-0.4l0.5,0.7c0.3-0.2,0.6-0.4,0.9-0.5
	c0.4-0.1,0.7-0.2,1.1-0.2c0.5,0,0.9,0.1,1.3,0.3c0.4,0.2,0.7,0.4,0.9,0.8c0.2,0.4,0.3,0.9,0.3,1.3v4.8l1,0.2v0.9h-3.4v-0.9l0.9-0.2
	v-4.4c0-0.4-0.1-0.7-0.3-1c-0.3-0.2-0.6-0.4-0.9-0.3c-0.3,0-0.7,0.1-1,0.2c-0.3,0.1-0.5,0.3-0.8,0.4v5.1l1,0.2v0.9L131.4,119.6z"/>
<path class="st1" d="M143.8,119.7c-0.7,0-1.3-0.2-1.9-0.6c-0.5-0.4-1-0.9-1.3-1.5c-0.3-0.7-0.5-1.4-0.4-2.2c0-0.7,0.1-1.5,0.5-2.2
	c0.3-0.6,0.7-1.1,1.3-1.5c1.1-0.7,2.6-0.7,3.7,0c0.5,0.4,1,0.9,1.3,1.5c0.3,0.7,0.5,1.4,0.4,2.1c0,0.7-0.1,1.5-0.4,2.2
	c-0.3,0.6-0.7,1.1-1.3,1.5C145.2,119.5,144.5,119.7,143.8,119.7z M143.8,118.4c0.4,0,0.8-0.1,1.1-0.4c0.3-0.3,0.5-0.6,0.7-1
	c0.2-0.5,0.2-1,0.2-1.5c0-0.5-0.1-1-0.2-1.5c-0.1-0.4-0.3-0.8-0.7-1.1c-0.3-0.3-0.7-0.4-1.1-0.4c-0.3,0-0.6,0.1-0.9,0.2
	c-0.3,0.2-0.5,0.4-0.6,0.7c-0.2,0.3-0.3,0.6-0.4,1c-0.1,0.4-0.1,0.8-0.1,1.1c0,0.5,0.1,1,0.2,1.4c0.1,0.4,0.4,0.7,0.7,1
	C143.1,118.3,143.4,118.5,143.8,118.4z"/>
<path class="st1" d="M150.4,119.6l-1.4-7.1h-0.7l-0.1-1l2.2-0.1l1.2,6.6l1.8-6.1h1.6l1.8,6.1l1.3-5.4h-0.7l-0.1-1l2-0.1l0.3,0.5
	l-1.9,7.7h-2l-1.6-5.6l-1.5,5.6H150.4z"/>
<path class="st1" d="M160.4,119.6l-0.1-0.9l1-0.2v-10h-0.9l-0.2-1l2.1-0.3l0.5,0.6v10.7l1.1,0.2v0.9L160.4,119.6z"/>
<path class="st1" d="M168.6,119.7c-0.7,0-1.4-0.2-1.9-0.5c-0.6-0.3-1-0.8-1.3-1.4c-0.3-0.7-0.5-1.4-0.5-2.2c0-0.8,0.1-1.6,0.5-2.3
	c0.3-0.6,0.8-1.1,1.3-1.5c0.6-0.3,1.2-0.5,1.8-0.5c0.5,0,0.9,0.1,1.3,0.3c0.4,0.2,0.7,0.4,1,0.8c0.3,0.4,0.4,0.8,0.4,1.3
	c0,0.5-0.1,0.9-0.4,1.3c-0.3,0.4-0.6,0.6-1,0.8c-0.4,0.2-0.9,0.3-1.4,0.4c-0.5,0.1-1,0.1-1.5,0.1h-0.5c0.1,0.5,0.3,1.1,0.7,1.5
	c0.4,0.4,1,0.6,1.7,0.6c0.4,0,0.8-0.1,1.2-0.2c0.3-0.1,0.6-0.3,0.9-0.5l0.3,1.2c-0.2,0.2-0.4,0.3-0.6,0.4
	C170,119.6,169.3,119.7,168.6,119.7L168.6,119.7z M166.4,115.2h0.4c0.3,0,0.6,0,0.9,0c0.3,0,0.6-0.1,0.9-0.2
	c0.3-0.1,0.5-0.2,0.7-0.4c0.2-0.2,0.3-0.5,0.3-0.8c0-0.3-0.1-0.6-0.4-0.8c-0.2-0.2-0.5-0.2-0.8-0.2c-0.4,0-0.7,0.1-1,0.4
	c-0.3,0.2-0.6,0.6-0.7,0.9C166.6,114.4,166.5,114.8,166.4,115.2z"/>
<path class="st1" d="M175.8,119.7c-0.6,0-1.3-0.2-1.8-0.6c-0.5-0.4-0.9-0.9-1.1-1.5c-0.3-0.7-0.4-1.3-0.4-2.1c0-0.6,0.1-1.3,0.3-1.8
	c0.2-0.5,0.4-0.9,0.8-1.3c0.3-0.3,0.7-0.6,1.1-0.8c0.4-0.2,0.9-0.3,1.4-0.3c0.3,0,0.5,0,0.8,0.1c0.2,0,0.4,0.1,0.6,0.2v-3.2h-1
	l-0.2-1l2.1-0.3l0.5,0.6v10.3c0,0.1,0,0.2,0.1,0.3c0.1,0.1,0.2,0.1,0.3,0.1c0.1,0,0.1,0,0.2,0h0.1l0.3,0.8c-0.2,0.1-0.3,0.2-0.5,0.3
	c-0.2,0.1-0.5,0.2-0.7,0.2c-0.3,0-0.5-0.1-0.7-0.2c-0.2-0.1-0.3-0.3-0.4-0.5c-0.2,0.2-0.5,0.4-0.8,0.5
	C176.4,119.7,176.1,119.7,175.8,119.7z M176,118.4c0.3,0,0.6-0.1,0.9-0.2c0.3-0.1,0.5-0.4,0.6-0.6v-4.4c-0.2-0.2-0.4-0.3-0.6-0.3
	c-0.2-0.1-0.5-0.1-0.7-0.1c-0.4,0-0.8,0.1-1.1,0.4c-0.3,0.3-0.6,0.6-0.7,1c-0.2,0.5-0.3,1.1-0.2,1.6c0,0.5,0.1,0.9,0.2,1.4
	c0.1,0.4,0.3,0.7,0.6,1C175.2,118.3,175.6,118.4,176,118.4z"/>
<path class="st1" d="M184.1,124.2c-0.6,0-1.1-0.1-1.7-0.3c-0.5-0.2-0.9-0.5-1.2-0.9c-0.3-0.4-0.4-0.9-0.4-1.4c0-0.5,0.1-1,0.4-1.4
	c0.3-0.4,0.6-0.6,1-0.8c-0.1-0.1-0.3-0.3-0.4-0.4c-0.1-0.2-0.1-0.4-0.1-0.6c0-0.3,0.1-0.5,0.2-0.7c0.1-0.2,0.3-0.4,0.4-0.6
	c-0.4-0.3-0.7-0.6-0.9-1c-0.5-1-0.5-2.2,0.1-3.1c0.3-0.5,0.7-0.8,1.2-1.1c0.5-0.3,1-0.4,1.6-0.4c0.4,0,0.8,0.1,1.1,0.2
	c0.4,0.1,0.7,0.3,1,0.5l1.7-0.8h0.4l0.2,1.4l-1.5,0.2c0.1,0.2,0.2,0.5,0.3,0.7c0.1,0.3,0.1,0.6,0.1,0.8c0,0.6-0.1,1.1-0.4,1.6
	c-0.3,0.4-0.7,0.8-1.2,1c-0.5,0.2-1,0.4-1.6,0.4H184l-0.3-0.1l-0.3,0.5v0.3l1.8,0.4c0.5,0.1,1,0.3,1.4,0.5c0.4,0.2,0.7,0.4,0.9,0.8
	c0.2,0.4,0.4,0.8,0.3,1.2c0,0.6-0.2,1.2-0.5,1.7c-0.4,0.4-0.8,0.8-1.4,1C185.3,124,184.7,124.2,184.1,124.2z M184.3,122.7
	c0.4,0,0.7,0,1.1-0.2c0.3-0.1,0.6-0.2,0.8-0.5c0.2-0.2,0.3-0.4,0.3-0.7c0-0.2-0.1-0.5-0.3-0.6c-0.2-0.2-0.5-0.3-0.8-0.4
	c-0.3-0.1-0.7-0.2-1-0.2s-0.7-0.2-1.1-0.3c-0.3,0.1-0.6,0.3-0.8,0.6c-0.2,0.2-0.3,0.5-0.3,0.8c0,0.3,0.1,0.5,0.3,0.7
	c0.2,0.2,0.5,0.4,0.8,0.5C183.6,122.6,184,122.7,184.3,122.7L184.3,122.7z M184.3,116.2c0.5,0,0.9-0.2,1.2-0.5
	c0.3-0.4,0.4-0.8,0.4-1.3c0-0.5-0.1-0.9-0.4-1.3c-0.3-0.4-0.8-0.6-1.2-0.5c-0.5,0-0.9,0.2-1.2,0.5c-0.3,0.4-0.4,0.8-0.4,1.3
	c0,0.5,0.1,0.9,0.4,1.3C183.4,116.1,183.8,116.3,184.3,116.2L184.3,116.2z"/>
<path class="st1" d="M193.1,119.7c-0.7,0-1.4-0.2-1.9-0.5c-0.6-0.3-1-0.8-1.3-1.4c-0.3-0.7-0.5-1.4-0.5-2.2c0-0.8,0.1-1.6,0.5-2.3
	c0.3-0.6,0.8-1.1,1.3-1.5c0.6-0.3,1.2-0.5,1.9-0.5c0.5,0,0.9,0.1,1.3,0.3c0.4,0.2,0.7,0.4,1,0.8c0.3,0.4,0.4,0.8,0.4,1.3
	c0,0.5-0.1,0.9-0.4,1.3c-0.3,0.4-0.6,0.6-1,0.8c-0.4,0.2-0.9,0.3-1.4,0.4c-0.5,0.1-1,0.1-1.5,0.1H191c0.1,0.5,0.3,1.1,0.7,1.5
	c0.4,0.4,1,0.6,1.6,0.6c0.4,0,0.8-0.1,1.2-0.2c0.3-0.1,0.6-0.3,0.9-0.5l0.3,1.2c-0.2,0.2-0.4,0.3-0.6,0.4c-0.3,0.1-0.6,0.2-0.9,0.3
	C193.8,119.7,193.4,119.7,193.1,119.7z M190.9,115.2h0.4c0.3,0,0.6,0,0.9,0c0.3,0,0.6-0.1,0.9-0.2c0.3-0.1,0.5-0.2,0.7-0.4
	c0.2-0.2,0.3-0.5,0.3-0.8c0-0.3-0.1-0.6-0.4-0.8c-0.2-0.2-0.5-0.2-0.8-0.2c-0.4,0-0.8,0.1-1.1,0.3c-0.3,0.2-0.5,0.6-0.7,0.9
	C191.1,114.4,191,114.8,190.9,115.2z"/>
<path class="st1" d="M204.6,119.7c-0.7,0-1.3-0.2-1.9-0.6c-0.5-0.4-1-0.9-1.2-1.5c-0.3-0.7-0.5-1.4-0.4-2.2c0-0.7,0.1-1.5,0.5-2.2
	c0.3-0.6,0.7-1.1,1.3-1.5c0.5-0.3,1.2-0.5,1.8-0.5c0.7,0,1.3,0.2,1.9,0.5c0.5,0.4,1,0.9,1.3,1.5c0.3,0.7,0.5,1.4,0.4,2.1
	c0,0.7-0.1,1.5-0.4,2.2c-0.3,0.6-0.7,1.1-1.3,1.5C206,119.5,205.3,119.7,204.6,119.7z M204.6,118.4c0.4,0,0.8-0.1,1.1-0.4
	c0.3-0.3,0.5-0.6,0.7-1c0.2-0.5,0.2-1,0.2-1.5c0-0.5-0.1-1-0.2-1.5c-0.1-0.4-0.4-0.8-0.7-1.1c-0.3-0.3-0.7-0.4-1.1-0.4
	c-0.3,0-0.6,0.1-0.9,0.2c-0.3,0.2-0.5,0.4-0.6,0.7c-0.2,0.3-0.3,0.7-0.4,1c-0.1,0.4-0.1,0.8-0.1,1.1c0,0.5,0.1,1,0.2,1.4
	c0.1,0.4,0.4,0.7,0.7,1C203.8,118.3,204.2,118.5,204.6,118.4z"/>
<path class="st1" d="M209.7,119.6l-0.2-0.9l1-0.2v-5.9h-1.2l-0.2-1l0.1-0.2h1.3V110c0-0.5,0.1-1,0.3-1.5c0.2-0.4,0.5-0.7,0.8-0.9
	c0.4-0.2,0.8-0.3,1.2-0.3c0.2,0,0.5,0,0.7,0.1c0.3,0.1,0.5,0.2,0.8,0.3c0.3,0.2,0.5,0.3,0.7,0.6l-1.4,1.2l-0.8-0.9h-0.2
	c-0.2,0-0.4,0.1-0.6,0.3c-0.1,0.2-0.1,0.4-0.1,0.7v1.9h1.9c0.1,0,0.1,0,0.1,0.1v1.1h-2v5.9l1.8,0.2v0.9L209.7,119.6z"/>
<path class="st1" d="M219.4,119.6l-0.2-0.9l1-0.2v-5.9h-1.1l-0.3-1l0.1-0.2h1.3V110c0-0.5,0.1-1,0.3-1.5c0.2-0.4,0.5-0.7,0.8-0.9
	c0.4-0.2,0.8-0.3,1.2-0.3c0.2,0,0.5,0,0.7,0.1c0.3,0.1,0.5,0.2,0.8,0.3c0.3,0.2,0.5,0.3,0.7,0.6l-1.4,1.1l-0.8-0.9h-0.2
	c-0.2,0-0.4,0.1-0.6,0.3c-0.1,0.2-0.1,0.4-0.1,0.7v1.9h1.9c0.1,0,0.1,0,0.1,0.1v1.1h-2v5.9l1.8,0.2v0.9H219.4z"/>
<path class="st1" d="M227.3,119.7c-0.4,0-0.9-0.1-1.3-0.3c-0.8-0.4-1.3-1.1-1.2-2c0-0.5,0.1-1,0.4-1.3c0.3-0.4,0.7-0.6,1.1-0.8
	c0.4-0.2,0.9-0.3,1.4-0.4c0.5-0.1,0.9-0.1,1.4-0.1v-1.2c0-0.3-0.1-0.5-0.3-0.6c-0.3-0.2-0.6-0.3-1-0.2h-0.4c-0.1,0-0.3,0.1-0.4,0.1
	l-0.4,1.1l-1.7-0.6c0.2-0.6,0.6-1.1,1.2-1.4c0.6-0.3,1.2-0.5,1.9-0.5c0.5,0,1,0.1,1.4,0.3c0.4,0.2,0.8,0.5,1,0.8
	c0.3,0.4,0.4,0.9,0.4,1.4v4.2c0,0.1,0,0.2,0.1,0.3c0.1,0.1,0.2,0.1,0.3,0.1h0.2c0,0,0.1,0,0.1,0l0.2,0.8c-0.1,0.1-0.3,0.2-0.4,0.3
	c-0.2,0.1-0.5,0.2-0.7,0.2c-0.3,0-0.5-0.1-0.8-0.2c-0.2-0.1-0.3-0.3-0.4-0.6c-0.3,0.2-0.5,0.4-0.9,0.6
	C228,119.7,227.6,119.7,227.3,119.7z M227.5,118.4c0.6,0,1.2-0.3,1.6-0.9v-1.6c-0.2,0-0.5,0-0.8,0.1c-0.3,0-0.6,0.1-0.9,0.2
	c-0.3,0.1-0.5,0.2-0.7,0.4c-0.2,0.2-0.3,0.5-0.3,0.7c0,0.3,0.1,0.6,0.3,0.8C226.9,118.3,227.2,118.4,227.5,118.4L227.5,118.4z"/>
<path class="st1" d="M232.5,119.6l-0.1-0.9l1-0.2v-10h-0.9l-0.2-1l2.1-0.3l0.6,0.6v10.7l1.1,0.2v0.9L232.5,119.6z"/>
<path class="st1" d="M236.9,119.6l-0.1-0.9l1-0.2v-10h-0.9l-0.2-1l2.1-0.3l0.5,0.6v10.7l1.1,0.2v0.9L236.9,119.6z"/>
<path class="st1" d="M243.9,119.7c-0.4,0-0.9-0.1-1.3-0.3c-0.8-0.4-1.2-1.2-1.2-2c0-0.5,0.1-1,0.4-1.3c0.3-0.4,0.7-0.6,1.1-0.8
	c0.5-0.2,0.9-0.3,1.4-0.4c0.5-0.1,0.9-0.1,1.4-0.1v-1.2c0-0.3-0.1-0.5-0.3-0.6c-0.3-0.2-0.6-0.3-1-0.2h-0.4c-0.1,0-0.3,0.1-0.4,0.1
	l-0.4,1.1l-1.7-0.6c0.2-0.6,0.6-1.1,1.1-1.4c0.6-0.3,1.2-0.5,1.9-0.5c0.5,0,1,0.1,1.4,0.3c0.4,0.2,0.8,0.5,1,0.8
	c0.2,0.4,0.4,0.9,0.4,1.4v4.2c0,0.1,0,0.2,0.1,0.3c0.1,0.1,0.2,0.1,0.2,0.1h0.2c0,0,0.1,0,0.1,0l0.2,0.8c-0.1,0.1-0.3,0.2-0.5,0.3
	c-0.2,0.1-0.4,0.2-0.7,0.2c-0.3,0-0.5-0.1-0.8-0.2c-0.2-0.1-0.3-0.3-0.4-0.6c-0.3,0.2-0.5,0.4-0.9,0.6
	C244.6,119.7,244.3,119.7,243.9,119.7z M244.1,118.4c0.3,0,0.7-0.1,0.9-0.2c0.3-0.1,0.5-0.4,0.6-0.6v-1.6c-0.2,0-0.5,0-0.8,0.1
	c-0.3,0-0.6,0.1-0.9,0.2c-0.3,0.1-0.5,0.2-0.7,0.4c-0.2,0.2-0.3,0.5-0.3,0.7c0,0.3,0.1,0.6,0.3,0.8
	C243.5,118.3,243.8,118.4,244.1,118.4z"/>
<path class="st1" d="M252.7,119.7c-0.5,0-1-0.1-1.4-0.3c-0.4-0.2-0.8-0.5-1.1-0.8c-0.3-0.4-0.6-0.8-0.8-1.3
	c-0.2-0.5-0.3-1.1-0.3-1.7c0-0.6,0.1-1.2,0.3-1.8c0.1-0.5,0.4-1,0.8-1.3c0.3-0.4,0.7-0.6,1.1-0.8c0.5-0.2,1-0.3,1.5-0.3
	c0.3,0,0.7,0,1,0.1c0.5,0.1,0.9,0.3,1.3,0.7l0.3,0.3l-1.4,1.1l-0.9-0.9h-0.4c-0.4,0-0.8,0.1-1.2,0.4c-0.3,0.3-0.5,0.7-0.6,1.1
	c-0.1,0.5-0.2,1-0.2,1.5c0,0.5,0.1,0.9,0.2,1.3c0.1,0.4,0.4,0.7,0.7,1c0.4,0.3,0.9,0.4,1.4,0.4c0.3,0,0.5,0,0.7-0.1
	c0.2-0.1,0.4-0.1,0.6-0.2c0.2-0.1,0.3-0.2,0.5-0.3l0.4,1.1c-0.3,0.3-0.7,0.5-1.1,0.6C253.6,119.6,253.2,119.7,252.7,119.7z"/>
<path class="st1" d="M256.3,119.6l-0.2-0.9l1-0.2v-5.8h-0.9l-0.2-1l2.1-0.4l0.5,0.6v6.6l1,0.2v0.9L256.3,119.6z M257.7,109.3
	c-0.3,0-0.6-0.1-0.8-0.3c-0.2-0.2-0.3-0.5-0.3-0.8c0-0.6,0.4-1,1-1c0,0,0,0,0.1,0c0.3,0,0.6,0.1,0.8,0.3c0.2,0.2,0.3,0.5,0.3,0.8
	C258.8,108.9,258.3,109.3,257.7,109.3C257.7,109.3,257.7,109.3,257.7,109.3z"/>
<path class="st1" d="M264.4,119.7c-0.7,0-1.4-0.2-2-0.5c-0.6-0.3-1-0.8-1.3-1.4c-0.3-0.7-0.5-1.4-0.5-2.2c0-0.8,0.1-1.6,0.5-2.3
	c0.3-0.6,0.8-1.1,1.3-1.5c0.6-0.3,1.2-0.5,1.9-0.5c0.5,0,0.9,0.1,1.3,0.3c0.4,0.2,0.7,0.4,1,0.8c0.3,0.4,0.4,0.8,0.4,1.3
	c0,0.5-0.1,0.9-0.4,1.3c-0.3,0.4-0.6,0.7-1,0.8c-0.4,0.2-0.9,0.3-1.4,0.4c-0.5,0.1-1,0.1-1.5,0.1h-0.5c0.1,0.5,0.3,1.1,0.7,1.5
	c0.4,0.4,1,0.6,1.6,0.6c0.4,0,0.8-0.1,1.2-0.2c0.3-0.1,0.6-0.3,0.9-0.5l0.3,1.2c-0.2,0.2-0.4,0.3-0.6,0.4c-0.3,0.1-0.6,0.2-0.9,0.3
	C265.1,119.7,264.8,119.7,264.4,119.7z M262.3,115.2h0.4c0.3,0,0.6,0,0.9,0c0.3,0,0.6-0.1,0.9-0.2c0.3-0.1,0.5-0.2,0.7-0.4
	c0.2-0.2,0.3-0.5,0.3-0.8c0-0.3-0.1-0.6-0.4-0.8c-0.2-0.2-0.5-0.2-0.8-0.2c-0.4,0-0.8,0.1-1.1,0.3c-0.3,0.2-0.5,0.6-0.7,0.9
	C262.4,114.4,262.3,114.8,262.3,115.2z"/>
<path class="st1" d="M271,119.7c-0.5,0-0.9-0.1-1.4-0.3c-0.7-0.3-1.2-0.8-1.6-1.5l1.7-0.7l0.4,1l0.3,0.1c0.2,0,0.4,0,0.6,0
	c0.2,0,0.3,0,0.5-0.1c0.2-0.1,0.3-0.2,0.5-0.3c0.1-0.2,0.2-0.4,0.2-0.6c0-0.2-0.1-0.5-0.2-0.6c-0.2-0.2-0.4-0.3-0.6-0.4
	c-0.3-0.1-0.6-0.3-0.9-0.3c-0.6-0.2-1.1-0.6-1.6-1c-0.4-0.4-0.6-0.9-0.5-1.4c0-0.4,0.1-0.9,0.4-1.2c0.3-0.4,0.6-0.6,1-0.8
	c0.9-0.4,1.9-0.4,2.7,0c0.3,0.2,0.7,0.4,0.9,0.7c0.2,0.2,0.4,0.5,0.5,0.7l-1.7,0.7l-0.4-0.9c-0.1-0.1-0.1-0.1-0.2-0.1
	c-0.2-0.1-0.3-0.1-0.5-0.1c-0.2,0-0.3,0-0.5,0.1c-0.2,0.1-0.3,0.2-0.4,0.3c-0.1,0.2-0.2,0.3-0.2,0.5c0,0.2,0.1,0.4,0.2,0.5
	c0.2,0.2,0.4,0.3,0.7,0.4l1.1,0.4c0.5,0.2,1,0.5,1.3,0.9c0.3,0.4,0.5,0.9,0.5,1.4c0,0.5-0.1,1-0.4,1.3c-0.3,0.4-0.6,0.6-1.1,0.8
	C272,119.6,271.5,119.7,271,119.7z"/>
<path class="st1" d="M276.2,115.6l-0.5-7.5l1.9-0.2l0.4,0.6l-0.6,7.1L276.2,115.6z M276.8,119.7c-0.3,0-0.5-0.1-0.7-0.3
	c-0.2-0.2-0.3-0.4-0.3-0.7c0-0.3,0.1-0.5,0.3-0.7c0.2-0.2,0.5-0.3,0.7-0.3c0.3,0,0.5,0.1,0.7,0.3c0.2,0.2,0.3,0.4,0.3,0.7
	C277.7,119.2,277.3,119.7,276.8,119.7L276.8,119.7z"/>
<path class="st1" d="M139.8,160.5c-0.8,0-1.5-0.1-2.3-0.4c-0.7-0.3-1.3-0.7-1.8-1.2c-0.5-0.5-0.9-1.2-1.2-1.9
	c-0.6-1.6-0.6-3.3,0-4.9c0.3-0.7,0.7-1.3,1.2-1.9c0.5-0.5,1.1-0.9,1.8-1.2c0.7-0.3,1.4-0.4,2.2-0.4c0.5,0,1,0,1.4,0.1l1,0.2l0.3,3.1
	h-1.2l-0.7-1.9h-0.3h-0.5c-0.7,0-1.5,0.2-2.1,0.6c-0.6,0.4-1.1,0.9-1.4,1.6c-0.3,0.7-0.5,1.4-0.5,2.2c0,0.8,0.2,1.6,0.5,2.3
	c0.3,0.7,0.8,1.2,1.4,1.6c0.6,0.4,1.4,0.6,2.1,0.6c0.4,0,0.9-0.1,1.3-0.2c0.4-0.1,0.8-0.3,1.1-0.6l0.6,1.3c-0.2,0.2-0.5,0.4-0.8,0.5
	c-0.3,0.1-0.7,0.3-1,0.4C140.6,160.5,140.2,160.5,139.8,160.5z"/>
<path class="st1" d="M143.8,160.4l-0.1-0.9l1-0.2v-10h-0.9l-0.2-1l2.1-0.3l0.5,0.6v10.7l1.1,0.2v0.9L143.8,160.4z"/>
<path class="st1" d="M148.5,160.4l-0.2-0.9l1-0.2v-5.8h-0.9l-0.2-1l2.1-0.4l0.5,0.6v6.6l1,0.2v0.9L148.5,160.4z M149.9,150.1
	c-0.3,0-0.6-0.1-0.8-0.3c-0.2-0.2-0.3-0.5-0.3-0.8c0-0.6,0.4-1,0.9-1.1c0,0,0.1,0,0.1,0c0.3,0,0.6,0.1,0.8,0.3
	c0.2,0.2,0.3,0.5,0.3,0.8c0,0.6-0.4,1-0.9,1.1C149.9,150.1,149.9,150.1,149.9,150.1z"/>
<path class="st1" d="M156.4,160.5c-0.5,0-1-0.1-1.4-0.3c-0.4-0.2-0.8-0.5-1.1-0.8c-0.3-0.4-0.6-0.8-0.8-1.3
	c-0.2-0.5-0.3-1.1-0.3-1.6c0-0.6,0.1-1.2,0.3-1.8c0.1-0.5,0.4-1,0.8-1.3c0.3-0.4,0.7-0.6,1.1-0.8c0.5-0.2,1-0.3,1.4-0.3
	c0.3,0,0.7,0,1,0.1c0.5,0.1,0.9,0.3,1.3,0.7l0.3,0.3l-1.4,1.1l-0.9-0.9h-0.4c-0.4,0-0.8,0.1-1.1,0.4c-0.3,0.3-0.5,0.7-0.6,1.1
	c-0.1,0.5-0.2,1-0.2,1.5c0,0.5,0.1,0.9,0.2,1.4c0.1,0.4,0.4,0.7,0.7,1c0.4,0.3,0.9,0.4,1.4,0.4c0.3,0,0.5,0,0.7-0.1
	c0.2-0.1,0.4-0.1,0.6-0.2c0.2-0.1,0.3-0.2,0.5-0.3l0.4,1.1c-0.3,0.3-0.7,0.5-1.1,0.6C157.3,160.4,156.8,160.5,156.4,160.5z"/>
<path class="st1" d="M159.8,160.4l-0.1-0.9l1-0.2v-10h-0.9l-0.2-1l2.1-0.3l0.5,0.6v7.3l2.6-2.6h-0.8l-0.1-1h2.6l0.4,0.8l-2.6,2.5
	l1.9,3.9l0.9,0.2v0.9H165l-1.9-3.8l-0.9,0.9v1.8l0.9,0.2v0.9L159.8,160.4z"/>
<path class="st1" d="M173.1,160.5l-0.4-0.2v-11l-1,0.1l-0.1-1l2.1-0.3l0.5,0.6v4.1c0.2-0.2,0.5-0.3,0.8-0.4c0.3-0.1,0.6-0.1,0.9-0.1
	c0.6,0,1.3,0.2,1.8,0.5c0.5,0.4,0.9,0.9,1.1,1.4c0.3,0.7,0.4,1.4,0.4,2.1c0,0.6-0.1,1.2-0.3,1.8c-0.2,0.5-0.4,0.9-0.7,1.3
	c-0.3,0.4-0.7,0.7-1.2,0.8c-0.8,0.3-1.6,0.4-2.4,0.2c-0.3-0.1-0.6-0.2-0.8-0.3L173.1,160.5z M175.6,159.2c0.4,0,0.8-0.1,1.2-0.4
	c0.3-0.3,0.6-0.6,0.7-1c0.2-0.5,0.2-1,0.2-1.5c0-0.5-0.1-1-0.2-1.5c-0.1-0.4-0.3-0.7-0.6-1c-0.3-0.3-0.7-0.4-1.1-0.4
	c-0.3,0-0.6,0.1-0.8,0.2c-0.2,0.1-0.4,0.2-0.6,0.4v4.8c0.2,0.1,0.4,0.2,0.6,0.3C175.1,159.2,175.3,159.2,175.6,159.2L175.6,159.2z"
	/>
<path class="st1" d="M184.2,160.5c-0.7,0-1.4-0.2-1.9-0.5c-0.6-0.3-1-0.8-1.3-1.4c-0.3-0.7-0.5-1.4-0.5-2.2c0-0.8,0.1-1.6,0.5-2.3
	c0.3-0.6,0.8-1.1,1.3-1.5c0.6-0.3,1.2-0.5,1.9-0.5c0.5,0,0.9,0.1,1.3,0.3c0.4,0.2,0.7,0.4,1,0.8c0.3,0.4,0.4,0.8,0.4,1.3
	c0,0.5-0.1,0.9-0.4,1.3c-0.3,0.4-0.6,0.6-1,0.8c-0.4,0.2-0.9,0.3-1.4,0.4c-0.5,0.1-1,0.1-1.5,0.1h-0.5c0.1,0.5,0.3,1.1,0.7,1.5
	c0.4,0.4,1,0.6,1.7,0.6c0.4,0,0.8-0.1,1.2-0.2c0.3-0.1,0.6-0.3,0.9-0.5l0.3,1.2c-0.2,0.2-0.4,0.3-0.6,0.4c-0.3,0.1-0.6,0.2-0.9,0.3
	C185,160.5,184.6,160.5,184.2,160.5z M182.1,156h0.4c0.3,0,0.6,0,0.9,0c0.3,0,0.6-0.1,0.9-0.2c0.3-0.1,0.5-0.2,0.7-0.4
	c0.2-0.2,0.3-0.5,0.3-0.8c0-0.3-0.1-0.6-0.4-0.8c-0.2-0.2-0.5-0.2-0.8-0.2c-0.4,0-0.8,0.1-1.1,0.4c-0.3,0.2-0.5,0.6-0.7,0.9
	C182.2,155.2,182.1,155.6,182.1,156z"/>
<path class="st1" d="M191.1,165c-0.6,0-1.1-0.1-1.7-0.3c-0.5-0.2-0.9-0.5-1.2-0.9c-0.3-0.4-0.4-0.9-0.4-1.4c0-0.5,0.1-1,0.4-1.4
	c0.3-0.3,0.6-0.6,1-0.9c-0.1-0.1-0.3-0.3-0.4-0.4c-0.1-0.2-0.1-0.4-0.1-0.6c0-0.3,0.1-0.5,0.2-0.7c0.1-0.2,0.3-0.4,0.4-0.6
	c-0.4-0.3-0.7-0.6-0.9-1c-0.5-1-0.5-2.2,0.1-3.1c0.3-0.5,0.7-0.8,1.2-1.1c0.5-0.3,1-0.4,1.6-0.4c0.4,0,0.8,0.1,1.1,0.2
	c0.4,0.1,0.7,0.3,1,0.5l1.7-0.9h0.4l0.2,1.4l-1.5,0.2c0.1,0.2,0.2,0.5,0.3,0.7c0.1,0.3,0.1,0.6,0.1,0.9c0,0.6-0.1,1.1-0.4,1.6
	c-0.3,0.4-0.7,0.8-1.2,1c-0.5,0.2-1,0.4-1.6,0.4h-0.4c-0.1,0-0.2,0-0.3-0.1l-0.3,0.5v0.3l1.8,0.4c0.5,0.1,1,0.3,1.4,0.5
	c0.4,0.2,0.7,0.4,0.9,0.8c0.2,0.4,0.4,0.8,0.3,1.2c0,0.6-0.2,1.2-0.5,1.7c-0.4,0.4-0.8,0.8-1.4,1C192.4,164.8,191.8,165,191.1,165z
	 M191.4,163.4c0.4,0,0.7,0,1.1-0.2c0.3-0.1,0.6-0.3,0.8-0.5c0.2-0.2,0.3-0.4,0.3-0.7c0-0.2-0.1-0.5-0.3-0.6
	c-0.2-0.2-0.5-0.3-0.8-0.4c-0.3-0.1-0.7-0.2-1-0.2s-0.7-0.2-1.1-0.3c-0.3,0.1-0.6,0.3-0.8,0.6c-0.2,0.2-0.3,0.5-0.3,0.9
	c0,0.3,0.1,0.5,0.3,0.7c0.2,0.2,0.5,0.4,0.8,0.5C190.7,163.4,191,163.5,191.4,163.4z M191.4,157c0.5,0,0.9-0.2,1.2-0.5
	c0.3-0.4,0.4-0.8,0.4-1.3c0-0.5-0.1-0.9-0.4-1.3c-0.3-0.4-0.7-0.6-1.2-0.5c-0.5,0-0.9,0.2-1.2,0.5c-0.3,0.4-0.4,0.8-0.4,1.3
	c0,0.5,0.1,0.9,0.4,1.3C190.5,156.9,190.9,157.1,191.4,157L191.4,157z"/>
<path class="st1" d="M196.6,160.4l-0.2-0.9l1-0.2v-5.8h-0.9l-0.2-1l2.1-0.4l0.5,0.6v6.6l1,0.2v0.9L196.6,160.4z M197.9,150.1
	c-0.3,0-0.6-0.1-0.8-0.3c-0.2-0.2-0.3-0.5-0.3-0.8c0-0.6,0.4-1,0.9-1c0,0,0,0,0.1,0c0.3,0,0.6,0.1,0.8,0.3c0.2,0.2,0.3,0.5,0.3,0.8
	C198.9,149.6,198.5,150.1,197.9,150.1C197.9,150.1,197.9,150.1,197.9,150.1L197.9,150.1z"/>
<path class="st1" d="M201.1,160.4l-0.2-0.9l1-0.2v-5.8H201l-0.2-1l2.1-0.4l0.5,0.7c0.6-0.4,1.3-0.6,2-0.6c0.5,0,0.9,0.1,1.3,0.3
	c0.4,0.2,0.7,0.4,0.9,0.8c0.2,0.4,0.3,0.9,0.3,1.3v4.8l1,0.2v0.9h-3.5v-0.9l0.9-0.2v-4.5c0-0.4-0.1-0.7-0.3-1
	c-0.3-0.2-0.6-0.4-0.9-0.3c-0.3,0-0.7,0.1-1,0.2c-0.3,0.1-0.5,0.3-0.8,0.4v5.1l1,0.2v0.9L201.1,160.4z"/>
<path class="st1" d="M216.9,160.5c-0.3,0-0.7-0.1-1-0.2c-0.3-0.2-0.5-0.4-0.6-0.7c-0.2-0.4-0.3-0.8-0.2-1.2v-5h-1.3l-0.2-1l0.1-0.2
	h1.5v-2.9l1.5-0.3l0.1,0.2v2.9h1.8c0.1,0,0.1,0,0.1,0.1v1.1h-1.9v5c0,0.2,0,0.5,0.2,0.6c0.1,0.1,0.3,0.2,0.5,0.1
	c0.2,0,0.4-0.1,0.6-0.2c0.2-0.1,0.3-0.2,0.5-0.3l0.3,1.1c-0.2,0.2-0.4,0.3-0.7,0.4C217.7,160.5,217.3,160.5,216.9,160.5z"/>
<path class="st1" d="M223.1,160.5c-0.7,0-1.3-0.2-1.9-0.6c-0.5-0.4-1-0.9-1.2-1.5c-0.3-0.7-0.5-1.4-0.4-2.2c0-0.7,0.1-1.5,0.5-2.1
	c0.3-0.6,0.7-1.1,1.3-1.5c1.1-0.7,2.6-0.7,3.7,0c0.5,0.4,1,0.9,1.3,1.5c0.3,0.7,0.5,1.4,0.4,2.1c0,0.7-0.1,1.5-0.4,2.2
	c-0.3,0.6-0.7,1.1-1.3,1.5C224.4,160.3,223.8,160.5,223.1,160.5z M223.1,159.2c0.4,0,0.8-0.1,1.1-0.4c0.3-0.3,0.5-0.6,0.7-1
	c0.2-0.5,0.2-1,0.2-1.5c0-0.5-0.1-1-0.2-1.5c-0.1-0.4-0.4-0.8-0.7-1.1c-0.3-0.3-0.7-0.4-1.1-0.4c-0.3,0-0.6,0.1-0.9,0.2
	c-0.3,0.2-0.5,0.4-0.6,0.7c-0.2,0.3-0.3,0.6-0.4,1c-0.1,0.4-0.1,0.8-0.1,1.1c0,0.5,0.1,1,0.2,1.4c0.1,0.4,0.4,0.7,0.7,1
	C222.3,159.1,222.7,159.2,223.1,159.2z"/>
<path class="st1" d="M234.8,160.5c-0.9,0-1.8-0.3-2.4-1c-0.2-0.2-0.4-0.5-0.6-0.8l1.7-0.7l0.4,1l0.3,0.1c0.2,0,0.4,0.1,0.6,0.1
	c0.2,0,0.3,0,0.5-0.1c0.2-0.1,0.3-0.2,0.5-0.3c0.1-0.2,0.2-0.4,0.2-0.6c0-0.2-0.1-0.5-0.2-0.6c-0.2-0.2-0.4-0.3-0.6-0.4
	c-0.3-0.1-0.6-0.3-0.9-0.4c-0.6-0.2-1.1-0.6-1.6-1c-0.4-0.4-0.6-0.9-0.6-1.4c0-0.4,0.1-0.9,0.4-1.2c0.3-0.4,0.6-0.6,1-0.8
	c0.9-0.4,1.9-0.4,2.7,0c0.3,0.2,0.7,0.4,0.9,0.6c0.2,0.2,0.4,0.5,0.5,0.7l-1.7,0.7l-0.4-0.9c-0.1-0.1-0.1-0.1-0.2-0.1
	c-0.2-0.1-0.3-0.1-0.5-0.1c-0.2,0-0.3,0-0.5,0.1c-0.2,0.1-0.3,0.2-0.4,0.3c-0.1,0.2-0.2,0.3-0.2,0.5c0,0.2,0.1,0.4,0.2,0.5
	c0.2,0.2,0.4,0.3,0.7,0.4l1.1,0.4c0.5,0.2,1,0.5,1.3,0.9c0.3,0.4,0.5,0.9,0.5,1.4c0,0.5-0.1,1-0.4,1.3c-0.3,0.4-0.6,0.7-1.1,0.8
	C235.7,160.4,235.2,160.5,234.8,160.5z"/>
<path class="st1" d="M241.7,160.5c-0.3,0-0.7-0.1-1-0.2c-0.3-0.2-0.5-0.4-0.6-0.7c-0.2-0.4-0.2-0.8-0.2-1.2v-5h-1.3l-0.2-1l0.1-0.2
	h1.5v-2.9l1.4-0.3l0.1,0.2v2.9h1.8c0.1,0,0.1,0,0.1,0.1v1.1h-1.9v5c0,0.2,0,0.5,0.2,0.6c0.1,0.1,0.3,0.2,0.5,0.1
	c0.2,0,0.5-0.1,0.6-0.2c0.2-0.1,0.3-0.2,0.5-0.3l0.3,1.1c-0.2,0.2-0.4,0.3-0.7,0.4C242.4,160.4,242.1,160.5,241.7,160.5z"/>
<path class="st1" d="M246.8,160.5c-0.4,0-0.9-0.1-1.3-0.3c-0.8-0.4-1.2-1.2-1.2-2c0-0.5,0.1-1,0.4-1.3c0.3-0.4,0.7-0.6,1.1-0.8
	c0.5-0.2,0.9-0.3,1.4-0.4c0.5-0.1,0.9-0.1,1.4-0.1v-1.2c0-0.3-0.1-0.5-0.3-0.6c-0.3-0.2-0.6-0.3-1-0.2h-0.4c-0.1,0-0.3,0.1-0.4,0.1
	l-0.4,1.1l-1.7-0.6c0.2-0.6,0.6-1.1,1.2-1.4c0.6-0.3,1.2-0.5,1.9-0.5c0.5,0,1,0.1,1.5,0.3c0.4,0.2,0.8,0.5,1,0.9
	c0.3,0.4,0.4,0.9,0.4,1.4v4.1c0,0.1,0,0.2,0.1,0.3c0.1,0.1,0.2,0.1,0.2,0.1c0.1,0,0.1,0,0.2,0c0,0,0.1,0,0.1,0l0.2,0.8
	c-0.1,0.1-0.3,0.2-0.4,0.3c-0.2,0.1-0.5,0.2-0.7,0.2c-0.3,0-0.5-0.1-0.8-0.2c-0.2-0.1-0.3-0.3-0.4-0.6c-0.3,0.2-0.5,0.4-0.9,0.6
	C247.6,160.4,247.2,160.5,246.8,160.5z M247.1,159.2c0.3,0,0.7-0.1,0.9-0.2c0.3-0.1,0.5-0.4,0.6-0.6v-1.6c-0.2,0-0.5,0-0.8,0.1
	c-0.3,0-0.6,0.1-0.9,0.2c-0.3,0.1-0.5,0.2-0.7,0.4c-0.2,0.2-0.3,0.5-0.3,0.7c0,0.3,0.1,0.6,0.3,0.8
	C246.5,159.1,246.8,159.2,247.1,159.2L247.1,159.2z"/>
<path class="st1" d="M252.2,160.4l-0.2-0.9l1-0.2v-5.8h-0.9l-0.2-1l2-0.4l0.5,0.8c0.2-0.2,0.5-0.4,0.8-0.6c0.3-0.1,0.6-0.2,0.9-0.2
	c0.5,0,0.9,0.1,1.3,0.4c0.3,0.2,0.6,0.6,0.8,0.9l-1.7,0.9l-0.5-0.8c-0.2,0-0.4,0.1-0.6,0.2c-0.3,0.1-0.5,0.3-0.6,0.6
	c-0.2,0.3-0.3,0.7-0.3,1.1v3.8l2.2,0.5v0.9L252.2,160.4z"/>
<path class="st1" d="M261.8,160.5c-0.3,0-0.7-0.1-1-0.2c-0.3-0.2-0.5-0.4-0.6-0.7c-0.2-0.4-0.3-0.8-0.2-1.2v-5h-1.3l-0.2-1l0.1-0.2
	h1.5v-2.9l1.5-0.3l0.1,0.2v2.9h1.8c0,0,0.1,0,0.1,0.1v1.1h-1.9v5c0,0.2,0,0.5,0.2,0.6c0.1,0.1,0.3,0.2,0.5,0.1
	c0.2,0,0.5-0.1,0.6-0.2c0.2-0.1,0.3-0.2,0.5-0.3l0.3,1.1c-0.2,0.2-0.4,0.3-0.7,0.4C262.7,160.5,262.2,160.5,261.8,160.5z"/>
<path class="st1" d="M156.2,185.5c-0.3,0-0.6-0.1-0.9-0.2c-0.3-0.1-0.6-0.3-0.9-0.5l0.7-1.2l0.4,0.3c0.2,0.1,0.4,0.2,0.6,0.2
	c0.2,0,0.3-0.1,0.4-0.2c0.1-0.1,0.3-0.3,0.3-0.5c0.1-0.2,0.2-0.4,0.3-0.7l0.4-1.1l-2.8-8h-0.6l-0.1-1l2.1-0.2l2.3,6.8l2-5.6h-0.7
	l-0.1-1l2-0.1l0.3,0.6c-0.1,0.3-0.2,0.6-0.4,1s-0.3,0.9-0.5,1.4s-0.4,1.1-0.6,1.6s-0.4,1.1-0.6,1.7s-0.4,1.1-0.6,1.7
	s-0.4,1.1-0.6,1.5l-0.4,1.2c-0.2,0.4-0.4,0.8-0.6,1.1c-0.2,0.3-0.4,0.5-0.7,0.7C156.7,185.4,156.4,185.5,156.2,185.5z"/>
<path class="st1" d="M166.3,180.9c-0.7,0-1.3-0.2-1.9-0.6c-0.5-0.4-1-0.9-1.3-1.5c-0.3-0.7-0.5-1.4-0.4-2.2c0-0.7,0.1-1.5,0.5-2.1
	c0.3-0.6,0.7-1.1,1.3-1.5c0.5-0.3,1.2-0.5,1.8-0.5c0.7,0,1.3,0.2,1.9,0.5c0.5,0.4,1,0.9,1.3,1.5c0.3,0.7,0.5,1.4,0.4,2.1
	c0,0.7-0.1,1.5-0.4,2.2c-0.3,0.6-0.7,1.1-1.3,1.5C167.7,180.7,167,180.9,166.3,180.9z M166.3,179.6c0.4,0,0.8-0.1,1.1-0.4
	c0.3-0.3,0.5-0.6,0.7-1c0.2-0.5,0.2-1,0.2-1.5c0-0.5-0.1-1-0.2-1.5c-0.1-0.4-0.4-0.8-0.7-1.1c-0.3-0.3-0.7-0.4-1.1-0.4
	c-0.3,0-0.6,0.1-0.9,0.2c-0.3,0.2-0.5,0.4-0.6,0.7c-0.2,0.3-0.3,0.6-0.4,1c-0.1,0.4-0.1,0.8-0.1,1.1c0,0.5,0.1,1,0.2,1.4
	c0.1,0.4,0.4,0.7,0.7,1C165.5,179.5,165.9,179.7,166.3,179.6z"/>
<path class="st1" d="M174.4,180.9c-0.5,0-0.9-0.1-1.3-0.3c-0.4-0.2-0.7-0.5-0.9-0.8c-0.2-0.5-0.4-1-0.3-1.5v-4.4h-0.9l-0.2-1
	l2.1-0.4l0.5,0.6v5c0,0.3,0,0.6,0.1,0.8c0.1,0.2,0.2,0.3,0.4,0.5c0.1,0.1,0.3,0.2,0.5,0.2c0.2,0,0.3,0,0.5,0c0.3,0,0.6-0.1,0.9-0.2
	c0.3-0.1,0.5-0.3,0.6-0.6v-4.9h-0.8l-0.2-1l2.1-0.4l0.5,0.6v6.2c0,0.1,0,0.2,0.1,0.3c0.1,0.1,0.2,0.1,0.2,0.1c0.1,0,0.1,0,0.2,0
	c0,0,0.1,0,0.1,0l0.2,0.8c-0.1,0.1-0.3,0.2-0.4,0.3c-0.2,0.1-0.5,0.2-0.7,0.2c-0.2,0-0.5-0.1-0.7-0.2c-0.2-0.1-0.4-0.3-0.4-0.6
	c-0.3,0.3-0.6,0.5-1,0.6C175.1,180.8,174.8,180.9,174.4,180.9z"/>
<path class="st1" d="M180,180.8l-0.2-0.9l1-0.2v-5.8h-0.9l-0.1-1l2-0.4l0.5,0.8c0.2-0.2,0.5-0.4,0.8-0.6c0.3-0.1,0.6-0.2,0.9-0.2
	c0.5,0,0.9,0.1,1.3,0.4c0.3,0.2,0.6,0.5,0.8,0.9l-1.7,0.9l-0.6-0.8c-0.2,0-0.4,0.1-0.6,0.2c-0.3,0.1-0.5,0.3-0.6,0.6
	c-0.2,0.3-0.3,0.7-0.3,1.1v3.7l2.2,0.5v0.9L180,180.8z"/>
<path class="st1" d="M191.2,185.4c-0.3,0-0.6-0.1-0.9-0.2c-0.2-0.1-0.4-0.2-0.6-0.4l0.7-1.1c0.1,0.1,0.2,0.2,0.3,0.2
	c0.1,0.1,0.3,0.1,0.4,0.1c0.2,0,0.4-0.1,0.4-0.3c0-0.2,0.1-0.5,0.1-0.7v-9.2h-1l-0.1-1l2.2-0.4l0.5,0.6v10c0,0.4,0,0.7-0.2,1.1
	c-0.1,0.3-0.2,0.5-0.4,0.7c-0.2,0.2-0.4,0.3-0.6,0.4C191.8,185.4,191.5,185.4,191.2,185.4z M192.1,170.5c-0.3,0-0.5-0.1-0.7-0.3
	c-0.2-0.2-0.3-0.5-0.3-0.8c0-0.3,0.1-0.6,0.3-0.8c0.2-0.2,0.5-0.3,0.7-0.3c0.3,0,0.6,0.1,0.8,0.3c0.2,0.2,0.3,0.5,0.3,0.8
	c0,0.3-0.1,0.6-0.3,0.8C192.7,170.4,192.4,170.5,192.1,170.5L192.1,170.5z"/>
<path class="st1" d="M198.5,180.9c-0.7,0-1.3-0.2-1.9-0.6c-0.5-0.4-1-0.9-1.3-1.5c-0.3-0.7-0.5-1.4-0.4-2.2c0-0.7,0.1-1.5,0.5-2.1
	c0.3-0.6,0.7-1.1,1.3-1.5c0.5-0.3,1.2-0.5,1.8-0.5c0.7,0,1.3,0.2,1.9,0.5c0.5,0.4,1,0.9,1.3,1.5c0.3,0.7,0.5,1.4,0.4,2.1
	c0,0.7-0.1,1.5-0.4,2.2c-0.3,0.6-0.7,1.1-1.3,1.5C199.8,180.7,199.2,180.9,198.5,180.9z M198.5,179.6c0.4,0,0.8-0.1,1.1-0.4
	c0.3-0.3,0.5-0.6,0.7-1c0.2-0.5,0.2-1,0.2-1.5c0-0.5-0.1-1-0.2-1.5c-0.1-0.4-0.4-0.8-0.7-1.1c-0.3-0.3-0.7-0.4-1.1-0.4
	c-0.3,0-0.6,0.1-0.9,0.2c-0.3,0.2-0.5,0.4-0.6,0.7c-0.2,0.3-0.3,0.6-0.4,1c-0.1,0.4-0.1,0.8-0.1,1.1c0,0.5,0.1,1,0.2,1.4
	c0.1,0.4,0.4,0.7,0.7,1C197.7,179.5,198.1,179.7,198.5,179.6z"/>
<path class="st1" d="M206.6,180.9c-0.5,0-0.9-0.1-1.3-0.3c-0.4-0.2-0.7-0.5-0.9-0.8c-0.2-0.5-0.4-1-0.3-1.5v-4.4h-0.9l-0.2-1
	l2.1-0.4l0.5,0.6v5c0,0.3,0,0.6,0.1,0.8c0.1,0.2,0.2,0.3,0.4,0.5c0.1,0.1,0.3,0.2,0.5,0.2c0.2,0,0.3,0,0.5,0c0.3,0,0.6-0.1,0.9-0.2
	c0.3-0.1,0.5-0.3,0.6-0.6v-4.9h-0.8l-0.2-1l2.1-0.4l0.5,0.6v6.2c0,0.1,0,0.2,0.1,0.3c0.1,0.1,0.2,0.1,0.2,0.1c0.1,0,0.1,0,0.2,0
	c0,0,0.1,0,0.1,0l0.2,0.8c-0.1,0.1-0.3,0.2-0.4,0.3c-0.2,0.1-0.5,0.2-0.7,0.2c-0.2,0-0.5-0.1-0.7-0.2c-0.2-0.1-0.4-0.3-0.4-0.6
	c-0.3,0.3-0.6,0.4-0.9,0.6C207.4,180.8,207,180.9,206.6,180.9z"/>
<path class="st1" d="M212.2,180.8l-0.2-0.9l1-0.2v-5.8h-0.9l-0.2-1l2-0.4l0.5,0.8c0.2-0.2,0.5-0.4,0.8-0.6c0.3-0.1,0.6-0.2,0.9-0.2
	c0.5,0,0.9,0.1,1.3,0.4c0.3,0.2,0.6,0.6,0.8,0.9l-1.7,0.9l-0.5-0.8c-0.2,0-0.4,0.1-0.6,0.2c-0.3,0.1-0.5,0.3-0.6,0.6
	c-0.2,0.3-0.3,0.7-0.3,1.1v3.7l2.2,0.5v0.9L212.2,180.8z"/>
<path class="st1" d="M219.1,180.8l-0.1-0.9l0.9-0.2v-5.8H219l-0.2-1l2.1-0.4l0.5,0.7c0.3-0.2,0.6-0.4,0.9-0.5
	c0.4-0.1,0.7-0.2,1.1-0.2c0.5,0,0.9,0.1,1.3,0.3c0.4,0.2,0.7,0.4,0.9,0.8c0.2,0.4,0.3,0.9,0.3,1.3v4.8l1,0.2v0.9h-3.5v-0.9l0.9-0.2
	v-4.5c0-0.4-0.1-0.7-0.3-1c-0.3-0.2-0.6-0.4-0.9-0.3c-0.3,0-0.7,0.1-1,0.2c-0.3,0.1-0.5,0.3-0.8,0.5v5.1l1,0.2v0.9L219.1,180.8z"/>
<path class="st1" d="M231.7,180.9c-0.7,0-1.4-0.2-1.9-0.5c-0.6-0.3-1-0.8-1.3-1.4c-0.3-0.7-0.5-1.4-0.5-2.2c0-0.8,0.1-1.6,0.5-2.3
	c0.3-0.6,0.8-1.1,1.3-1.5c0.6-0.3,1.2-0.5,1.8-0.5c0.5,0,0.9,0.1,1.3,0.3c0.4,0.2,0.7,0.4,1,0.8c0.3,0.4,0.4,0.8,0.4,1.3
	c0,0.5-0.1,0.9-0.4,1.3c-0.3,0.4-0.6,0.6-1,0.8c-0.4,0.2-0.9,0.3-1.4,0.4c-0.5,0.1-1,0.1-1.5,0.1h-0.5c0.1,0.5,0.3,1.1,0.7,1.5
	c0.4,0.4,1,0.6,1.7,0.6c0.4,0,0.8-0.1,1.2-0.2c0.3-0.1,0.6-0.3,0.9-0.5l0.3,1.2c-0.2,0.2-0.4,0.3-0.6,0.4c-0.3,0.1-0.6,0.2-0.9,0.3
	C232.4,180.9,232,180.9,231.7,180.9z M229.5,176.4h0.4c0.3,0,0.6,0,0.9-0.1c0.3,0,0.6-0.1,0.9-0.2c0.3-0.1,0.5-0.2,0.7-0.4
	c0.2-0.2,0.3-0.5,0.3-0.8c0-0.3-0.1-0.6-0.4-0.8c-0.2-0.2-0.5-0.2-0.8-0.2c-0.4,0-0.8,0.1-1.1,0.4c-0.3,0.2-0.5,0.6-0.7,0.9
	C229.6,175.5,229.5,175.9,229.5,176.4z"/>
<path class="st1" d="M237,185.5c-0.3,0-0.6-0.1-0.9-0.2c-0.3-0.1-0.6-0.3-0.9-0.5l0.7-1.2l0.4,0.3c0.2,0.1,0.4,0.2,0.6,0.2
	c0.2,0,0.3-0.1,0.5-0.2c0.1-0.1,0.3-0.3,0.3-0.5c0.1-0.2,0.2-0.4,0.3-0.7l0.4-1.1l-2.8-8h-0.6l-0.1-1l2.1-0.2l2.3,6.8l2-5.6h-0.7
	l-0.1-1l2-0.1l0.3,0.6c-0.1,0.3-0.2,0.6-0.4,1s-0.3,0.9-0.5,1.4s-0.4,1.1-0.6,1.6s-0.4,1.1-0.6,1.7s-0.4,1.1-0.6,1.7
	s-0.4,1.1-0.6,1.5l-0.4,1.2c-0.2,0.4-0.4,0.8-0.6,1.1c-0.2,0.3-0.4,0.5-0.7,0.7C237.5,185.4,237.3,185.5,237,185.5z"/>
<path class="st1" d="M244.6,176.8l-0.5-7.5l1.9-0.2l0.4,0.6l-0.6,7.1H244.6z M245.1,180.9c-0.3,0-0.5-0.1-0.7-0.3
	c-0.2-0.2-0.3-0.4-0.3-0.7c0-0.3,0.1-0.5,0.3-0.7c0.2-0.2,0.5-0.3,0.7-0.3c0.3,0,0.5,0.1,0.7,0.3c0.2,0.2,0.3,0.4,0.3,0.7
	C246.1,180.4,245.7,180.9,245.1,180.9L245.1,180.9z"/>
</svg>
